<svg width="190" height="134" viewBox="0 0 190 134" fill="none" xmlns="http://www.w3.org/2000/svg">
<g clip-path="url(#clip0_156_1188)">
<path d="M125.977 53.1088L126.524 56.6217C128.873 55.8737 131.169 55.2326 133.344 54.5914C137.308 53.4293 140.925 52.294 143.941 50.5976C144.635 49.3821 145.409 47.3918 146.25 44.9341C146.397 44.52 146.531 44.0926 146.677 43.6518C147.892 39.9519 149.187 35.4505 150.481 31.0693L143.181 25.5527C143.181 25.5527 143.154 25.6062 143.154 25.6462L137.255 44.8005L125.977 53.1221V53.1088Z" fill="#F5EFD1"/>
<path d="M156.66 63.3136L156.714 64.8096L157.381 81.239L157.581 86.1278L157.808 91.631L157.915 94.1822C158.342 95.932 160.317 97.0006 162.52 97.428C164.441 97.7887 166.537 97.6685 167.885 97.0273C168.072 96.9472 168.245 96.8537 168.392 96.7334C168.939 96.3728 169.273 95.8786 169.326 95.2641C169.473 94.9169 169.633 94.4627 169.78 93.9017C170.714 90.1216 170.981 74.1998 169.5 66.0118C170.14 63.2334 169.86 61.5237 169.113 58.9458C168.993 58.505 168.846 58.0375 168.699 57.5299C168.632 57.4498 166.243 58.3447 163.601 59.4667C160.277 60.8826 156.58 62.6591 156.66 63.3136Z" fill="#C29B5D"/>
<path d="M159.864 133.893L166.43 134L170.26 133.319L173.45 132.758L174.344 132.598L178.282 131.916L178.055 130.594C177.321 126.226 176.2 125.144 175.826 125.077C175.239 124.997 174.558 124.904 173.837 124.864C173.41 124.837 172.983 124.837 172.543 124.864C171.675 124.904 170.794 125.037 169.94 125.385C169.326 125.612 168.712 125.959 168.178 126.4C167.871 126.64 167.578 126.948 167.298 127.295C166.724 127.989 166.043 128.47 165.309 128.844C163.507 129.739 162.146 128.777 160.678 130.073C159.263 131.329 159.89 133.893 159.89 133.893H159.864Z" fill="#C29B5D"/>
<path d="M166.684 120.656L167.351 123.301L168.152 126.413L168.605 128.163L170.567 127.896L172.836 127.562L173.997 127.402L176.386 127.068L175.826 125.091L174.758 121.418L173.864 118.332L173.37 118.492L172.116 118.893L168.365 120.122L166.684 120.656Z" fill="#C29B5D"/>
<path d="M157.848 93.9817L157.902 94.1821L164.789 121.524C165.042 122.633 166.043 123.167 167.351 123.288C167.938 123.354 168.592 123.328 169.273 123.247C170.247 123.127 171.288 122.873 172.249 122.54C172.73 122.379 173.197 122.192 173.624 121.992C174.024 121.805 174.398 121.605 174.732 121.404C175.733 120.83 176.387 120.189 176.413 119.641C175.172 108.982 172.556 99.2712 169.767 93.8882C169.7 93.7814 169.66 93.6745 169.593 93.581C169.273 91.3771 168.299 87.9443 166.831 85.5533C166.777 85.4465 166.697 85.3396 166.63 85.2327C165.616 83.6699 164.348 82.6414 162.933 82.8418L162.8 82.8685C162.626 82.8952 162.44 82.9353 162.253 83.0021C159.624 83.8569 158.022 88.1045 157.782 91.6175C157.715 92.4724 157.728 93.2604 157.822 93.9684L157.848 93.9817Z" fill="#C29B5D"/>
<path d="M142.366 91.2968C142.233 93.8214 145.73 95.7448 148.879 96.2257C149.12 96.2657 149.36 96.2924 149.573 96.3058C150.134 96.3592 150.668 96.3459 151.162 96.2924C152.363 96.1722 153.324 95.7047 153.657 94.8632C154.672 93.6878 156.1 90.3351 157.555 86.1276C158.969 82.1605 160.411 77.4186 161.639 73.1176C161.652 73.0241 161.679 72.9306 161.705 72.8371C161.785 72.5432 161.879 72.236 161.959 71.9555C162.092 71.4479 162.239 70.9671 162.373 70.4862C163.107 67.748 163.734 65.3437 164.134 63.5538C164.348 62.6455 164.508 61.9242 164.588 61.3766C164.602 61.3231 164.615 61.2564 164.615 61.2029C164.615 61.1361 163.641 60.5885 162.172 60.0809C160.397 59.4665 157.902 58.9456 155.606 59.5066C154.872 59.6802 154.138 60.0008 153.471 60.4549C152.67 60.9892 151.869 61.1228 151.215 61.1762C150.441 61.2296 149.894 61.1495 149.84 61.4701L149.52 62.6188L149.093 64.1682C148.946 64.5957 148.813 65.0231 148.666 65.4505C147.625 68.6429 146.624 71.7819 145.743 74.854C144.355 79.6359 143.234 84.1908 142.673 88.2914C142.527 89.2799 142.433 90.2149 142.353 91.1499C142.353 91.1633 142.353 91.19 142.353 91.2167C142.353 91.2434 142.353 91.2701 142.353 91.2968H142.366Z" fill="#C29B5D"/>
<path d="M153.511 132.477V133.8H134.812C134.812 133.8 133.918 130.968 135.533 129.993C137.895 128.563 141.099 129.392 143.461 127.348C143.795 127.054 144.128 126.814 144.475 126.627C145.53 126.012 146.637 125.799 147.718 125.785C148.359 125.785 148.973 125.852 149.574 125.945C149.68 125.959 149.787 125.986 149.88 125.999C150.761 126.173 151.575 126.44 152.256 126.653C152.63 126.774 153.537 128.029 153.497 132.464L153.511 132.477Z" fill="#C29B5D"/>
<path d="M152.496 128.697L149.64 128.604L149.52 128.59L148.479 128.55L144.635 128.443L144.489 126.627L144.342 124.503L144.048 120.696L151.269 119.681L151.469 119.668L151.522 119.654V119.668V119.721V119.748L152.029 124.436L152.283 126.667L152.496 128.697Z" fill="#C29B5D"/>
<path d="M154.125 123.087C153.964 123.635 153.164 124.089 152.029 124.437C151.442 124.61 150.761 124.757 150.027 124.851C149.48 124.931 148.933 124.971 148.372 124.998C146.918 125.051 145.449 124.904 144.342 124.49C143.167 124.063 142.366 123.328 142.366 122.219L142.153 92.4994C142.193 92.0586 142.273 91.6178 142.38 91.1369C143.261 87.3702 146.33 82.5348 149.533 82.8421H149.667C151.522 83.0291 152.616 85.1796 153.204 87.7442C153.23 87.851 153.244 87.9579 153.27 88.0647C153.31 88.2517 153.337 88.4387 153.377 88.6257C153.764 90.8297 153.818 93.2073 153.671 94.8502C154.325 97.2679 154.725 100.647 154.885 104.561C155.112 110.104 154.859 116.703 154.111 123.074L154.125 123.087Z" fill="#C29B5D"/>
<path d="M144.142 32.9123V32.939C144.288 33.8072 144.448 34.7289 144.609 35.704C144.609 35.7173 144.609 35.7307 144.622 35.744C144.635 35.8242 144.649 35.9043 144.662 35.9845C144.675 36.0112 144.675 36.0379 144.675 36.0513C144.795 36.7592 144.929 37.4805 145.062 38.2285C145.436 40.3656 145.85 42.6364 146.25 44.9205C146.25 44.9472 146.25 44.9739 146.264 44.9873C146.317 45.3212 146.384 45.6551 146.437 45.9891C146.544 46.4833 146.637 46.9908 146.717 47.4984C146.824 48.0327 146.931 48.567 147.024 49.1013C147.024 49.1547 147.024 49.1681 147.038 49.2082C147.051 49.2749 147.064 49.3284 147.078 49.3818C147.198 49.9962 147.305 50.5839 147.411 51.185C147.438 51.3052 147.465 51.4255 147.478 51.5457C147.558 51.9865 147.638 52.4139 147.718 52.8413C148.439 56.7283 149.106 60.2279 149.56 62.6055C149.8 63.8744 149.987 64.8228 150.094 65.3704C150.161 65.7177 150.201 65.8914 150.201 65.8914L153.391 65.3571L156.727 64.7827L164.201 63.5138L165.029 63.3802L166.964 63.0463L169.046 62.699C169.046 62.699 169.086 61.2831 169.126 59.0658V58.9189C169.179 56.6749 169.246 53.6828 169.34 50.5439C169.406 47.3381 169.5 43.9988 169.566 41.1938C169.62 39.2837 169.113 37.6141 169.153 36.3985C169.153 36.305 169.179 36.1314 169.193 35.8776C169.246 35.1964 169.353 34.0343 169.393 33.0192C169.393 32.8989 169.406 32.7921 169.42 32.6986C169.513 31.7903 169.833 31.1491 169.86 30.695C169.9 29.2925 169.927 28.117 169.94 27.3023C169.94 27.0084 169.954 26.7546 169.967 26.5542C169.967 26.5008 169.967 26.4474 169.967 26.4073C170.007 25.2987 169.793 24.377 169.38 23.629C169.326 23.5221 169.273 23.4286 169.219 23.3485L169.193 23.3218L169.166 23.2951C169.113 23.2149 169.033 23.1214 168.953 23.0012C168.686 22.6806 168.365 22.3868 168.032 22.133C167.631 21.8391 167.204 21.5987 166.737 21.3716C166.724 21.3716 166.697 21.3716 166.684 21.3583C165.362 20.7572 163.814 20.4099 162.266 20.1294C162.092 20.076 161.906 20.0493 161.719 20.0092C161.025 19.889 160.024 19.5818 159.023 19.3146C158.529 19.181 158.049 19.0608 157.595 18.9673C157.555 18.9673 157.528 18.954 157.488 18.954C156.887 18.8337 156.34 18.7803 155.926 18.807L148.706 21.946H148.693L147.625 22.4001C147.558 22.4402 147.491 22.4669 147.425 22.507C146.864 22.7608 146.33 23.0146 145.81 23.2817C145.703 23.3351 145.61 23.3752 145.516 23.4286C145.356 23.5088 145.223 23.5889 145.076 23.6691C144.755 23.8427 144.448 24.0564 144.168 24.2969C143.941 24.4972 143.728 24.7243 143.541 24.9647C143.488 25.0315 143.421 25.1117 143.381 25.1784C143.381 25.1784 143.367 25.1784 143.367 25.1918C143.327 25.2319 143.301 25.2987 143.274 25.3387C143.247 25.3922 143.194 25.4322 143.167 25.499C143.154 25.5124 143.141 25.5524 143.141 25.5925C143.074 26.1802 143.474 28.9853 144.128 32.8722L144.142 32.9123Z" fill="#C29B5D"/>
<path d="M145.743 26.1269C145.943 27.9836 146.571 29.7868 147.225 31.5366C151.389 30.8287 155.593 30.4413 159.81 30.4012C159.81 27.6229 161.372 22.1064 163.561 20.41C163.374 20.3699 157.314 18.3663 155.926 18.8339C155.926 18.8339 147.131 22.2533 145.81 23.3219C145.65 24.2435 145.636 25.2053 145.743 26.1269Z" fill="#F5EFD1"/>
<path d="M163.614 35.6508C163.721 36.8129 163.841 38.0284 164.548 38.95C165.256 39.8851 166.444 40.3258 167.538 40.7266C167.591 40.7533 167.658 40.7666 167.711 40.7933C168.312 41.0071 168.953 41.1941 169.553 41.2208C169.593 39.2973 169.633 37.6544 169.673 36.4522C169.673 36.105 169.727 34.7158 169.753 33.3534C169.78 32.2714 169.807 31.2162 169.82 30.722C169.86 29.3195 169.887 28.144 169.9 27.3292C169.9 27.0354 169.927 26.7816 169.927 26.5812C169.927 26.5278 169.927 26.4744 169.927 26.4343C169.967 25.3256 169.753 24.404 169.34 23.656C169.286 23.5625 169.22 23.469 169.166 23.3755L169.153 23.3488L169.126 23.3221C169.073 23.2419 168.993 23.1484 168.913 23.0282C168.499 22.4939 167.738 21.7192 166.684 21.3986C166.67 21.3986 166.644 21.3986 166.63 21.3853C165.976 21.3853 164.281 24.965 164.095 25.6061C163.12 28.8252 163.28 32.2848 163.574 35.6508H163.614Z" fill="#F5EFD1"/>
<path d="M157.541 19.4349C156.701 23.6425 150.521 26.728 149.173 23.7894C149.146 23.7092 148.946 22.9879 148.693 21.9862C148.693 21.9594 148.679 21.9461 148.679 21.9194C148.639 21.7724 148.599 21.6121 148.559 21.4519C148.532 21.3584 148.506 21.2649 148.479 21.1446C148.386 20.784 148.292 20.41 148.199 20.0226C147.572 17.5248 146.891 14.6931 146.891 14.6931L150.735 13.0501C150.735 13.0501 150.735 13.0501 150.748 13.0501L151.495 12.7296L151.602 12.6761L152.39 12.3422L153.551 11.848L155.486 11.0332L155.926 12.7964L156.287 14.2924L156.927 16.9104L157.301 18.3931V18.4732L157.448 18.9941L157.501 19.2346V19.4616L157.541 19.4349Z" fill="#FFC990"/>
<path d="M174.425 41.0871L174.505 41.7148L174.905 51.3721L175.225 59.2262L180.471 60.041C181.004 53.3357 183.393 45.9625 182.793 39.7914C182.726 39.364 182.593 38.9633 182.419 38.5893C181.632 36.973 179.87 35.9979 178.015 36.2918H177.935C176.6 36.5055 175.519 37.307 174.905 38.4023C174.785 38.616 174.678 38.843 174.598 39.0835C174.385 39.6979 174.305 40.3925 174.425 41.0871Z" fill="#F5EFD1"/>
<path d="M156.54 12.7031C156.781 13.9587 154.445 13.3175 153.204 13.7316C153.204 13.7316 153.164 13.745 153.137 13.7583C153.124 13.7583 153.11 13.7717 153.097 13.7717C153.311 14.4396 153.404 15.0941 153.391 15.7352C153.351 17.5384 152.496 19.1814 151.455 20.2633C150.935 20.7976 150.374 21.1983 149.84 21.4254L148.145 21.9864C147.371 22.2268 146.664 21.9864 146.117 21.5055C145.983 21.3987 145.863 21.2918 145.756 21.1583C145.329 20.6907 145.009 20.103 144.836 19.5554C144.836 19.5554 144.182 16.5233 144.008 16.0024H143.181C142.647 16.0424 142.193 15.5883 142.246 15.054L142.527 12.9703L142.593 12.5027C142.593 12.5027 142.26 12.1421 141.939 11.6746C141.806 11.1002 141.699 10.5793 141.646 10.0584C141.539 9.05658 141.579 8.13493 141.739 7.32013C142.286 4.52847 144.235 2.73859 146.571 1.93716C147.945 1.53644 149.72 0.922008 151.482 1.1758C153.484 1.46966 155.473 2.89888 156.821 7.0797C157.181 8.90965 156.287 11.314 156.54 12.7165V12.7031Z" fill="#FFC990"/>
<path d="M156.887 14.5865C155.393 15.3879 154.458 15.3345 153.871 14.867C153.804 14.8135 153.751 14.7601 153.684 14.6933C153.457 14.4395 153.284 14.1056 153.177 13.7316C152.75 12.289 153.097 10.2988 153.097 10.2988C153.097 10.2988 152.443 12.5695 152.163 13.2374C151.584 13.3977 151.028 13.5357 150.495 13.6515C148.239 6.99955 148.679 3.59345 141.699 7.29341C141.886 4.06095 144.542 0.801781 147.051 0.748352C148.586 0.70828 150.107 0.721637 151.482 0.935354C153.778 1.30936 155.686 2.28444 156.607 4.7021C157.475 6.94612 158.075 8.16163 156.874 14.5731L156.887 14.5865Z" fill="#C29B5D"/>
<path d="M141.566 8.90946L147.825 8.17481L153.978 7.45352L154.178 7.42681L154.432 7.40009L157.381 7.0528L156.607 4.06078C155.926 1.76333 153.404 -0.0532566 151.002 0.000172428L147.171 0.080316C143.794 0.147102 141.472 3.15249 141.472 6.51851C141.472 6.61201 141.472 6.71887 141.472 6.82573L141.499 7.61381L141.552 8.90946H141.566Z" fill="#C29B5D"/>
<path d="M135.226 9.68413C136.147 10.6458 137.335 10.8329 138.896 10.6325C139.884 10.5123 141.019 10.2184 142.313 9.87113C143.688 9.49713 147.625 8.24154 147.825 8.17476C145.783 7.6939 143.848 7.41339 141.512 7.61375C141.512 7.61375 140.151 8.01447 138.696 8.46862C137.015 8.98955 135.213 9.57727 135.226 9.68413Z" fill="#C29B5D"/>
<path opacity="0.1" d="M142.58 12.4892L142.513 12.9567C146.677 11.6878 150.481 9.28345 154.432 7.38672L154.178 7.41343L154.018 7.48022C154.018 7.48022 153.991 7.4535 153.978 7.44015L147.825 8.16144C147.625 8.22823 143.701 9.48381 142.313 9.85781C142.073 9.9246 141.846 9.97803 141.619 10.0315C141.673 10.5524 141.779 11.0867 141.913 11.6477C142.233 12.1152 142.567 12.4758 142.567 12.4758L142.58 12.4892Z" fill="#050504"/>
<path opacity="0.1" d="M152.723 16.9238C152.977 16.5498 153.204 16.1491 153.377 15.7217C153.337 17.5249 152.483 19.1679 151.442 20.2498C150.922 20.7841 150.361 21.1848 149.827 21.4119L148.132 21.9729C147.358 22.2133 146.651 21.9729 146.104 21.492C145.97 21.3852 145.85 21.2783 145.743 21.1447C146.33 21.1447 146.918 21.0379 147.465 20.8509C148.519 20.5169 149.494 19.9426 150.374 19.2614C151.255 18.5935 152.096 17.8321 152.723 16.9105V16.9238Z" fill="#050504"/>
<path d="M165.269 31.6302L165.322 31.6836L165.456 31.8306L167.177 33.7139L168.405 35.0497L169.179 35.9045L169.687 36.4522L172.649 39.6846L174.518 41.7283L175.145 42.4229C175.452 42.7702 175.813 43.064 176.2 43.2777C176.533 43.4781 176.907 43.625 177.281 43.7052C178.575 44.0257 179.99 43.7185 181.058 42.7702L181.111 42.7167C182.312 41.6482 182.753 40.0586 182.406 38.5893C182.246 37.9482 181.925 37.3204 181.458 36.7861L169.193 23.3621L169.166 23.3354L169.139 23.3086L168.632 22.7744C168.459 22.574 168.272 22.4137 168.058 22.2534L165.242 31.6169L165.269 31.6302Z" fill="#F5EFD1"/>
<path d="M144.969 10.7127L145.249 12.1018L152.523 9.56393C152.457 9.02964 152.363 8.70906 152.163 8.21484L144.956 10.7127H144.969Z" fill="#C29B5D"/>
<path d="M154.178 10.5524C154.539 11.7946 153.898 13.531 153.084 13.7581C152.27 13.9852 152.069 12.9567 151.709 11.7145C151.469 10.8997 150.922 9.77765 151.749 9.27007C152.47 8.81593 153.671 8.72243 154.192 10.5524H154.178Z" fill="#FFC990"/>
<path d="M145.476 11.1L145.983 12.9299C146.144 13.4776 145.863 14.0653 145.343 14.2924L144.876 14.4927C144.716 14.5595 144.502 14.613 144.288 14.6397C143.915 14.6797 143.541 14.5061 143.287 14.2122C142.9 13.7714 142.593 13.4776 142.166 13.3574C141.966 13.3039 141.819 13.1303 141.766 12.9299L141.472 11.5007C141.419 11.2603 141.566 11.0065 141.806 10.9397L144.048 10.2986C144.662 10.1249 145.289 10.4856 145.463 11.0866L145.476 11.1Z" fill="#C29B5D"/>
<path d="M141.806 11.6475C141.766 11.4204 141.899 11.1934 142.113 11.1399L142.994 10.8995C142.994 10.8995 143.074 10.8861 143.114 10.8995C143.327 10.9396 143.528 11.2067 143.634 11.5406L144.168 13.3706C144.275 13.7446 144.475 14.359 144.248 14.3991C143.621 14.4926 143.02 13.1969 142.38 13.0367C142.18 12.9966 142.046 12.8096 142.006 12.6092L141.806 11.6609V11.6475Z" fill="#C0DDDB"/>
<path opacity="0.15" d="M163.601 59.4668C164.148 60.6422 164.615 61.9512 165.015 63.4072C166.577 69.1642 166.951 76.9915 166.857 85.5802C166.83 88.0513 166.764 90.5892 166.684 93.1671C167.311 94.3159 167.885 95.4913 168.405 96.7469C171.061 102.918 172.596 110.278 173.37 118.519C173.45 119.468 173.53 120.416 173.597 121.378L173.637 122.019L173.837 124.891L173.997 127.415L174.344 132.624L178.282 131.943L178.055 130.621C177.321 126.253 176.2 125.171 175.826 125.104L174.758 121.431C175.759 120.857 176.413 120.216 176.44 119.668C175.199 109.009 172.583 99.2981 169.793 93.9151C170.728 90.135 170.995 74.2132 169.513 66.0252C170.154 63.2469 169.873 61.5372 169.126 58.9592C169.179 56.7152 169.246 53.7232 169.34 50.5842C169.406 47.3785 169.5 44.0392 169.566 41.2341C169.606 39.3107 169.647 37.6677 169.687 36.4656L172.649 39.698L174.518 41.7417L174.918 51.399L176.213 43.2911L176.667 40.406C175.959 40.0721 175.279 39.6313 174.598 39.097C172.876 37.7345 171.275 35.7844 169.767 33.3533C169.647 33.153 169.526 32.9393 169.393 32.7389C169.166 32.3516 168.953 31.9642 168.726 31.5635C168.632 32.7389 168.525 33.9144 168.405 35.0764C168.205 37.0266 167.992 38.9367 167.725 40.8067C166.804 47.5655 165.456 53.8434 163.614 59.4935L163.601 59.4668Z" fill="#1D1D1B"/>
<path opacity="0.15" d="M142.7 88.2917C142.553 89.2802 142.46 90.2152 142.38 91.1502L142.847 89.5874L150.081 65.384L151.282 61.3368L151.242 61.1765L146.651 43.6518L144.956 37.1602C144.996 37.5074 145.023 37.8681 145.036 38.2287C145.183 41.715 144.155 46.1095 141.512 47.4586C141.512 49.2618 137.228 52.3206 133.331 54.578C137.295 53.4159 140.912 52.2806 143.928 50.5842C144.622 49.3687 145.396 47.3785 146.237 44.9207C146.237 44.9474 146.237 44.9742 146.25 44.9875C146.304 45.3214 146.371 45.6554 146.424 45.9893C146.531 46.4835 146.624 46.9911 146.704 47.4987C146.811 48.033 146.918 48.5673 147.011 49.1015C147.011 49.155 147.011 49.1683 147.025 49.2084C147.038 49.2752 147.051 49.3286 147.065 49.382C147.185 49.9965 147.291 50.5842 147.398 51.1853C147.425 51.3055 147.452 51.4257 147.465 51.5459C147.545 51.9867 147.625 52.4141 147.705 52.8416C148.426 56.7285 149.093 60.2281 149.547 62.6057L149.12 64.1552C148.973 64.5826 148.84 65.01 148.693 65.4375C147.652 68.6299 146.651 71.7688 145.77 74.841C144.382 79.6229 143.261 84.1777 142.7 88.2784V88.2917Z" fill="#1D1D1B"/>
<path d="M85.4305 56.6077V73.932H176.64V71.5144L176.653 67.8144V66.305V64.7022V62.3646L176.667 59.2123V57.6362L161.425 56.621L141.552 56.9282L123.575 56.5142L99.3776 57.2354L91.4231 56.8748H91.3964L89.9283 56.808L85.4305 56.6077Z" fill="#78513E"/>
<path opacity="0.3" d="M169.9 59.6669L174.398 60.976C174.398 60.976 168.552 62.3651 169.006 62.3651H176.653V59.2128L170.167 58.1309L164.695 59.2929L159.396 58.1309L164.428 60.3615L169.9 59.6669Z" fill="#1D1D1B"/>
<path opacity="0.3" d="M166.404 62.3648L155.406 62.8323L150.348 61.9775L141.94 63.6738L131.81 61.9775H142.126L150.441 60.6685L155.887 61.8305L166.404 62.3648Z" fill="#1D1D1B"/>
<path opacity="0.3" d="M155.406 65.464L165.776 65.651L173.677 66.3055H176.654V64.7026L174.038 64.1416H165.856L155.406 65.464Z" fill="#1D1D1B"/>
<path opacity="0.3" d="M159.036 60.2548L146.731 59.3999L141.059 60.2548L134.052 58.9191L115.46 58.5183L134.052 57.5967L141.419 58.7454L148.079 57.5967L159.036 60.2548Z" fill="#1D1D1B"/>
<path opacity="0.3" d="M159.036 67.6409L148.706 66.3052L141.059 67.6409L133.424 65.2233L108.306 65.063L133.611 63.6738L141.152 65.6507L149.6 64.5955L159.036 67.6409Z" fill="#1D1D1B"/>
<path opacity="0.3" d="M143.141 68.8433L153.11 69.3776C153.11 69.3776 160.037 71.1274 160.478 70.8335C160.918 70.5263 166.403 68.8433 166.403 68.8433L171.889 70.0722C171.889 70.0722 164.001 72.5032 164.428 72.5165C165.322 72.5299 172.249 71.5147 172.249 71.5147H176.654V67.8148L172.156 67.4141L166.403 67.6411L159.397 69.3909L152.657 68.0151L143.141 68.8566V68.8433Z" fill="#1D1D1B"/>
<path opacity="0.3" d="M163.334 73.9323H176.64V73.6251L171.435 72.5298L163.334 73.9323Z" fill="#1D1D1B"/>
<path opacity="0.3" d="M115.367 67.6145L115.607 67.6279L103.982 66.8131L92.3307 64.8896L85.4172 66.3589L92.2373 65.651L103.809 68.0286L115.313 69.6448H115.38H115.554L133.344 67.2672L115.367 67.6145Z" fill="#1D1D1B"/>
<path opacity="0.3" d="M85.4305 58.999V59.1059L98.1631 60.869L105.09 63.6741L117.515 61.4968L130.235 62.1513L117.395 60.0142L105.357 62.1513L99.6445 60.2412L98.43 59.707L85.4305 58.999Z" fill="#1D1D1B"/>
<path opacity="0.3" d="M88.4067 56.4878L107.012 58.9188H114.699L106.932 60.4415L88.4067 56.4878Z" fill="#1D1D1B"/>
<path opacity="0.3" d="M85.4305 62.2983V62.7257L96.0543 63.6741L106.918 65.9048L96.5615 62.1514L85.4305 62.2983Z" fill="#1D1D1B"/>
<path opacity="0.3" d="M85.4305 68.5361V71.3678L93.0914 70.1389L102.888 72.3963H125.977L103.061 70.7667L93.3717 67.8682L93.1848 67.8281L92.8912 67.8548L85.4305 68.5361Z" fill="#1D1D1B"/>
<path opacity="0.3" d="M85.4305 72.5701V73.9326H90.3954C94.2125 73.1578 97.8027 72.3965 97.8027 72.3965C97.8027 72.3965 93.6519 72.49 89.5146 72.5434C88.0998 72.5568 86.6851 72.5701 85.4439 72.5701H85.4305Z" fill="#1D1D1B"/>
<path opacity="0.3" d="M123.548 70.7799L137.295 68.5894L145.823 70.5529L160.544 72.5164L145.89 71.902L136.975 70.1655L123.548 70.7799Z" fill="#1D1D1B"/>
<path opacity="0.3" d="M128.073 72.3965L143.715 73.9326H149.894L143.354 72.4366L128.073 72.3965Z" fill="#1D1D1B"/>
<path opacity="0.3" d="M85.4305 73.6117V68.8832L89.9283 69.0568L91.3964 69.1103H91.4231L99.3776 69.4175L123.575 68.8164L141.552 69.1503L161.425 68.8966L176.667 69.7514V71.0738L176.653 73.6117H85.4305Z" fill="#1D1D1B"/>
<path d="M184.782 81.2925H5.21851V88.6924H184.782V81.2925Z" fill="#878787"/>
<path d="M178.909 101.155H11.0909V108.555H178.909V101.155Z" fill="#878787"/>
<path d="M88.4202 44.6133H0.400391V73.1845H88.4202V44.6133Z" fill="#C6C6C6"/>
<path d="M190 72.9307H0V82.6414H190V72.9307Z" fill="#375D68"/>
<path d="M4.72461 73.1711H84.0826V43.9988C84.0826 42.2624 82.6812 40.8599 80.9462 40.8599H7.86102C6.12599 40.8599 4.72461 42.2624 4.72461 43.9988V73.1711Z" fill="#477987"/>
<path opacity="0.2" d="M80.9462 42.3159C81.8805 42.3159 82.6412 43.0773 82.6412 44.0123V71.742L81.44 44.5065C81.4133 43.852 80.8795 43.3444 80.2255 43.3311L9.66284 42.3159H80.9329H80.9462Z" fill="white"/>
<path d="M21.2609 44.6133H8.71521V46.2161H21.2609V44.6133Z" fill="#1D1D1B"/>
<path d="M21.2609 47.4048H8.71521V49.0077H21.2609V47.4048Z" fill="#1D1D1B"/>
<path d="M21.2609 50.1968H8.71521V51.7996H21.2609V50.1968Z" fill="#1D1D1B"/>
<path d="M21.2609 53.0015H8.71521V54.6043H21.2609V53.0015Z" fill="#1D1D1B"/>
<path d="M21.2609 55.7935H8.71521V57.3963H21.2609V55.7935Z" fill="#1D1D1B"/>
<path d="M21.2609 58.5981H8.71521V60.201H21.2609V58.5981Z" fill="#1D1D1B"/>
<path d="M57.5632 67.2408H69.3214C70.5226 67.2408 71.4969 66.1989 71.4969 64.9166V46.2031C71.4969 44.9208 70.5226 43.8789 69.3214 43.8789H57.5632C56.362 43.8789 55.3877 44.9208 55.3877 46.2031V64.9166C55.3877 66.1989 56.362 67.2408 57.5632 67.2408Z" fill="#BFBFBF"/>
<path d="M69.308 44.6133H57.5632C56.3617 44.6133 55.3877 45.5881 55.3877 46.7905V64.3553C55.3877 65.5578 56.3617 66.5325 57.5632 66.5325H69.308C70.5095 66.5325 71.4835 65.5578 71.4835 64.3553V46.7905C71.4835 45.5881 70.5095 44.6133 69.308 44.6133Z" fill="#EDEDED"/>
<path d="M69.2146 46.6836H57.6699V50.8511H69.2146V46.6836Z" fill="#95BBCC"/>
<path d="M61.9408 51.4521H57.6699V52.5875H61.9408V51.4521Z" fill="#95BBCC"/>
<path d="M66.5987 51.4521H62.3279V52.5875H66.5987V51.4521Z" fill="#405E6B"/>
<path d="M69.2146 51.4521H66.9857V52.5875H69.2146V51.4521Z" fill="#405E6B"/>
<path d="M69.0545 62.2178H65.6912V64.5686H69.0545V62.2178Z" fill="#405E6B"/>
<path d="M69.0545 59.5332H65.6912V61.8707H69.0545V59.5332Z" fill="#405E6B"/>
<path d="M69.0545 56.8481H65.6912V59.1857H69.0545V56.8481Z" fill="#405E6B"/>
<path d="M69.0545 54.1636H65.6912V56.5011H69.0545V54.1636Z" fill="#405E6B"/>
<path d="M65.1172 62.2178H61.7539V64.5686H65.1172V62.2178Z" fill="#405E6B"/>
<path d="M65.1172 59.5332H61.7539V61.8707H65.1172V59.5332Z" fill="#405E6B"/>
<path d="M65.1172 56.8481H61.7539V59.1857H65.1172V56.8481Z" fill="#405E6B"/>
<path d="M65.1172 54.1636H61.7539V56.5011H65.1172V54.1636Z" fill="#95BBCC"/>
<path d="M61.1934 62.2178H57.8301V64.5686H61.1934V62.2178Z" fill="#405E6B"/>
<path d="M61.1934 59.5332H57.8301V61.8707H61.1934V59.5332Z" fill="#405E6B"/>
<path d="M61.1934 56.8481H57.8301V59.1857H61.1934V56.8481Z" fill="#405E6B"/>
<path d="M61.1934 54.1636H57.8301V56.5011H61.1934V54.1636Z" fill="#FA4E4E"/>
<path d="M73.9794 53.7497C73.9794 54.6179 74.6867 55.3392 75.5676 55.3392H78.7974C79.6783 55.3392 80.3857 54.6313 80.3857 53.7497C80.3857 52.8681 79.6783 52.1602 78.7974 52.1602H75.5676C74.6867 52.1602 73.9794 52.8681 73.9794 53.7497Z" fill="#95BBCC"/>
<path d="M73.9794 47.8459C73.9794 49.609 75.4074 51.0516 77.1825 51.0516C78.9576 51.0516 80.3723 49.6224 80.3723 47.8459C80.3723 46.0694 78.9443 44.6401 77.1825 44.6401C75.4208 44.6401 73.9794 46.0694 73.9794 47.8459Z" fill="#FA4E4E"/>
<path opacity="0.3" d="M79.0243 48.2731C79.0243 46.8439 77.8631 45.6818 76.4351 45.6818C76.1281 45.6818 75.8345 45.7486 75.5542 45.8421C75.9946 45.4815 76.5552 45.2544 77.1825 45.2544C78.6105 45.2544 79.7717 46.4165 79.7717 47.8457C79.7717 48.9677 79.051 49.9161 78.0633 50.2767C78.6506 49.7959 79.0376 49.0879 79.0376 48.2731H79.0243Z" fill="white"/>
<path d="M43.7629 61.8177C43.7629 62.4588 44.2834 62.9931 44.9374 62.9931C45.5781 62.9931 46.1119 62.4722 46.1119 61.8177V48.8478C46.1119 48.2067 45.5914 47.6724 44.9374 47.6724C44.2968 47.6724 43.7629 48.1933 43.7629 48.8478V61.8177Z" fill="#1D1D1B"/>
<path d="M38.1041 61.8177C38.1041 62.4588 38.6246 62.9931 39.2786 62.9931C39.9192 62.9931 40.4531 62.4722 40.4531 61.8177V48.8478C40.4531 48.2067 39.9326 47.6724 39.2786 47.6724C38.638 47.6724 38.1041 48.1933 38.1041 48.8478V61.8177Z" fill="#1D1D1B"/>
<path d="M44.2968 63.3537V54.952C44.2968 54.6047 44.5771 54.3242 44.9241 54.3242C45.2711 54.3242 45.5514 54.6047 45.5514 54.952V63.3537H44.2834H44.2968Z" fill="#95BBCC"/>
<path d="M43.0022 62.8995C43.0022 63.9681 43.8697 64.823 44.9241 64.823C45.9785 64.823 46.846 63.9547 46.846 62.8995C46.846 61.8443 45.9785 60.9761 44.9241 60.9761C43.8697 60.9761 43.0022 61.8443 43.0022 62.8995Z" fill="#FA4E4E"/>
<path opacity="0.3" d="M46.0452 63.1535C46.0452 62.2853 45.3512 61.5907 44.4837 61.5907C44.2968 61.5907 44.1233 61.6308 43.9498 61.6842C44.2168 61.4705 44.5504 61.3369 44.9241 61.3369C45.7916 61.3369 46.4857 62.0315 46.4857 62.8997C46.4857 63.5809 46.0586 64.1419 45.458 64.369C45.805 64.0885 46.0452 63.6477 46.0452 63.1669V63.1535Z" fill="white"/>
<path d="M39.9058 46.6172V55.0189C39.9058 55.3662 39.6255 55.6467 39.2785 55.6467C38.9315 55.6467 38.6512 55.3662 38.6512 55.0189V46.6172H39.9192H39.9058Z" fill="#95BBCC"/>
<path d="M39.2786 49.7961C40.34 49.7961 41.2005 48.935 41.2005 47.8727C41.2005 46.8104 40.34 45.9492 39.2786 45.9492C38.2171 45.9492 37.3567 46.8104 37.3567 47.8727C37.3567 48.935 38.2171 49.7961 39.2786 49.7961Z" fill="#FA4E4E"/>
<path opacity="0.3" d="M40.3863 48.1266C40.3863 47.2584 39.6923 46.5638 38.8248 46.5638C38.6379 46.5638 38.4644 46.6039 38.2909 46.6574C38.5578 46.4436 38.8915 46.3101 39.2652 46.3101C40.1327 46.3101 40.8267 47.0046 40.8267 47.8729C40.8267 48.5541 40.3996 49.1151 39.799 49.3422C40.146 49.0617 40.3863 48.6209 40.3863 48.14V48.1266Z" fill="white"/>
<path opacity="0.2" d="M88.7005 69.8584H0.400391V73.171H88.7005V69.8584Z" fill="#1D1D1B"/>
<path d="M155.406 88.6924L159.236 97.6284L174.852 134H182.032L176.547 97.6284L175.199 88.6924H155.406Z" fill="#575756"/>
<path d="M5.4187 134H10.13L20.3534 97.6284L22.8625 88.6924H9.88976L9.0089 97.6284L5.4187 134Z" fill="#575756"/>
<path d="M146.557 134H34.0868L46.3255 125.478L59.9122 122.726L65.3175 117.424L76.5685 119.294C76.5685 119.294 83.9091 113.109 86.2047 112.815C88.5002 112.521 96.5748 114.619 96.5748 114.619L107.345 117.41L126.471 125.879L135.093 124.717L142.794 129.205L146.544 133.987L146.557 134Z" fill="#CFAD86"/>
<g opacity="0.2">
<path d="M138.216 131.181C138.216 131.181 138.016 131.302 137.682 131.449C137.335 131.596 136.841 131.702 136.321 131.729C135.8 131.729 135.266 131.662 134.866 131.502C134.466 131.355 134.212 131.195 134.212 131.195L135.079 130.18C135.079 130.18 135.186 130.327 135.4 130.514C135.613 130.714 135.987 130.914 136.401 131.075C136.814 131.208 137.282 131.275 137.615 131.262C137.976 131.248 138.203 131.195 138.203 131.195L138.216 131.181Z" fill="black"/>
</g>
<g opacity="0.2">
<path d="M136.134 129.004C136.134 129.004 136.067 128.871 135.974 128.684C135.934 128.577 135.867 128.47 135.773 128.403C135.68 128.323 135.613 128.243 135.52 128.176C135.293 128.056 135.106 127.936 134.919 127.922C134.759 127.882 134.652 127.869 134.652 127.869L135.253 126.68C135.253 126.68 135.373 126.814 135.56 127.001C135.747 127.174 135.907 127.495 136.054 127.789C136.12 127.949 136.147 128.136 136.174 128.27C136.214 128.417 136.201 128.537 136.174 128.644C136.147 128.857 136.12 129.004 136.12 129.004H136.134Z" fill="black"/>
</g>
<g opacity="0.2">
<path d="M124.416 130.393L121.586 130.313L121.933 129.018L124.416 130.393Z" fill="black"/>
</g>
<g opacity="0.2">
<path d="M119.891 129.726L117.115 129.352L117.595 128.109L119.891 129.726Z" fill="black"/>
</g>
<g opacity="0.2">
<path d="M128.7 129.191C128.7 129.191 128.326 129.111 127.752 129.004C127.472 128.951 127.138 128.897 126.791 128.777C126.431 128.67 126.057 128.55 125.684 128.43C125.31 128.283 124.963 128.109 124.616 127.962C124.269 127.829 123.962 127.642 123.708 127.495C123.188 127.188 122.827 126.974 122.827 126.974L123.682 125.945C123.682 125.945 123.948 126.199 124.349 126.573C124.549 126.773 124.789 126.987 125.083 127.188C125.363 127.388 125.67 127.628 125.977 127.829C126.297 128.016 126.631 128.203 126.938 128.376C127.245 128.563 127.565 128.684 127.832 128.804C128.366 129.031 128.713 129.191 128.713 129.191H128.7Z" fill="black"/>
</g>
<g opacity="0.2">
<path d="M115.914 126.039L112.978 126.426L113.098 125.104L115.914 126.039Z" fill="black"/>
</g>
<g opacity="0.2">
<path d="M109.054 129.432C109.054 129.432 108.68 129.472 108.133 129.526C107.572 129.552 106.852 129.726 106.144 129.846C105.437 130.06 104.743 130.22 104.249 130.447C103.755 130.648 103.422 130.768 103.422 130.768L103.021 129.499C103.021 129.499 103.408 129.445 103.982 129.352C104.543 129.232 105.317 129.232 106.078 129.178C106.852 129.218 107.599 129.205 108.146 129.312C108.693 129.379 109.067 129.432 109.067 129.432H109.054Z" fill="black"/>
</g>
<g opacity="0.2">
<path d="M103.101 128.884C103.101 128.884 102.874 128.884 102.554 128.911C102.247 128.951 101.833 129.058 101.473 129.231C101.113 129.418 100.806 129.645 100.646 129.859C100.472 130.059 100.419 130.206 100.405 130.193L99.4177 129.298C99.4177 129.298 99.6446 129.111 99.9916 128.937C100.339 128.75 100.832 128.63 101.313 128.577C101.793 128.537 102.247 128.604 102.581 128.697C102.901 128.791 103.101 128.884 103.101 128.884Z" fill="black"/>
</g>
<g opacity="0.2">
<path d="M99.6979 122.887L96.6416 122.019L97.2555 120.843L99.6979 122.887Z" fill="black"/>
</g>
<g opacity="0.2">
<path d="M96.121 124.597L94.4661 123.354L95.5605 122.606L96.121 124.597Z" fill="black"/>
</g>
<g opacity="0.2">
<path d="M83.7222 119.12C83.7222 119.12 83.6688 118.879 83.6021 118.519C83.5621 118.345 83.5087 118.131 83.5487 117.891C83.5621 117.65 83.5621 117.37 83.6021 117.103C83.6822 116.849 83.7489 116.595 83.8157 116.355C83.869 116.101 84.0159 115.914 84.1093 115.727C84.3095 115.366 84.4563 115.126 84.4563 115.126L85.4172 116.061C85.4172 116.061 85.2571 116.195 85.0168 116.408C84.8967 116.515 84.7232 116.622 84.6298 116.809C84.5097 116.983 84.3762 117.156 84.2427 117.343C84.136 117.53 84.0692 117.744 83.9758 117.931C83.869 118.118 83.8423 118.345 83.8157 118.519C83.7623 118.879 83.7356 119.12 83.7356 119.12H83.7222Z" fill="black"/>
</g>
<g opacity="0.2">
<path d="M82.0806 118.398L83.0816 120.549L81.7603 120.749L82.0806 118.398Z" fill="black"/>
</g>
<g opacity="0.2">
<path d="M80.5324 123.608L77.7964 121.337L78.8241 120.482L80.5324 123.608Z" fill="black"/>
</g>
<g opacity="0.2">
<path d="M94.9199 117.878C94.9199 117.878 94.7731 118.011 94.5596 118.198C94.4528 118.305 94.306 118.399 94.2126 118.546C94.1191 118.679 94.0124 118.826 93.9056 118.96C93.8122 119.107 93.7588 119.28 93.6921 119.414C93.612 119.547 93.5853 119.694 93.5719 119.815C93.5319 120.042 93.5052 120.189 93.5052 120.189L92.2373 119.775C92.2373 119.775 92.3708 119.588 92.571 119.294C92.6644 119.147 92.7845 119 92.958 118.88C93.1182 118.746 93.265 118.599 93.4385 118.479C93.6253 118.372 93.8122 118.279 93.9857 118.172C94.1458 118.065 94.3193 118.038 94.4528 117.998C94.7331 117.918 94.9199 117.851 94.9199 117.851V117.878Z" fill="black"/>
</g>
<g opacity="0.2">
<path d="M102.995 122.526L101.94 121.578L103.195 121.124L102.995 122.526Z" fill="black"/>
</g>
<g opacity="0.2">
<path d="M83.4019 129.298L80.1587 129.792L80.2254 128.457L83.4019 129.298Z" fill="black"/>
</g>
<g opacity="0.2">
<path d="M88.1533 124.863L86.1379 125.438L86.2047 124.102L88.1533 124.863Z" fill="black"/>
</g>
<g opacity="0.2">
<path d="M89.7014 129.098C89.7014 129.098 89.9683 129.071 90.3687 129.044C90.5689 129.044 90.7958 128.991 91.0494 129.044C91.3163 129.071 91.5966 129.111 91.8769 129.151C92.1572 129.218 92.4107 129.325 92.6777 129.405C92.9446 129.472 93.1715 129.592 93.3583 129.725C93.7454 129.966 94.0123 130.126 94.0123 130.126L93.038 131.048C93.038 131.048 92.8912 130.874 92.6777 130.62C92.5709 130.473 92.4374 130.327 92.2372 130.206C92.0504 130.073 91.8635 129.912 91.65 129.779C91.4231 129.672 91.1962 129.565 90.996 129.472C90.7825 129.351 90.5422 129.325 90.3554 129.271C89.9683 129.178 89.7014 129.111 89.7014 129.111V129.098Z" fill="black"/>
</g>
<g opacity="0.2">
<path d="M90.3554 130.848C90.3554 130.848 90.1553 130.821 89.8483 130.781C89.6881 130.754 89.5146 130.754 89.3278 130.687C89.1276 130.634 88.914 130.567 88.7005 130.5C88.4869 130.42 88.3001 130.313 88.1132 130.22C87.913 130.14 87.7529 130.02 87.6061 129.913C87.3258 129.699 87.1256 129.552 87.1256 129.552L88.18 128.737C88.18 128.737 88.2734 128.884 88.3935 129.125C88.4603 129.245 88.5403 129.378 88.6605 129.512C88.7806 129.646 88.9007 129.793 89.0342 129.926C89.181 130.046 89.3278 130.167 89.4612 130.287C89.5947 130.42 89.7682 130.487 89.9017 130.581C90.1686 130.741 90.3421 130.834 90.3421 130.834L90.3554 130.848Z" fill="black"/>
</g>
<g opacity="0.2">
<path d="M72.7914 122.272L71.4167 122.86L71.4968 121.524L72.7914 122.272Z" fill="black"/>
</g>
<g opacity="0.2">
<path d="M68.6941 119.748L66.5453 120.589L66.4252 119.253L68.6941 119.748Z" fill="black"/>
</g>
<g opacity="0.2">
<path d="M64.7168 122.232C64.7168 122.232 64.4899 122.313 64.1429 122.433C63.7826 122.526 63.3688 122.767 62.9818 122.967C62.6081 123.234 62.2077 123.448 61.9808 123.702C61.7406 123.929 61.5804 124.076 61.5804 124.076L60.793 122.994C60.793 122.994 61.0332 122.887 61.4069 122.74C61.7539 122.566 62.2744 122.473 62.7549 122.339C63.2754 122.272 63.7559 122.192 64.1162 122.232C64.4766 122.232 64.7168 122.232 64.7168 122.232Z" fill="black"/>
</g>
<g opacity="0.2">
<path d="M62.6082 125.932L65.9848 124.383L66.3185 125.678L62.6082 125.932Z" fill="black"/>
</g>
<g opacity="0.2">
<path d="M73.3788 127.028L68.9077 126.573L69.2414 125.278L73.3788 127.028Z" fill="black"/>
</g>
<g opacity="0.2">
<path d="M69.6952 128.016L68.4272 128.59L68.5207 127.254L69.6952 128.016Z" fill="black"/>
</g>
<g opacity="0.2">
<path d="M55.2142 129.472L56.2953 128.323L56.8025 129.565L55.2142 129.472Z" fill="black"/>
</g>
<g opacity="0.2">
<path d="M53.3324 129.365L55.5746 126.854L56.3754 127.923L53.3324 129.365Z" fill="black"/>
</g>
<g opacity="0.2">
<path d="M48.3942 129.859L46.3922 131.716L45.7516 130.541L48.3942 129.859Z" fill="black"/>
</g>
<g opacity="0.2">
<path d="M44.3769 130.554L41.4807 132.17L41.0803 130.901L44.3769 130.554Z" fill="black"/>
</g>
<g opacity="0.2">
<path d="M59.5118 131.689L54.6937 132.624L54.6136 131.289L59.5118 131.689Z" fill="black"/>
</g>
<g opacity="0.2">
<path d="M75.4875 131.903L72.6313 131.275L73.2186 130.073L75.4875 131.903Z" fill="black"/>
</g>
<g opacity="0.2">
<path d="M111.643 121.684L109.748 120.83L110.655 119.854L111.643 121.684Z" fill="black"/>
</g>
<g opacity="0.2">
<path d="M114.259 122.78L110.415 122.994L110.575 121.671L114.259 122.78Z" fill="black"/>
</g>
<g opacity="0.2">
<path d="M96.5615 117.21L92.4775 117.945L92.4641 116.609L96.5615 117.21Z" fill="black"/>
</g>
<path d="M125.977 53.1084C125.056 53.2419 124.589 53.4824 123.668 53.3354C123.054 53.2286 122.44 53.0683 121.813 53.0282C120.145 52.908 118.543 53.6694 117.048 54.4174C115.914 54.9784 114.793 55.526 113.658 56.087C113.538 56.1405 113.418 56.2072 113.351 56.3275C113.191 56.6614 113.391 57.0488 113.765 57.0888C114.953 57.2224 116.715 57.2892 117.889 57.0888C118.49 56.9953 118.823 56.6347 119.411 56.6881C119.878 56.7282 120.318 56.8885 120.772 57.0087C122.667 57.5163 124.722 57.3693 126.524 56.6213C126.404 55.5394 126.524 54.1102 125.977 53.1084Z" fill="#918673"/>
<path d="M173.824 62.8195C173.904 62.4321 174.145 62.0982 174.305 61.7376C174.452 61.4036 174.518 61.0296 174.692 60.7091C176.16 58.0242 180.311 58.1979 180.804 60.5621C181.058 61.7643 181.312 62.9664 181.565 64.1552C181.699 64.7563 181.819 65.3841 181.685 65.9985C181.565 66.5462 181.231 67.027 180.911 67.4812C180.284 68.3761 180.231 68.2826 179.603 69.1642C179.483 69.3378 179.35 69.5248 179.176 69.6317C178.949 69.7786 178.682 69.8454 178.415 69.8321C178.389 69.8721 178.362 69.9122 178.349 69.9523C178.295 70.0591 178.242 70.166 178.148 70.2461C178.042 70.3396 177.868 70.3664 177.735 70.3263C177.588 70.2862 177.468 70.2061 177.361 70.1126L177.334 70.0859C177.268 70.1794 177.214 70.2862 177.161 70.3931C177.121 70.4866 177.081 70.5667 177.014 70.6335C176.907 70.7404 176.747 70.7537 176.6 70.7404C176.467 70.7404 176.32 70.7003 176.2 70.6469C176.093 70.6068 175.986 70.5266 175.933 70.4198C175.826 70.6335 175.759 70.8205 175.332 70.8205C174.799 70.8205 174.451 70.2461 174.705 69.7786C175.119 68.9772 175.533 68.1891 175.946 67.3877C176.173 66.9469 176.413 66.4927 176.48 65.9985C176.52 65.6913 176.494 65.3707 176.48 65.0635C176.427 64.3155 176.227 63.661 176.173 62.913C175.653 63.2202 175.573 63.7679 175.479 64.3556C175.372 64.9433 175.346 65.5711 175.039 66.092C174.865 66.3992 174.545 66.653 174.211 66.7465C173.878 66.84 173.571 66.5328 173.637 66.1989C173.811 65.3841 173.878 64.5426 173.838 63.7144C173.824 63.4072 173.798 63.1 173.864 62.8061L173.824 62.8195Z" fill="#918673"/>
<path d="M125.977 53.1085L128.072 51.5591L130.235 55.4861L126.524 56.6081L125.977 53.1085Z" fill="#918673"/>
<path d="M180.457 60.0543L180.938 55.9136H175.199L175.225 60.4417L180.457 60.0543Z" fill="#918673"/>
<path opacity="0.2" d="M155.406 88.6924L159.236 97.6284H176.547L175.199 88.6924H155.406Z" fill="#1D1D1B"/>
<path opacity="0.2" d="M9.00891 97.6284H20.3534L22.8625 88.6924H9.88978L9.00891 97.6284Z" fill="#1D1D1B"/>
<path d="M92.4641 53.8031L99.4977 50.918L99.8981 52.1869L92.4641 53.8031Z" fill="#CFAD86"/>
<path d="M92.8779 48.7808L99.3109 43.291L100.085 44.373L92.8779 48.7808Z" fill="#CFAD86"/>
<path d="M99.698 47.6721L104.409 44.8003L104.957 46.0158L99.698 47.6721Z" fill="#CFAD86"/>
<path d="M89.7014 53.0017L94.7063 49.6758L95.3203 50.8646L89.7014 53.0017Z" fill="#CFAD86"/>
<path d="M102.194 54.6046L110.749 51.519L111.096 52.8013L102.194 54.6046Z" fill="#CFAD86"/>
<path d="M104.676 51.1316L113.031 46.7905L113.552 48.0194L104.676 51.1316Z" fill="#CFAD86"/>
<path d="M90.3555 46.6839L97.3891 40.3525L98.2165 41.3944L90.3555 46.6839Z" fill="#CFAD86"/>
<path d="M102.194 42.3158L106.158 38.4556L106.959 39.5108L102.194 42.3158Z" fill="#CFAD86"/>
<path d="M107.839 45.9494L111.309 43.1978L111.977 44.3598L107.839 45.9494Z" fill="#CFAD86"/>
<path d="M114.259 51.4524L121.613 49.1416L121.907 50.4506L114.259 51.4524Z" fill="#CFAD86"/>
<path d="M117.355 46.6837L122.787 43.1841L123.388 44.3729L117.355 46.6837Z" fill="#CFAD86"/>
<path d="M108.306 41.2074L114.339 36.5991L115.06 37.7211L108.306 41.2074Z" fill="#CFAD86"/>
<path d="M115.46 42.3693L118.129 38.5225L119.104 39.4308L115.46 42.3693Z" fill="#CFAD86"/>
<path d="M90.3555 43.7854L95.7875 36.7061L96.7885 37.601L90.3555 43.7854Z" fill="#CFAD86"/>
</g>
<defs>
<clipPath id="clip0_156_1188">
<rect width="190" height="134" fill="white"/>
</clipPath>
</defs>
</svg>
