<svg width="152" height="135" viewBox="0 0 152 135" fill="none" xmlns="http://www.w3.org/2000/svg">
<path opacity="0.2" d="M29.7307 81.4424L26.4377 91.9523H11.559L12.7149 81.4424H29.7307Z" fill="#1D1D1B"/>
<path opacity="0.2" d="M140.159 91.9523H125.293L122 81.4424H139.016L140.159 91.9523Z" fill="#1D1D1B"/>
<path d="M60.8591 45.0285L61.8537 49.8461C69.8509 50.0614 76.2352 52.0261 84.9313 49.4693L87.942 36.6045C90.1866 27.2923 85.5361 22.6093 81.1679 25.5698C79.1384 28.2208 78.0631 35.0973 77.5524 42.3775L60.8726 45.0285H60.8591Z" fill="#E3DDC2"/>
<path d="M55.1334 45.6338L53.8566 49.5632C53.8566 49.5632 54.9318 50.9358 54.8512 50.8147C54.7571 50.6936 60.3484 47.8273 60.3484 47.8273L59.3 45.6472H55.1334V45.6338Z" fill="#D9AB7A"/>
<path d="M72.4046 45.6873L65.9935 52.51L64.7838 51.6487L70.1332 44.0859L72.4046 45.6873Z" fill="#CFAD86"/>
<path d="M94.6353 63.787L94.6891 65.2941L95.3611 81.8462L95.5627 86.7714L95.7912 92.3157L95.8987 94.8859C96.3288 96.6488 98.3181 97.7254 100.536 98.156C102.471 98.5193 104.581 98.3982 105.939 97.7523C106.127 97.6715 106.302 97.5773 106.45 97.4562C107.001 97.0929 107.337 96.595 107.39 95.976C107.538 95.6261 107.7 95.1685 107.847 94.6034C108.788 90.795 109.057 74.7544 107.565 66.5053C108.21 63.7062 107.928 61.9972 107.175 59.3865C107.054 58.9425 106.907 58.4715 106.759 57.9601C106.692 57.8794 104.286 58.781 101.624 59.9114C98.2777 61.3378 94.5547 63.1276 94.6353 63.787Z" fill="#C29B5D"/>
<path d="M104.729 121.557L105.401 124.222L106.208 127.357L106.665 129.12L108.627 128.851L110.925 128.515L112.095 128.353L114.501 128.017L113.936 126.025L112.847 122.324L111.96 119.216L111.45 119.377L110.2 119.781L106.423 121.019L104.729 121.557Z" fill="#C29B5D"/>
<path d="M97.8611 134.893L104.474 135.001L108.331 134.315L111.544 133.75L112.444 133.588L116.409 132.902L116.181 131.57C115.441 127.169 114.312 126.079 113.936 126.012C113.345 125.931 112.659 125.837 111.933 125.797C111.503 125.77 111.073 125.77 110.63 125.797C109.756 125.837 108.869 125.971 108.009 126.321C107.39 126.55 106.772 126.9 106.235 127.344C105.925 127.586 105.63 127.896 105.347 128.246C104.77 128.945 104.084 129.43 103.345 129.807C101.53 130.708 100.159 129.739 98.681 131.045C97.2562 132.31 97.888 134.893 97.888 134.893H97.8611Z" fill="#896229"/>
<path d="M95.8316 94.6837L95.8854 94.8856L102.821 122.432C103.076 123.549 104.084 124.087 105.401 124.208C105.993 124.276 106.651 124.249 107.337 124.168C108.318 124.047 109.366 123.791 110.334 123.455C110.818 123.293 111.288 123.105 111.718 122.903C112.122 122.715 112.498 122.513 112.834 122.311C113.842 121.732 114.501 121.086 114.528 120.534C113.278 109.796 110.643 100.013 107.834 94.5895C107.767 94.4819 107.727 94.3742 107.659 94.28C107.337 92.0596 106.356 88.6012 104.877 86.1924C104.823 86.0847 104.743 85.9771 104.676 85.8694C103.654 84.295 102.377 83.2588 100.952 83.4606L100.818 83.4875C100.643 83.5145 100.455 83.5548 100.267 83.6221C97.6192 84.4833 96.0063 88.7627 95.7644 92.3018C95.6972 93.1631 95.7107 93.957 95.8047 94.6702L95.8316 94.6837Z" fill="#C29B5D"/>
<path d="M80.2405 91.9797C80.1061 94.5231 83.6275 96.4609 86.7995 96.9453C87.0415 96.9857 87.2834 97.0126 87.4984 97.0261C88.0629 97.0799 88.6006 97.0664 89.0979 97.0126C90.3075 96.8915 91.2752 96.4205 91.6113 95.5727C92.6328 94.3885 94.0709 91.0108 95.5359 86.7719C96.9606 82.7752 98.4122 77.998 99.6488 73.6648C99.6622 73.5706 99.6891 73.4764 99.716 73.3822C99.7966 73.0862 99.8907 72.7767 99.9713 72.4941C100.106 71.9827 100.254 71.4982 100.388 71.0138C101.127 68.2551 101.759 65.8329 102.162 64.0296C102.377 63.1146 102.538 62.3879 102.619 61.8362C102.633 61.7823 102.646 61.7151 102.646 61.6612C102.646 61.5939 101.665 61.0422 100.186 60.5308C98.3988 59.9118 95.8854 59.387 93.5736 59.9522C92.8344 60.1271 92.0951 60.4501 91.4231 60.9076C90.6166 61.4459 89.8102 61.5805 89.1516 61.6343C88.3721 61.6881 87.821 61.6074 87.7672 61.9304L87.4447 63.0877L87.0146 64.6487C86.8667 65.0793 86.7323 65.5099 86.5845 65.9405C85.5361 69.1567 84.5281 72.3191 83.641 75.4142C82.2431 80.2318 81.1141 84.8206 80.5496 88.9519C80.4018 89.9477 80.3077 90.8897 80.2271 91.8317C80.2271 91.8451 80.2271 91.8721 80.2271 91.899C80.2271 91.9259 80.2271 91.9528 80.2271 91.9797H80.2405Z" fill="#C29B5D"/>
<path d="M90.4419 129.658L87.5521 129.564L87.4446 129.551L86.3962 129.51L82.5254 129.403L82.3775 127.572L82.2162 125.433L81.934 121.597L89.2053 120.575L89.4069 120.561L89.4607 120.548V120.561V120.615V120.642L89.9715 125.365L90.2134 127.613L90.4419 129.658Z" fill="#C29B5D"/>
<path d="M91.4634 133.467V134.799H72.6331C72.6331 134.799 71.7325 131.946 73.3589 130.964C75.7379 129.524 78.9636 130.358 81.3426 128.299C81.6786 128.003 82.0146 127.761 82.3641 127.572C83.4259 126.953 84.5415 126.738 85.6301 126.725C86.2753 126.725 86.8936 126.792 87.4984 126.886C87.6059 126.9 87.7134 126.926 87.8075 126.94C88.6946 127.115 89.5145 127.384 90.2 127.599C90.5763 127.72 91.4903 128.985 91.4499 133.453L91.4634 133.467Z" fill="#896229"/>
<path d="M92.0816 124.007C91.9203 124.559 91.1139 125.016 89.9715 125.366C89.3801 125.541 88.6946 125.689 87.9554 125.783C87.4043 125.864 86.8532 125.904 86.2887 125.931C84.8237 125.985 83.3452 125.837 82.2297 125.42C81.0469 124.989 80.2404 124.249 80.2404 123.132L80.0254 93.1907C80.0657 92.7466 80.1464 92.3025 80.2539 91.8181C81.141 88.0232 84.2323 83.1518 87.4581 83.4613H87.5925C89.4607 83.6497 90.5628 85.8163 91.1542 88.4C91.1811 88.5077 91.1946 88.6153 91.2214 88.723C91.2618 88.9114 91.2886 89.0998 91.3289 89.2882C91.7187 91.5086 91.7725 93.9039 91.6246 95.5591C92.2832 97.9948 92.6865 101.399 92.8477 105.342C93.0762 110.94 92.8209 117.575 92.0682 123.994L92.0816 124.007Z" fill="#C29B5D"/>
<path d="M82.028 33.1587V33.1856C82.1759 34.0603 82.3372 34.9889 82.4984 35.9712C82.4984 35.9847 82.4984 35.9981 82.5119 36.0116C82.5253 36.0923 82.5388 36.1731 82.5522 36.2538C82.5656 36.2807 82.5656 36.3076 82.5656 36.3211C82.6866 37.0343 82.821 37.761 82.9554 38.5146C83.3318 40.6677 83.7484 42.9554 84.1516 45.2565C84.1516 45.2834 84.1516 45.3103 84.1651 45.3238C84.2188 45.6602 84.286 45.9966 84.3398 46.3331C84.4473 46.831 84.5414 47.3423 84.6221 47.8537C84.7296 48.392 84.8371 48.9303 84.9312 49.4685C84.9312 49.5224 84.9312 49.5358 84.9446 49.5762C84.9581 49.6435 84.9715 49.6973 84.985 49.7511C85.1059 50.3701 85.2135 50.9622 85.321 51.5678C85.3479 51.6889 85.3747 51.81 85.3882 51.9312C85.4688 52.3752 85.5495 52.8059 85.6301 53.2365C86.3559 57.1524 87.0279 60.6782 87.4849 63.0735C87.7268 64.3519 87.915 65.3073 88.0225 65.8591C88.0897 66.209 88.1301 66.3839 88.1301 66.3839L91.3424 65.8456L94.7025 65.267L102.229 63.9886L103.063 63.854L105.011 63.5176L107.108 63.1677C107.108 63.1677 107.149 61.7413 107.189 59.5074V59.3594C107.243 57.0986 107.31 54.0843 107.404 50.9219C107.471 47.6922 107.565 44.328 107.632 41.502C107.686 39.5777 107.175 37.8956 107.216 36.671C107.216 36.5768 107.243 36.4018 107.256 36.1462C107.31 35.4599 107.417 34.2891 107.458 33.2664C107.458 33.1453 107.471 33.0376 107.485 32.9434C107.579 32.0283 107.901 31.3824 107.928 30.9249C107.968 29.5119 107.995 28.3277 108.009 27.5068C108.009 27.2108 108.022 26.9551 108.036 26.7532C108.036 26.6994 108.036 26.6456 108.036 26.6052C108.076 25.4883 107.861 24.5597 107.444 23.8062C107.39 23.6985 107.337 23.6043 107.283 23.5236L107.256 23.4966L107.229 23.4697C107.175 23.389 107.095 23.2948 107.014 23.1737C106.745 22.8507 106.423 22.5547 106.087 22.299C105.684 22.0029 105.253 21.7607 104.783 21.5319C104.77 21.5319 104.743 21.5319 104.729 21.5185C103.399 20.9129 101.84 20.563 100.28 20.2804C100.106 20.2266 99.9175 20.1997 99.7293 20.1593C99.0304 20.0382 98.0224 19.7287 97.0143 19.4596C96.517 19.325 96.0332 19.2039 95.5762 19.1097C95.5359 19.1097 95.509 19.0962 95.4686 19.0962C94.8638 18.9751 94.3128 18.9213 93.8961 18.9482L86.6247 22.1106H86.6113L85.536 22.5681C85.4688 22.6085 85.4016 22.6354 85.3344 22.6758C84.7699 22.9315 84.2323 23.1871 83.7081 23.4563C83.6006 23.5101 83.5065 23.5505 83.4124 23.6043C83.2511 23.685 83.1167 23.7658 82.9689 23.8465C82.6463 24.0215 82.3372 24.2368 82.0549 24.479C81.8264 24.6809 81.6114 24.9096 81.4232 25.1518C81.3694 25.2191 81.3022 25.2999 81.2619 25.3672C81.2619 25.3672 81.2485 25.3672 81.2485 25.3806C81.2081 25.421 81.1813 25.4883 81.1544 25.5286C81.1275 25.5825 81.0737 25.6228 81.0469 25.6901C81.0334 25.7036 81.02 25.744 81.02 25.7843C80.9528 26.3764 81.356 29.2024 82.0146 33.1184L82.028 33.1587Z" fill="#C29B5D"/>
<path d="M83.6409 26.323C83.8425 28.1935 84.4742 30.0102 85.1328 31.773C89.3263 31.0598 93.5601 30.6696 97.8073 30.6292C97.8073 27.8302 99.3799 22.2724 101.584 20.5634C101.396 20.523 95.2939 18.5045 93.8961 18.9755C93.8961 18.9755 85.0387 22.4205 83.7081 23.497C83.5468 24.4256 83.5334 25.3945 83.6409 26.323Z" fill="#F5EFD1"/>
<path d="M101.638 35.9179C101.745 37.0887 101.866 38.3132 102.579 39.2418C103.291 40.1838 104.487 40.6278 105.59 41.0315C105.643 41.0585 105.71 41.0719 105.764 41.0988C106.369 41.3141 107.014 41.5025 107.619 41.5295C107.659 39.5917 107.7 37.9364 107.74 36.7253C107.74 36.3754 107.794 34.9759 107.821 33.6033C107.848 32.5133 107.874 31.4502 107.888 30.9523C107.928 29.5393 107.955 28.3551 107.969 27.5342C107.969 27.2382 107.995 26.9825 107.995 26.7806C107.995 26.7268 107.995 26.673 107.995 26.6326C108.036 25.5157 107.821 24.5872 107.404 23.8336C107.35 23.7394 107.283 23.6452 107.229 23.551L107.216 23.5241L107.189 23.4972C107.135 23.4164 107.055 23.3222 106.974 23.2011C106.557 22.6628 105.791 21.8823 104.729 21.5594C104.716 21.5594 104.689 21.5594 104.676 21.5459C104.017 21.5459 102.31 25.1524 102.122 25.7983C101.141 29.0414 101.302 32.5268 101.598 35.9179H101.638Z" fill="#F5EFD1"/>
<path d="M95.5225 19.5806C94.6757 23.8196 88.4527 26.9281 87.0952 23.9676C87.0683 23.8868 86.8667 23.1602 86.6114 22.1509C86.6114 22.124 86.5979 22.1105 86.5979 22.0836C86.5576 21.9356 86.5173 21.7741 86.4769 21.6126C86.4501 21.5184 86.4232 21.4242 86.3963 21.3031C86.3022 20.9398 86.2081 20.563 86.1141 20.1727C85.4823 17.6563 84.7969 14.8034 84.7969 14.8034L88.6678 13.1482C88.6678 13.1482 88.6678 13.1482 88.6812 13.1482L89.4339 12.8252L89.5414 12.7714L90.3344 12.435L91.5037 11.9371L93.4526 11.1162L93.8962 12.8925L94.2591 14.3997L94.9042 17.0373L95.2806 18.531V18.6117L95.4284 19.1365L95.4822 19.3788V19.6075L95.5225 19.5806Z" fill="#FFC990"/>
<path d="M94.5145 12.7984C94.7564 14.0633 92.4043 13.4174 91.1543 13.8346C91.1543 13.8346 91.114 13.848 91.0871 13.8615C91.0737 13.8615 91.0602 13.8749 91.0468 13.8749C91.2618 14.5478 91.3559 15.2072 91.3425 15.8531C91.3021 17.6698 90.442 19.325 89.3936 20.415C88.8694 20.9533 88.3049 21.357 87.7673 21.5858L86.0603 22.1509C85.2807 22.3932 84.5684 22.1509 84.0173 21.6665C83.8829 21.5588 83.762 21.4512 83.6544 21.3166C83.2243 20.8456 82.9018 20.2535 82.727 19.7018C82.727 19.7018 82.0684 16.6471 81.8937 16.1222H81.0604C80.5228 16.1626 80.0658 15.7051 80.1196 15.1668L80.4018 13.0675L80.469 12.5965C80.469 12.5965 80.133 12.2332 79.8104 11.7622C79.676 11.1835 79.5685 10.6587 79.5147 10.1339C79.4072 9.12462 79.4475 8.19609 79.6088 7.37522C80.1599 4.56272 82.1222 2.75949 84.4743 1.95208C85.8587 1.54837 87.6463 0.929348 89.4205 1.18503C91.4366 1.48108 93.4392 2.92097 94.7967 7.133C95.1596 8.9766 94.2591 11.3988 94.5145 12.8118V12.7984Z" fill="#FFC990"/>
<path d="M94.8639 14.6957C93.3586 15.5031 92.4177 15.4493 91.8263 14.9783C91.7591 14.9245 91.7054 14.8707 91.6382 14.8034C91.4097 14.5477 91.2349 14.2113 91.1274 13.8345C90.6973 12.3811 91.0468 10.3761 91.0468 10.3761C91.0468 10.3761 90.3882 12.6637 90.1059 13.3366C89.5235 13.4981 88.9635 13.6371 88.4259 13.7537C86.1544 7.05219 86.5979 3.62067 79.5685 7.34824C79.7567 4.09167 82.4313 0.808173 84.9582 0.754345C86.5038 0.713974 88.0361 0.727431 89.4205 0.942742C91.7322 1.31954 93.6543 2.30189 94.5817 4.7376C95.4553 6.99836 96.0601 8.22294 94.8505 14.6823L94.8639 14.6957Z" fill="#C29B5D"/>
<path d="M79.434 8.97694L85.7377 8.2368L91.9338 7.51013L92.1354 7.48322L92.3908 7.4563L95.3612 7.10642L94.5816 4.09207C93.8962 1.77747 91.3559 -0.0526702 88.9366 0.00115756L85.0791 0.0818992C81.6786 0.149184 79.34 3.177 79.34 6.56814C79.34 6.66234 79.34 6.77 79.34 6.87765L79.3668 7.67161L79.4206 8.97694H79.434Z" fill="#C29B5D"/>
<path d="M73.0498 9.7572C73.9772 10.7261 75.1734 10.9145 76.7459 10.7126C77.7405 10.5915 78.883 10.2955 80.1867 9.94559C81.5711 9.5688 85.5361 8.30385 85.7377 8.23656C83.6813 7.75211 81.7324 7.46952 79.3803 7.67137C79.3803 7.67137 78.0094 8.07508 76.5443 8.53261C74.8508 9.05743 73.0363 9.64954 73.0498 9.7572Z" fill="#C29B5D"/>
<path opacity="0.1" d="M80.4555 12.5829L80.3883 13.0539C84.5818 11.7755 88.4124 9.35327 92.3908 7.44238L92.1354 7.4693L91.9741 7.53658C91.9741 7.53658 91.9473 7.50967 91.9338 7.49621L85.7377 8.22289C85.5361 8.29017 81.5845 9.55512 80.1867 9.93192C79.9448 9.9992 79.7163 10.053 79.4878 10.1069C79.5416 10.6317 79.6491 11.17 79.7835 11.7351C80.1061 12.2061 80.4421 12.5695 80.4421 12.5695L80.4555 12.5829Z" fill="#050504"/>
<path opacity="0.1" d="M90.6704 17.051C90.9258 16.6742 91.1543 16.2705 91.329 15.8398C91.2887 17.6565 90.4285 19.3117 89.3801 20.4017C88.856 20.94 88.2914 21.3437 87.7538 21.5725L86.0469 22.1377C85.2673 22.3799 84.555 22.1377 84.0039 21.6532C83.8695 21.5456 83.7485 21.4379 83.641 21.3034C84.2324 21.3034 84.8238 21.1957 85.3748 21.0073C86.4366 20.6709 87.4178 20.0922 88.3049 19.4059C89.192 18.7331 90.0387 17.966 90.6704 17.0375V17.051Z" fill="#050504"/>
<path d="M92.1354 10.6319C92.4849 11.8834 91.8532 13.6328 91.0333 13.8615C90.2134 14.0903 90.0118 13.0541 89.6489 11.8026C89.407 10.9818 88.8559 9.85138 89.6892 9.34002C90.415 8.88248 91.6247 8.78828 92.1489 10.6319H92.1354Z" fill="#FFC990"/>
<path opacity="0.15" d="M113.936 126.025L112.861 122.324C113.869 121.746 114.527 121.1 114.554 120.548C113.304 109.809 110.67 100.026 107.861 94.603C108.802 90.7947 109.071 74.754 107.579 66.5049C108.224 63.7059 107.942 61.9834 107.189 59.3862C107.216 57.9598 107.256 56.2104 107.31 54.3398H103.224C102.74 56.2507 102.216 58.1212 101.638 59.9245C102.189 61.1087 102.659 62.4275 103.063 63.8943C104.635 69.6942 105.012 77.58 104.917 86.2328C104.891 88.7223 104.823 91.2791 104.743 93.8763C105.374 95.0336 105.952 96.2178 106.477 97.4828C109.151 103.7 110.697 111.115 111.476 119.418C111.557 120.373 111.638 121.328 111.705 122.297L111.745 122.943L111.947 125.837L112.108 128.38L112.458 133.628L116.423 132.942L116.194 131.61C115.455 127.209 114.326 126.119 113.95 126.052L113.936 126.025Z" fill="#1D1D1B"/>
<path d="M134.285 52.4971H19.4082V63.0204H134.285V52.4971Z" fill="#CFAD86"/>
<path opacity="0.2" d="M134.285 53.8697C122.417 53.8966 110.442 54.2331 98.6676 53.6006C110.267 54.6099 122.39 54.4484 134.285 54.3407V53.8697Z" fill="black"/>
<path opacity="0.2" d="M55.9937 54.6502C60.9129 54.5829 65.6306 54.1523 70.5364 54.0177C76.7729 53.8428 83.0362 54.0446 89.192 54.3676C95.3075 54.6771 101.369 55.1077 107.512 55.3365C112.39 55.5249 117.189 55.5518 122.095 55.4307C117.471 55.6729 112.915 55.7671 108.237 55.6864C101.92 55.5652 95.6838 55.2019 89.4339 54.8789C83.3453 54.5694 77.1895 54.2868 71.0068 54.3541C65.9666 54.4079 61.0608 54.7444 55.9937 54.6636V54.6502Z" fill="black"/>
<path opacity="0.2" d="M23.9915 54.3406C27.9564 54.3406 31.908 54.4079 35.8461 54.5425C38.4267 54.6367 41.0073 54.7578 43.561 54.8923C47.5932 55.1211 51.5716 55.4441 55.5904 55.619C58.3591 55.7536 61.1413 55.8209 63.9773 55.7536C69.6358 55.6325 75.0658 55.2826 80.7512 55.5383C75.0927 55.4441 69.7299 55.8612 64.1386 56.09C57.2032 56.3726 50.4964 55.794 43.7357 55.3902C41.1283 55.2422 38.4804 55.1077 35.8461 54.9865C32.0424 54.8251 28.2387 54.7039 24.4081 54.6501C22.728 54.6232 21.0748 54.6097 19.4082 54.6097V54.3675C20.927 54.3406 22.4592 54.3271 23.9915 54.3271V54.3406Z" fill="black"/>
<path opacity="0.2" d="M35.8461 53.305C42.0288 53.2646 48.1174 53.305 54.2597 53.6145C48.1039 53.5876 42.0019 53.7087 35.8461 53.776C35.1741 53.776 34.5289 53.776 33.8569 53.7894C28.8973 53.8298 24.0452 53.6952 19.4082 53.2377V52.9551C24.1259 53.2511 28.9242 53.3319 33.83 53.2915C34.502 53.2915 35.1741 53.2915 35.8461 53.2915V53.305Z" fill="black"/>
<path opacity="0.2" d="M92.5521 57.8525C92.7268 57.7987 94.0171 57.4219 93.8962 57.3681C93.6811 57.2604 92.6193 57.1797 92.3102 57.1393C91.5037 57.0586 90.7242 57.0316 89.8774 57.0182C88.5065 57.0182 87.2834 57.1528 86.0603 57.3681C87.2968 57.1931 88.5199 57.0855 89.8774 57.0989C90.7107 57.1258 91.4903 57.1662 92.2833 57.2604C92.2833 57.2604 93.2913 57.4084 93.1838 57.4219C90.9661 58.2159 87.2162 58.4446 84.2324 57.9871C83.1571 57.8256 80.9394 57.3546 81.2889 56.8836C81.5846 56.453 84.2727 56.3453 85.3076 56.305C88.9635 56.1435 92.6731 56.4261 96.2214 56.6818C99.716 56.9374 103.291 57.1797 106.88 57.1124C110.576 57.0586 114.205 56.9105 117.861 56.7491C123.277 56.4934 128.788 56.305 134.299 56.2108V55.9147C129.554 55.9551 124.836 56.0628 120.105 56.2108C119.541 56.2242 119.003 56.2511 118.439 56.2646C115.361 56.3723 112.296 56.5337 109.232 56.5876C105.522 56.6549 102.041 56.5876 98.3853 56.3453C95.0252 56.13 91.6516 55.8474 88.2108 55.834C86.1544 55.834 80.2405 55.9147 80.2271 56.924C80.2271 57.8391 84.0576 58.3773 86.3829 58.4446C87.9016 58.485 89.4742 58.4043 90.8586 58.1889C91.4769 58.0947 92.0548 57.9736 92.579 57.8256L92.5521 57.8525Z" fill="black"/>
<path opacity="0.2" d="M41.5852 56.9383C44.3674 56.8845 46.9346 57.046 49.663 57.194C52.9829 57.3689 56.3161 57.4497 59.6763 57.4631C65.1198 57.4631 70.5498 57.3286 75.9798 57.2344C70.6573 57.6515 65.1197 57.9476 59.636 57.9476C56.2758 57.9476 52.9425 57.8265 49.6765 57.5573C46.948 57.342 44.3809 57.0594 41.5718 56.9518L41.5852 56.9383Z" fill="black"/>
<path opacity="0.2" d="M35.8461 57.3681C37.2305 57.395 38.6149 57.4757 39.9589 57.6237C42.2438 57.8525 44.475 58.1216 46.7464 58.3773C44.3943 58.2562 42.0825 58.0678 39.7573 57.9063C38.4536 57.8121 37.1498 57.7718 35.8327 57.7718C33.4268 57.7718 31.0075 57.9467 28.6822 58.1755C25.5909 58.4715 22.4861 58.8214 19.3948 58.9963V58.6196C22.5264 58.3504 25.5237 57.9467 28.6688 57.6641C31.0075 57.4488 33.4268 57.3277 35.8327 57.3681H35.8461Z" fill="black"/>
<path opacity="0.2" d="M32.8891 56.2516C28.4672 56.4535 23.9243 56.5208 19.4082 56.44V55.969C23.9108 55.9287 28.4672 56.0229 32.8891 56.2516Z" fill="black"/>
<path opacity="0.2" d="M133.922 57.6241C134.043 57.6241 134.164 57.6241 134.285 57.6241V57.1396C134.137 57.1396 134.003 57.1396 133.855 57.1396C128.264 57.2204 122.914 57.7452 117.417 58.0682C112.942 58.3239 108.614 58.3777 104.151 58.0682C105.737 58.2297 107.337 58.3508 108.923 58.4181C111.759 58.5392 114.635 58.5257 117.565 58.4046C123.022 58.1893 128.385 57.7048 133.909 57.6376L133.922 57.6241Z" fill="black"/>
<path opacity="0.2" d="M134.285 62.2134V61.7693C131.624 61.7693 128.963 61.7693 126.302 61.7693C120.549 61.7828 114.769 61.85 109.017 61.8769C104.286 61.9039 99.7966 61.7558 95.3612 61.2041C99.5412 61.9039 103.923 62.1461 108.587 62.2134C114.339 62.2941 120.105 62.2672 125.845 62.2537C128.654 62.2537 131.463 62.2268 134.272 62.2134H134.285Z" fill="black"/>
<path opacity="0.2" d="M53.7087 59.5352C59.0312 59.1718 64.3134 59.1853 69.7031 59.3602C76.1949 59.5755 82.7136 59.9793 89.2726 59.8716C92.4715 59.8178 95.6435 59.6159 98.8155 59.4544C102.095 59.2929 105.307 59.2257 108.614 59.3333C113.587 59.4948 118.13 60.0196 122.565 60.7463C118.049 60.1542 113.479 59.737 108.6 59.6563C101.893 59.5486 95.5494 60.2753 88.9097 60.356C82.5389 60.4368 76.2621 60.0331 69.9988 59.7236C64.5419 59.4544 59.206 59.3199 53.7087 59.5352Z" fill="black"/>
<path opacity="0.2" d="M70.7514 63.0203H63.3322C66.074 62.9126 68.789 62.7512 71.5309 62.5897C73.1304 62.4955 74.7432 62.4013 76.3561 62.3071C80.5227 62.0649 84.7027 61.8361 88.8828 61.6073L90.2 61.54C85.9796 61.863 81.7861 62.186 77.5658 62.5089C75.3077 62.6704 73.0363 62.8588 70.7648 63.0203H70.7514Z" fill="black"/>
<path opacity="0.2" d="M27.5801 61.8897C30.3489 61.9301 33.1042 62.0377 35.8461 62.1723C40.3487 62.3876 44.8244 62.6971 49.3539 62.899C50.3216 62.9394 51.3028 62.9797 52.284 63.0201H42.8352C40.4965 62.8721 38.1848 62.724 35.8461 62.5895C30.3758 62.2665 24.9054 62.0243 19.4082 62.1858V61.9839C22.1098 61.8628 24.8382 61.8359 27.5801 61.8897Z" fill="black"/>
<path opacity="0.2" d="M35.8461 59.8311C37.1633 59.8311 38.467 59.8311 39.7976 59.8311C44.3674 59.8714 48.8028 60.1002 53.2517 60.3693C55.4963 60.5039 57.7274 60.6519 59.9854 60.8134C65.2676 61.1633 70.4422 61.3786 75.8454 61.3651C70.4019 61.5401 65.187 61.419 59.7973 61.1498C52.7813 60.8 45.8997 60.3559 38.7896 60.3155C37.8218 60.3155 36.8407 60.3155 35.8595 60.3155C30.3623 60.3155 24.892 60.4635 19.4216 60.6519V60.3559C24.8651 60.0733 30.3354 59.8714 35.8595 59.8311H35.8461Z" fill="black"/>
<path opacity="0.2" d="M39.0046 61.6344C44.2868 61.4998 49.8109 61.7286 54.8377 62.2669C49.5555 62.4015 44.0314 62.1727 39.0046 61.6344Z" fill="black"/>
<path d="M79.3266 47.1945C78.3723 47.1676 77.6465 47.2618 76.9476 47.3695C76.5175 46.912 76.1411 45.9834 75.6573 45.5528C74.3938 44.4359 73.2917 44.7185 71.6385 44.3955C71.5848 44.3955 66.1547 46.1314 66.1547 46.1314C65.8322 46.3064 65.7515 46.737 66.0203 46.9927C66.894 47.827 69.9047 47.06 70.8321 47.1945C71.4369 47.2887 71.6923 47.2618 72.1358 47.679C72.4853 48.002 72.7407 48.3922 73.0229 48.769C74.2326 50.33 78.2379 51.0971 81.0066 50.6395C80.8722 49.3746 79.1518 48.3249 79.3131 47.1945H79.3266Z" fill="#FFC990"/>
<path d="M58.628 44.1133L54.4345 45.0822L53.198 48.0158L53.3727 49.9671C53.4937 50.6668 54.2329 50.4111 54.327 49.8459C54.3539 49.671 54.663 48.0562 54.663 48.0562L55.7517 46.5221L58.3054 46.3875L58.6146 44.1267L58.628 44.1133Z" fill="#F5C18A"/>
<path d="M58.628 44.1133L56.3028 45.0822C55.9264 46.401 55.8055 46.8854 54.9453 48.0831C54.6765 48.5675 55.2141 49.1596 55.7517 48.7963C56.6254 48.1638 57.3512 47.7467 57.7275 46.872C58.8162 47.5852 59.542 47.7332 61.4371 47.2218L60.8592 45.0418L58.628 44.1267V44.1133Z" fill="#FFC990"/>
<path d="M78.6814 47.1948L80.2136 51.1377C88.2108 51.353 97.7805 49.7382 106.463 47.1948L108.627 35.272C110.872 25.9598 109.124 22.0842 104.178 21.5459C101.423 21.5459 98.7482 33.7513 98.2375 41.045L78.6814 47.1948Z" fill="#F5EFD1"/>
<path d="M61.437 52.4969H61.5177H67.8885L63.8698 49.5498L61.437 52.4969Z" fill="#3C3C3B"/>
<path d="M152 62.8721H0V74.3105H152V62.8721Z" fill="#375D68"/>
<path d="M137.444 96.1104H14.5562V104.817H137.444V96.1104Z" fill="#878787"/>
<path d="M144.876 134.799H138.707L125.293 91.9523L122 81.4424H139.016L140.159 91.9523L144.876 134.799Z" fill="#575756"/>
<path d="M145.145 72.7227H6.84131V84.5109H145.145V72.7227Z" fill="#878787"/>
<path d="M29.3947 84.5107L26.4377 91.9524L13.024 134.799H6.84131L11.559 91.9524L12.3923 84.5107H29.3947Z" fill="#575756"/>
</svg>
