<svg width="45" height="45" viewBox="0 0 45 45" fill="none" xmlns="http://www.w3.org/2000/svg">
<g clip-path="url(#clip0_156_25701)">
<path d="M22.5 45C34.9264 45 45 34.9264 45 22.5C45 10.0736 34.9264 0 22.5 0C10.0736 0 0 10.0736 0 22.5C0 34.9264 10.0736 45 22.5 45Z" fill="#C29B5D"/>
<path d="M33.5043 26.1748V31.2364C33.456 31.4361 33.3536 31.6186 33.2083 31.7639C33.063 31.9092 32.8805 32.0116 32.6808 32.0599H14.2454C14.0462 32.0106 13.8641 31.9079 13.719 31.7627C13.5739 31.6176 13.4711 31.4356 13.4219 31.2364V12.7962C13.4711 12.5969 13.5739 12.4149 13.719 12.2698C13.8641 12.1247 14.0462 12.0219 14.2454 11.9727H19.3021C19.5698 12.0461 19.8013 12.215 19.953 12.4475C20.1047 12.6799 20.1661 12.9598 20.1256 13.2344C20.1016 14.135 20.1256 15.0356 20.1256 15.941C20.1256 16.0036 20.1256 16.071 20.1256 16.1336C20.6747 15.2523 21.2044 14.371 21.686 13.4897C21.749 13.3556 21.8406 13.237 21.9543 13.1421C22.0681 13.0472 22.2011 12.9783 22.3443 12.9402C22.4874 12.9021 22.6372 12.8958 22.783 12.9217C22.9288 12.9475 23.0673 13.005 23.1886 13.09L27.0702 15.3342C27.2059 15.3968 27.3261 15.4887 27.422 15.6033C27.5179 15.7179 27.5873 15.8523 27.625 15.9969C27.6628 16.1415 27.668 16.2927 27.6404 16.4396C27.6127 16.5865 27.5529 16.7254 27.4651 16.8464L26.0492 19.3073C26.0038 19.3815 25.9636 19.4588 25.9288 19.5385L26.1552 19.4181L28.6354 17.9733C28.7556 17.8902 28.8926 17.8342 29.0367 17.8093C29.1807 17.7845 29.3285 17.7913 29.4697 17.8294C29.6109 17.8674 29.742 17.9357 29.8541 18.0296C29.9662 18.1235 30.0565 18.2407 30.1187 18.373L32.3725 22.2739C32.4575 22.3948 32.5149 22.5329 32.5407 22.6784C32.5666 22.8239 32.5602 22.9733 32.5221 23.1161C32.484 23.2588 32.4151 23.3915 32.3202 23.5048C32.2253 23.6181 32.1067 23.7092 31.9728 23.7717L29.483 25.2164L29.3289 25.3176V25.3513H32.4014C32.6086 25.3377 32.8149 25.3881 32.9924 25.4958C33.1699 25.6035 33.3099 25.7633 33.3935 25.9533C33.4513 26.0303 33.4754 26.1026 33.5043 26.1748ZM23.4486 31.3856V26.0448H19.461V31.3856H23.4486ZM24.1421 31.3856H28.1345V26.0496H24.1421V31.3856ZM25.1053 19.6203L25.2209 19.4373L26.8824 16.5478C27.0702 16.2251 27.0365 16.0903 26.709 15.9025L22.8948 13.7016C22.5673 13.5089 22.4132 13.5475 22.2495 13.8701L20.5735 16.7597L20.482 16.9331L25.1053 19.6203ZM25.8662 20.3813L28.5439 25.0142L31.6502 23.2178C31.9295 23.0589 31.968 22.9048 31.8043 22.6207C31.0594 21.3364 30.3113 20.0441 29.56 18.7438C29.4011 18.4645 29.247 18.426 28.9629 18.5897L27.1858 19.6203L25.8662 20.3813ZM28.8328 31.4001H32.3725C32.7337 31.4001 32.8541 31.2941 32.8541 30.9185V26.4975C32.8541 26.1363 32.7482 26.0159 32.3725 26.0159H28.8377L28.8328 31.4001ZM19.4322 16.6489C19.4322 16.5911 19.4322 16.5478 19.4322 16.5044C19.4322 15.3534 19.4322 14.2024 19.4322 13.0562C19.4322 12.7577 19.3069 12.6421 19.0084 12.6421H14.5199C14.1876 12.6421 14.072 12.7528 14.072 13.09V16.6489H19.4322ZM18.7627 31.3905V26.0496H18.6905H14.4621C14.1876 26.0496 14.0768 26.1796 14.0768 26.4782V30.9715C14.0768 31.2893 14.1924 31.4049 14.5199 31.4049H18.7531L18.7627 31.3905ZM18.1367 20.9881L18.3293 21.1037C19.095 21.5515 19.8656 21.9898 20.6313 22.4425C20.677 22.475 20.7317 22.4925 20.7878 22.4925C20.8439 22.4925 20.8987 22.475 20.9444 22.4425L24.6045 20.3283L24.7923 20.2031L20.1401 17.5206L18.1367 20.9881ZM19.4514 17.3472H14.1009V21.3493H14.2887C15.1845 21.3493 16.0803 21.3493 16.976 21.3493C17.0332 21.354 17.0903 21.3408 17.1396 21.3115C17.1888 21.2821 17.2276 21.2381 17.2505 21.1855C17.9488 19.9671 18.652 18.7776 19.3551 17.535C19.384 17.4869 19.4129 17.4291 19.4514 17.3472ZM27.9756 25.3609L25.2883 20.7039L21.8112 22.7122C21.8497 22.7844 21.8835 22.8422 21.9172 22.8952C22.3554 23.6609 22.7985 24.4218 23.2319 25.1876C23.2585 25.2455 23.3025 25.2937 23.3577 25.3256C23.4129 25.3576 23.4766 25.3716 23.5401 25.3657C24.9368 25.3657 26.3334 25.3657 27.7348 25.3657L27.9756 25.3609ZM17.7996 21.5756L15.6276 25.332L15.6709 25.385C15.7886 25.3628 15.9033 25.3273 16.0128 25.2791C17.3276 24.5278 18.6375 23.7669 19.9475 23.0108L20.1064 22.9048L17.7996 21.5756ZM17.318 25.3176V25.3465H22.5673L21.2381 23.0445L17.318 25.3176ZM14.1154 25.3946C14.3042 25.3755 14.4939 25.3659 14.6836 25.3657C14.7378 25.3711 14.7923 25.3596 14.8396 25.3329C14.887 25.3062 14.925 25.2655 14.9485 25.2164C15.5264 24.2003 16.114 23.1889 16.6967 22.1776C16.7208 22.1294 16.74 22.0813 16.7689 22.0283H14.1154V25.3946Z" fill="white"/>
<path d="M16.7689 27.374C17.1223 27.3753 17.4609 27.5162 17.7108 27.7661C17.9607 28.0161 18.1017 28.3546 18.1029 28.708C18.1042 28.8853 18.0702 29.0609 18.0028 29.2249C17.9355 29.3888 17.8361 29.5376 17.7106 29.6627C17.585 29.7878 17.4358 29.8866 17.2717 29.9534C17.1075 30.0202 16.9317 30.0536 16.7545 30.0517C16.4014 30.0454 16.0648 29.9014 15.8165 29.6503C15.5681 29.3993 15.4278 29.0611 15.4253 28.708C15.4278 28.3534 15.5705 28.0141 15.8222 27.7642C16.0739 27.5143 16.4142 27.374 16.7689 27.374ZM16.7689 28.0483C16.6806 28.0489 16.5933 28.067 16.512 28.1015C16.4307 28.136 16.3571 28.1863 16.2953 28.2494C16.2335 28.3125 16.1848 28.3873 16.1521 28.4693C16.1193 28.5513 16.1031 28.639 16.1043 28.7273C16.1105 28.9015 16.1834 29.0667 16.3081 29.1886C16.4327 29.3106 16.5994 29.3799 16.7738 29.3823C16.9517 29.381 17.122 29.3094 17.2474 29.1831C17.3728 29.0568 17.4432 28.886 17.4432 28.708C17.4439 28.6191 17.4265 28.531 17.3921 28.449C17.3577 28.3671 17.307 28.293 17.243 28.2312C17.179 28.1695 17.1031 28.1214 17.02 28.09C16.9368 28.0585 16.8481 28.0443 16.7593 28.0483H16.7689Z" fill="white"/>
</g>
<defs>
<clipPath id="clip0_156_25701">
<rect width="45" height="45" fill="white"/>
</clipPath>
</defs>
</svg>
