<svg width="45" height="45" viewBox="0 0 45 45" fill="none" xmlns="http://www.w3.org/2000/svg">
<g clip-path="url(#clip0_156_25726)">
<path d="M22.5 45C34.9264 45 45 34.9264 45 22.5C45 10.0736 34.9264 0 22.5 0C10.0736 0 0 10.0736 0 22.5C0 34.9264 10.0736 45 22.5 45Z" fill="#C29B5D"/>
<path d="M32.8827 25.5197C32.8873 25.4813 32.8873 25.4425 32.8827 25.4041L30.518 18.2717C30.4887 18.1824 30.432 18.1045 30.3559 18.0492C30.2798 17.9939 30.1883 17.9639 30.0942 17.9635H28.505C28.4071 17.9743 28.3167 18.0208 28.2511 18.0941C28.1854 18.1674 28.1491 18.2624 28.1491 18.3608C28.1491 18.4593 28.1854 18.5542 28.2511 18.6275C28.3167 18.7009 28.4071 18.7474 28.505 18.7581H29.839L31.9628 25.197H13.0459L15.1649 18.7581H16.4026C16.5004 18.7474 16.5908 18.7009 16.6565 18.6275C16.7222 18.5542 16.7585 18.4593 16.7585 18.3608C16.7585 18.2624 16.7222 18.1674 16.6565 18.0941C16.5908 18.0208 16.5004 17.9743 16.4026 17.9635H14.9144C14.8204 17.9639 14.7288 17.9939 14.6528 18.0492C14.5767 18.1045 14.52 18.1824 14.4906 18.2717L12.1405 25.4041C12.1377 25.4394 12.1377 25.4748 12.1405 25.5101C12.1355 25.5517 12.1355 25.5937 12.1405 25.6353V28.3852C12.1405 28.504 12.1877 28.6179 12.2716 28.7019C12.3556 28.7859 12.4696 28.8331 12.5883 28.8331H32.4444C32.5632 28.8331 32.6771 28.7859 32.7611 28.7019C32.8451 28.6179 32.8923 28.504 32.8923 28.3852V25.6449C32.8941 25.6029 32.8909 25.5609 32.8827 25.5197ZM32.1073 28.0481H12.8966V25.9917H32.1073V28.0481ZM19.3306 20.227C19.5793 20.2287 19.8255 20.1777 20.053 20.0772C20.2804 19.9768 20.484 19.8292 20.6502 19.6443C21.4689 18.7244 21.2089 17.2363 19.9326 15.4929C19.8621 15.4001 19.7711 15.3249 19.6666 15.2731C19.5622 15.2213 19.4472 15.1943 19.3306 15.1943C19.2141 15.1943 19.0991 15.2213 18.9946 15.2731C18.8902 15.3249 18.7992 15.4001 18.7287 15.4929C17.4524 17.2122 17.1924 18.71 17.9966 19.6443C18.1647 19.8308 18.3706 19.9793 18.6007 20.0798C18.8307 20.1803 19.0796 20.2305 19.3306 20.227ZM19.3306 16.0179C19.7448 16.5813 20.8332 18.2477 20.0578 19.1193C19.9644 19.2166 19.8522 19.2941 19.7281 19.3469C19.6039 19.3998 19.4704 19.4271 19.3355 19.4271C19.2005 19.4271 19.067 19.3998 18.9429 19.3469C18.8187 19.2941 18.7065 19.2166 18.6131 19.1193C17.8329 18.2284 18.9165 16.5813 19.3306 16.0179ZM25.8418 20.227C26.088 20.227 26.3315 20.1751 26.5564 20.0747C26.7813 19.9743 26.9825 19.8276 27.1469 19.6443C27.9704 18.7244 27.7055 17.2363 26.4293 15.4929C26.3593 15.4002 26.2687 15.3249 26.1646 15.2731C26.0606 15.2213 25.946 15.1944 25.8297 15.1944C25.7135 15.1944 25.5989 15.2213 25.4948 15.2731C25.3908 15.3249 25.3002 15.4002 25.2301 15.4929C23.9539 17.2122 23.6891 18.7244 24.5126 19.6443C24.6799 19.8304 24.885 19.9787 25.1142 20.0792C25.3435 20.1797 25.5915 20.2301 25.8418 20.227ZM25.8418 16.0179C26.2511 16.5813 27.3395 18.2477 26.5642 19.1193C26.471 19.2173 26.359 19.2952 26.2348 19.3485C26.1106 19.4018 25.9769 19.4292 25.8418 19.4292C25.7066 19.4292 25.5729 19.4018 25.4487 19.3485C25.3246 19.2952 25.2125 19.2173 25.1194 19.1193C24.3392 18.2284 25.4276 16.5813 25.8418 16.0179ZM21.1848 23.916C21.3517 24.0981 21.5549 24.2432 21.7814 24.3419C22.0079 24.4406 22.2525 24.4908 22.4995 24.4891C22.7477 24.4908 22.9935 24.4403 23.2209 24.3407C23.4482 24.2411 23.652 24.0948 23.8191 23.9112C24.6426 22.9865 24.3777 21.4743 23.1015 19.7599C23.0321 19.6662 22.9417 19.5902 22.8376 19.5378C22.7334 19.4853 22.6185 19.458 22.5019 19.458C22.3854 19.458 22.2704 19.4853 22.1663 19.5378C22.0622 19.5902 21.9718 19.6662 21.9023 19.7599C20.6261 21.4791 20.3612 22.9913 21.1848 23.916ZM22.4995 20.2848C22.9137 20.8531 24.0021 22.5146 23.2267 23.3862C23.1336 23.4842 23.0215 23.5621 22.8974 23.6154C22.7732 23.6687 22.6395 23.6962 22.5043 23.6962C22.3692 23.6962 22.2355 23.6687 22.1113 23.6154C21.9871 23.5621 21.8751 23.4842 21.7819 23.3862C21.0018 22.5146 22.0902 20.8483 22.4995 20.2848Z" fill="white"/>
</g>
<defs>
<clipPath id="clip0_156_25726">
<rect width="45" height="45" fill="white"/>
</clipPath>
</defs>
</svg>
