<svg width="65" height="65" viewBox="0 0 65 65" fill="none" xmlns="http://www.w3.org/2000/svg">
  <path d="M62.2507 62.2507L47.955 47.955M47.955 47.955C50.4003 45.5096 52.3401 42.6066 53.6635 39.4116C54.9869 36.2166 55.668 32.7922 55.668 29.334C55.668 25.8758 54.9869 22.4514 53.6635 19.2564C52.3401 16.0614 50.4003 13.1584 47.955 10.7131C45.5096 8.26771 42.6066 6.32797 39.4116 5.00456C36.2166 3.68115 32.7922 3 29.334 3C25.8758 3 22.4514 3.68115 19.2564 5.00456C16.0614 6.32797 13.1584 8.26771 10.7131 10.7131C5.77447 15.6516 3 22.3498 3 29.334C3 36.3182 5.77447 43.0164 10.7131 47.955C15.6516 52.8936 22.3498 55.668 29.334 55.668C36.3182 55.668 43.0164 52.8936 47.955 47.955ZM29.334 19.459V39.209M19.459 29.334H39.209" stroke="white" stroke-width="4.83" stroke-linecap="round" stroke-linejoin="round" />
</svg>