<svg width="72" height="83" viewBox="0 0 72 83" fill="none" xmlns="http://www.w3.org/2000/svg">
<g clip-path="url(#clip0_156_1158)">
<path fill-rule="evenodd" clip-rule="evenodd" d="M50.8225 57.1478C50.8225 57.1478 68.4351 56.3448 71.8582 41.5945C71.8582 41.5945 72.5663 36.4962 70.8183 36.3703C70.8183 36.3703 64.7666 49.4629 46.3789 39.5048C28.0271 29.566 32.3807 17.0845 37.5392 15.4727C42.7626 13.8405 52.5366 17.0904 56.2585 21.7418C59.9805 26.3932 58.5027 31.1293 52.6189 30.6235C46.735 30.1176 42.3114 28.0436 40.139 28.0112C37.9665 27.9788 38.4007 30.405 40.6591 32.1906C42.9174 33.9761 47.7116 39.0029 56.7786 38.46C65.8457 37.917 68.2611 32.1266 67.6982 28.0112C67.309 25.1646 63.7772 15.0342 46.8987 6.06872C30.0208 -2.89674 15.6809 -0.27832 8.94005 3.45645C2.19917 7.19122 -1.56253 13.8569 0.620497 24.8766C2.30231 33.3676 10.9958 47.1031 31.8194 54.6556C40.5103 57.8078 50.8225 57.1478 50.8225 57.1478Z" fill="#939190"/>
<path fill-rule="evenodd" clip-rule="evenodd" d="M18.1749 82.867C18.1749 82.867 22.467 82.4735 24.5905 79.7322C26.7141 76.9914 22.8359 75.7005 21.3826 77.1202C19.9301 78.5401 14.6517 79.9972 11.7595 76.5976C9.54231 73.9912 11.1015 70.779 11.7595 69.8059C12.4175 68.8328 15.8423 66.4504 18.7095 69.2836L19.3399 71.3733H12.8289C12.8289 71.3733 11.7187 71.575 11.7595 73.463C11.7998 75.317 13.8981 75.0304 13.8981 75.0304H23.5214C23.5214 75.0304 25.1251 73.7384 25.1251 71.3733C25.1251 69.0082 23.5962 64.0591 17.6406 64.0591H11.7595C11.7595 64.0591 3.74048 64.566 3.74048 73.463C3.74048 82.3601 13.3635 82.867 13.3635 82.867H18.1749Z" fill="#151618"/>
<path fill-rule="evenodd" clip-rule="evenodd" d="M67.1785 80.7772V68.761C67.1785 68.761 66.8477 64.059 61.4587 64.059C56.0696 64.059 52.4767 63.1575 50.019 65.6265C47.5613 68.0955 50.642 68.7624 51.0589 68.761C51.4759 68.7596 52.962 68.2801 53.6589 68.2387C54.3558 68.1974 59.1394 67.75 59.8989 68.2387C60.6578 68.7272 61.4014 69.4048 61.4587 70.851C61.5156 72.2967 61.4587 77.6427 61.4587 77.6427C61.4626 77.6159 58.7505 79.6433 55.2201 78.1563C55.219 78.165 54.0281 76.7492 55.219 75.5527C56.4099 74.3562 58.8587 75.0304 58.8587 75.0304C58.8587 75.0304 60.4187 74.895 60.4187 73.463C60.4187 72.031 59.6759 71.3733 57.8187 71.3733C55.9615 71.3733 51.5162 70.732 49.4989 73.9856C47.4815 77.2391 49.3404 80.0955 51.0589 81.8221C52.7774 83.5487 62.4986 82.8669 62.4986 82.8669C62.4986 82.8669 65.6496 82.8636 67.1785 80.7772Z" fill="#151618"/>
<path fill-rule="evenodd" clip-rule="evenodd" d="M33.8996 81.3002V65.6268C33.8996 65.6268 33.8276 63.5371 30.7795 63.5371C27.7319 63.5371 27.6599 65.6268 27.6599 65.6268V81.3002C27.6599 81.3002 28.0194 82.8673 30.7795 82.8673C33.5402 82.8673 33.8996 81.3002 33.8996 81.3002Z" fill="#151618"/>
<path fill-rule="evenodd" clip-rule="evenodd" d="M34.4196 72.4183L41.6992 64.0592C41.6992 64.0592 43.6556 62.3681 45.3391 64.0592C47.0226 65.7504 46.4908 66.5592 44.819 68.2389C43.1472 69.9186 40.6595 73.4632 40.6595 73.4632L46.8992 80.7774C46.8992 80.7774 47.7762 81.9862 46.8992 82.8671H42.2193L34.4196 73.9858C34.4196 73.9858 33.6837 73.1574 34.4196 72.4183Z" fill="#151618"/>
</g>
<defs>
<clipPath id="clip0_156_1158">
<rect width="72" height="83" fill="white"/>
</clipPath>
</defs>
</svg>
