<svg width="185" height="53" viewBox="0 0 185 53" fill="none" xmlns="http://www.w3.org/2000/svg">
<g clip-path="url(#clip0_156_1140)">
<path d="M81.3 31.105V15.085L74.97 31.095H73.4L67.07 15.085V31.095H64.05V9.575L68.13 9.585L74.18 25.545L80.23 9.585L84.31 9.575V31.105H81.3ZM110.61 20.395C110.61 23.475 109.53 26.085 107.38 28.235C105.23 30.385 102.62 31.465 99.54 31.465C96.46 31.465 93.85 30.385 91.7 28.235C89.55 26.085 88.47 23.475 88.47 20.395C88.47 17.315 89.55 14.705 91.7 12.555C93.85 10.405 96.46 9.325 99.54 9.325C102.62 9.325 105.23 10.405 107.38 12.555C109.54 14.705 110.61 17.325 110.61 20.395ZM91.5 20.395C91.5 22.625 92.28 24.525 93.85 26.095C95.42 27.665 97.32 28.445 99.55 28.445C101.78 28.445 103.68 27.665 105.25 26.095C106.82 24.525 107.6 22.625 107.6 20.395C107.6 18.165 106.82 16.265 105.25 14.695C103.68 13.125 101.78 12.345 99.55 12.345C97.32 12.345 95.42 13.125 93.85 14.695C92.28 16.265 91.5 18.165 91.5 20.395ZM124 12.375C121.67 12.375 119.76 13.135 118.29 14.655C116.81 16.175 116.07 18.095 116.07 20.425C116.07 22.715 116.81 24.615 118.29 26.125C119.77 27.635 121.67 28.385 124 28.385C125.67 28.385 127.1 28.085 128.28 27.485C128.92 27.165 129.76 26.525 130.78 25.555L131.32 28.845C130.322 29.783 129.126 30.4837 127.82 30.895C126.67 31.235 125.4 31.405 123.99 31.405C120.91 31.405 118.35 30.415 116.3 28.445C114.13 26.395 113.04 23.725 113.04 20.425C113.04 17.105 114.11 14.415 116.24 12.345C118.29 10.355 120.87 9.355 123.99 9.355C125.66 9.355 127.19 9.625 128.57 10.165C129.09 10.385 129.58 10.625 130.02 10.885C130.46 11.145 130.89 11.465 131.32 11.845L130.72 15.105C129.63 14.145 128.5 13.445 127.31 13.005C126.13 12.595 125.03 12.375 124 12.375ZM133.98 31.105L142.57 8.875L151.19 31.105H148.32L146.2 25.555H138.97L136.82 31.105H133.98ZM145.12 22.845L142.58 16.215L140.02 22.835L145.12 22.845ZM154.28 31.105V9.575H159.56C161.33 9.575 162.73 10.075 163.75 11.065C164.78 12.065 165.29 13.445 165.29 15.215C165.29 16.805 164.77 18.145 163.74 19.245C162.7 20.345 161.31 20.885 159.56 20.885H157.3V31.105H154.28ZM157.29 12.435V18.015H159.7C160.5 18.015 161.13 17.765 161.58 17.275C162.03 16.785 162.26 16.095 162.26 15.205C162.26 13.355 161.41 12.435 159.7 12.435H157.29ZM168.12 9.575H171.43L176.28 17.305L181.12 9.575H184.44L177.96 19.915L185.02 31.105H181.67L176.31 22.545L170.91 31.105H167.56L174.62 19.915L168.12 9.575ZM64.39 43.105V44.485H63.73V42.235H64.38L65.83 37.965H67.13L68.57 42.235H69.22V44.485H68.56V43.105H64.39ZM65.25 42.235H67.68L66.56 38.835H66.36L65.25 42.235ZM75.59 37.985V43.105H74.69V39.535L72.69 43.095L71.69 43.105V37.985H72.59V41.605L74.61 37.985H75.59ZM78.97 39.205L78.42 38.645C78.62 38.345 78.88 38.105 79.19 37.945C79.44 37.825 79.74 37.765 80.07 37.765C80.57 37.765 80.96 37.905 81.24 38.175C81.52 38.445 81.66 38.815 81.66 39.265C81.66 39.605 81.59 39.865 81.44 40.045C81.31 40.225 81.12 40.355 80.86 40.435C81.09 40.475 81.29 40.605 81.46 40.825C81.63 41.035 81.72 41.295 81.72 41.605C81.72 42.115 81.57 42.505 81.26 42.775C80.96 43.045 80.55 43.175 80.04 43.175C79.5585 43.1851 79.0909 43.0138 78.73 42.695C78.64 42.615 78.53 42.495 78.41 42.345L78.96 41.745C79.11 41.915 79.27 42.055 79.43 42.155C79.59 42.245 79.79 42.285 80.03 42.285C80.26 42.285 80.45 42.225 80.6 42.105C80.6756 42.044 80.7358 41.966 80.7758 41.8774C80.8157 41.7888 80.8343 41.6921 80.83 41.595C80.83 41.365 80.76 41.175 80.61 41.035C80.4492 40.8881 80.2377 40.8093 80.02 40.815H79.23V39.995H80.02C80.55 39.995 80.81 39.765 80.81 39.305C80.81 39.095 80.74 38.935 80.62 38.815C80.49 38.695 80.31 38.635 80.07 38.635C79.79 38.635 79.55 38.695 79.35 38.825C79.24 38.905 79.12 39.035 78.97 39.205ZM88.16 43.105H87.31V42.845C87.18 42.965 87.03 43.055 86.85 43.115C86.67 43.175 86.46 43.205 86.22 43.205C85.72 43.205 85.29 43.035 84.94 42.695C84.55 42.315 84.36 41.845 84.36 41.265C84.36 41.015 84.39 40.785 84.46 40.575C84.53 40.365 84.64 40.175 84.8 39.985C85.15 39.565 85.64 39.345 86.26 39.345C86.44 39.345 86.65 39.375 86.87 39.435C87.09 39.495 87.24 39.585 87.31 39.705C87.31 39.395 87.25 39.155 87.12 38.975C86.96 38.755 86.69 38.645 86.32 38.645C86.02 38.645 85.81 38.665 85.68 38.715C85.55 38.755 85.46 38.835 85.41 38.955L84.69 38.645C84.78 38.405 84.94 38.225 85.15 38.095C85.44 37.915 85.84 37.825 86.34 37.825C86.92 37.825 87.37 37.985 87.69 38.295C88.01 38.605 88.16 39.045 88.16 39.615V43.105ZM87.34 41.295C87.34 41.025 87.25 40.785 87.06 40.585C86.86 40.365 86.59 40.255 86.24 40.255C85.93 40.255 85.68 40.355 85.5 40.565C85.41 40.675 85.35 40.785 85.3 40.895C85.26 41.005 85.23 41.135 85.23 41.275C85.23 41.565 85.32 41.805 85.49 42.005C85.66 42.205 85.91 42.305 86.25 42.305C86.59 42.305 86.85 42.205 87.04 41.995C87.24 41.805 87.34 41.565 87.34 41.295ZM94.27 36.615C94.13 36.815 93.95 36.975 93.74 37.105C93.54 37.205 93.32 37.265 93.09 37.265C92.86 37.265 92.65 37.215 92.45 37.105C92.25 37.005 92.07 36.835 91.91 36.595L92.27 36.225C92.5 36.545 92.78 36.715 93.1 36.715C93.42 36.715 93.7 36.555 93.93 36.225L94.27 36.615ZM94.99 37.985V43.105H94.09V39.535L92.09 43.095L91.09 43.105V37.985H91.99V41.605L94.01 37.985H94.99ZM98.59 37.965V39.955H100.79V37.965H101.69V43.105H100.79V40.825H98.59V43.105H97.69V37.965H98.59ZM119.87 43.105H119.02V42.845C118.89 42.965 118.74 43.055 118.56 43.115C118.38 43.175 118.17 43.205 117.93 43.205C117.43 43.205 117 43.035 116.65 42.695C116.26 42.315 116.07 41.845 116.07 41.265C116.07 41.015 116.1 40.785 116.17 40.575C116.24 40.365 116.35 40.175 116.51 39.985C116.86 39.565 117.35 39.345 117.97 39.345C118.15 39.345 118.36 39.375 118.58 39.435C118.8 39.495 118.95 39.585 119.02 39.705C119.02 39.395 118.96 39.155 118.83 38.975C118.67 38.755 118.4 38.645 118.03 38.645C117.73 38.645 117.52 38.665 117.39 38.715C117.26 38.755 117.17 38.835 117.12 38.955L116.4 38.645C116.49 38.405 116.65 38.225 116.86 38.095C117.15 37.915 117.55 37.825 118.05 37.825C118.63 37.825 119.08 37.985 119.4 38.295C119.72 38.605 119.87 39.045 119.87 39.615V43.105ZM119.04 41.295C119.04 41.025 118.95 40.785 118.77 40.585C118.57 40.365 118.3 40.255 117.95 40.255C117.64 40.255 117.39 40.355 117.21 40.565C117.12 40.675 117.06 40.785 117.01 40.895C116.97 41.005 116.94 41.135 116.94 41.275C116.94 41.565 117.03 41.805 117.2 42.005C117.37 42.205 117.62 42.305 117.96 42.305C118.3 42.305 118.56 42.205 118.75 41.995C118.95 41.805 119.04 41.565 119.04 41.295ZM125.17 37.905C125.84 37.905 126.42 38.165 126.9 38.685C127.38 39.205 127.62 39.825 127.62 40.555C127.62 41.285 127.38 41.915 126.9 42.425C126.42 42.945 125.85 43.195 125.17 43.195C124.618 43.2021 124.083 43.0023 123.67 42.635V44.965H122.77V37.965H123.67V38.455C124.11 38.095 124.61 37.905 125.17 37.905ZM123.57 40.565C123.57 41.045 123.73 41.455 124.04 41.795C124.36 42.135 124.73 42.305 125.17 42.305C125.61 42.305 125.98 42.135 126.3 41.795C126.62 41.455 126.77 41.045 126.77 40.565C126.77 40.095 126.62 39.685 126.31 39.345C126 39.005 125.62 38.835 125.17 38.835C124.73 38.835 124.35 39.005 124.04 39.345C123.72 39.675 123.57 40.085 123.57 40.565ZM129.66 37.965H130.59L131.84 39.835L133.09 37.965H134.02L132.32 40.515L134.08 43.125H133.14L131.84 41.205L130.56 43.125H129.62L131.37 40.525L129.66 37.965ZM140.39 37.985V43.105H139.49V39.535L137.49 43.095L136.49 43.105V37.985H137.39V41.605L139.41 37.985H140.39ZM142.8 37.965H146.22V38.835H144.97V43.105H144.07V38.835H142.8V37.965ZM149.28 41.005C149.32 41.405 149.43 41.715 149.61 41.935C149.83 42.215 150.15 42.355 150.56 42.355C150.85 42.355 151.1 42.285 151.3 42.155C151.51 42.015 151.68 41.835 151.82 41.605L152.44 42.165C152.24 42.475 152 42.725 151.71 42.905C151.36 43.115 150.95 43.225 150.49 43.225C149.86 43.225 149.36 42.975 148.98 42.485C148.6 41.985 148.41 41.345 148.41 40.565C148.41 39.845 148.6 39.215 148.97 38.685C149.35 38.155 149.84 37.895 150.44 37.895C151.16 37.895 151.71 38.175 152.1 38.735C152.44 39.225 152.61 39.845 152.61 40.585C152.61 40.855 152.58 40.995 152.52 41.005H149.28ZM149.28 40.135H151.66C151.66 39.815 151.56 39.525 151.38 39.265C151.15 38.955 150.84 38.805 150.43 38.805C150.08 38.805 149.8 38.955 149.57 39.245C149.38 39.505 149.28 39.805 149.28 40.135ZM156.12 37.965V39.705L157.69 37.965H158.78L156.89 39.985L159.09 43.105H158.04L156.11 40.315V43.095H155.21V37.965H156.12ZM161.18 37.965H164.6V38.835H163.35V43.105H162.45V38.835H161.18V37.965ZM167.55 37.965L169.21 41.775L170.83 37.955H171.69L168.61 45.105L167.75 45.115L168.75 42.795L166.68 37.955L167.55 37.965ZM176.46 37.905C177.13 37.905 177.71 38.165 178.19 38.685C178.67 39.205 178.91 39.825 178.91 40.555C178.91 41.285 178.67 41.915 178.19 42.425C177.71 42.945 177.14 43.195 176.46 43.195C175.908 43.2021 175.373 43.0023 174.96 42.635V44.965H174.06V37.965H174.96V38.455C175.41 38.095 175.91 37.905 176.46 37.905ZM174.86 40.565C174.86 41.045 175.02 41.455 175.33 41.795C175.65 42.135 176.02 42.305 176.46 42.305C176.9 42.305 177.27 42.135 177.59 41.795C177.91 41.455 178.06 41.045 178.06 40.565C178.06 40.095 177.91 39.685 177.6 39.345C177.29 39.005 176.91 38.835 176.46 38.835C176.02 38.835 175.64 39.005 175.33 39.345C175.02 39.675 174.86 40.085 174.86 40.565ZM185.01 43.105H184.16V42.845C184.03 42.965 183.88 43.055 183.7 43.115C183.52 43.175 183.31 43.205 183.07 43.205C182.57 43.205 182.14 43.035 181.79 42.695C181.4 42.315 181.21 41.845 181.21 41.265C181.21 41.015 181.24 40.785 181.31 40.575C181.38 40.365 181.49 40.175 181.65 39.985C182 39.565 182.49 39.345 183.11 39.345C183.29 39.345 183.5 39.375 183.72 39.435C183.94 39.495 184.09 39.585 184.16 39.705C184.16 39.395 184.1 39.155 183.97 38.975C183.81 38.755 183.54 38.645 183.17 38.645C182.87 38.645 182.66 38.665 182.53 38.715C182.4 38.765 182.31 38.835 182.26 38.955L181.54 38.645C181.63 38.405 181.79 38.225 182 38.095C182.29 37.915 182.69 37.825 183.19 37.825C183.77 37.825 184.22 37.985 184.54 38.295C184.86 38.605 185.01 39.045 185.01 39.615V43.105ZM184.18 41.295C184.18 41.025 184.09 40.785 183.9 40.585C183.7 40.365 183.43 40.255 183.08 40.255C182.77 40.255 182.52 40.355 182.34 40.565C182.25 40.675 182.19 40.785 182.14 40.895C182.1 41.005 182.07 41.135 182.07 41.275C182.07 41.565 182.16 41.805 182.33 42.005C182.5 42.205 182.75 42.305 183.09 42.305C183.43 42.305 183.69 42.205 183.88 41.995C184.08 41.805 184.18 41.565 184.18 41.295ZM110.99 38.045V43.165H110.09V39.595L108.09 43.155L107.09 43.165V38.045H107.99V41.665L110.01 38.045H110.99Z" fill="#656565"/>
<path d="M2.21 31.4849H24.87V1.56494M24.79 51.7549L24.82 45.4449H31.09C31.09 45.4449 32.2 38.6249 24.87 36.8749V32.2349M25.19 18.9949L33.89 18.9649V12.6949C33.89 12.6949 40.71 11.5849 42.46 18.9149H50.4M1.5 2.06494H50.83V50.9349H1.5V2.06494Z" stroke="#656565" stroke-width="3" stroke-miterlimit="22.926"/>
</g>
<defs>
<clipPath id="clip0_156_1140">
<rect width="185.01" height="51.87" fill="white" transform="translate(0 0.564941)"/>
</clipPath>
</defs>
</svg>
