<svg width="200" height="71" viewBox="0 0 200 71" fill="none" xmlns="http://www.w3.org/2000/svg">
<g clip-path="url(#clip0_156_945)">
<path d="M8.63905 28.8181L15.9174 1.31219H17.2781L9.31179 31.3923H7.96194L0 1.31219H1.36291L8.63905 28.8181ZM9.54693 22.1503L8.93079 24.7311L2.72365 1.31219H4.06697L9.54693 22.1503ZM10.9077 17.1173L10.2371 19.6218L5.42771 1.31219H6.75143L10.9077 17.1173ZM12.2684 11.9013L11.5804 14.445L8.11434 1.31219H9.48597L12.2684 11.9013ZM12.0159 31.3923H10.6725L18.6301 1.31219H19.956L12.0159 31.3923ZM14.7112 31.3923H13.3679L21.3168 1.31219H22.6601L14.7112 31.3923ZM17.4327 31.3923H16.0719L24.0295 1.34489L24.0121 1.31001H25.3903V1.34489L28.9304 13.5513L32.1787 1.31219H33.5394L25.5731 31.3923H24.2102L20.6549 19.2055L17.4327 31.3923ZM21.3342 16.6378L24.8569 28.9205L25.5448 26.3223L22.0069 14.0766L21.3342 16.6378ZM22.6775 11.5133L26.2263 23.7633L26.9165 21.2L23.3764 8.94121L22.6775 11.5133ZM24.0208 6.42581L27.5783 18.6737L28.2489 16.0929L24.7284 3.81015L24.0208 6.42581ZM28.2772 31.3923H26.9339L34.9002 1.31219H36.2261L28.2772 31.3923ZM30.9813 31.3923H29.6379L37.5868 1.31219H38.9301L30.9813 31.3923ZM33.7027 31.3923H32.3463L40.2952 1.31219H41.656L33.7027 31.3923Z" fill="#1F1F1F"/>
<path d="M42.8404 22.704C41.9841 20.6965 41.5427 18.5362 41.5427 16.3533C41.5427 14.1705 41.9841 12.0102 42.8404 10.0027C44.4763 6.06591 47.6016 2.93699 51.5338 1.29911C53.539 0.441887 55.6967 -4.19617e-05 57.8771 -4.19617e-05C60.0574 -4.19617e-05 62.2151 0.441887 64.2203 1.29911C68.1525 2.93699 71.2778 6.06591 72.9137 10.0027C73.77 12.0102 74.2114 14.1705 74.2114 16.3533C74.2114 18.5362 73.77 20.6965 72.9137 22.704C71.279 26.6416 68.1533 29.7709 64.2203 31.4076C62.2151 32.2648 60.0574 32.7067 57.8771 32.7067C55.6967 32.7067 53.539 32.2648 51.5338 31.4076C47.6008 29.7709 44.4751 26.6416 42.8404 22.704ZM44.0378 10.5128C43.2533 12.3602 42.849 14.347 42.849 16.3544C42.849 18.3619 43.2533 20.3487 44.0378 22.1961C44.7793 23.9937 45.8683 25.6269 47.2421 27.002C48.6159 28.377 50.2476 29.4668 52.0433 30.2087C53.8886 30.9941 55.873 31.3989 57.8781 31.3989C59.8832 31.3989 61.8677 30.9941 63.713 30.2087C65.5081 29.4663 67.1392 28.3763 68.5126 27.0013C69.886 25.6263 70.9747 23.9933 71.7163 22.1961C72.5008 20.3487 72.9051 18.3619 72.9051 16.3544C72.9051 14.347 72.5008 12.3602 71.7163 10.5128C70.9747 8.71556 69.886 7.0826 68.5126 5.7076C67.1392 4.33259 65.5081 3.2426 63.713 2.50014C61.8677 1.71475 59.8832 1.30995 57.8781 1.30995C55.873 1.30995 53.8886 1.71475 52.0433 2.50014C50.2476 3.24205 48.6159 4.33183 47.2421 5.70688C45.8683 7.08193 44.7793 8.71517 44.0378 10.5128ZM45.9973 23.2402C44.7906 21.146 44.1554 18.7709 44.1554 16.3533C44.1554 13.9357 44.7906 11.5607 45.9973 9.46652C47.1971 7.38368 48.9244 5.65443 51.0048 4.45317C53.0965 3.24513 55.4688 2.6092 57.8836 2.6092C60.2984 2.6092 62.6707 3.24513 64.7624 4.45317C66.8428 5.65443 68.57 7.38368 69.7699 9.46652C70.978 11.5602 71.6141 13.9354 71.6141 16.3533C71.6141 18.7713 70.978 21.1465 69.7699 23.2402C68.5698 25.3228 66.8426 27.052 64.7624 28.2535C62.6707 29.4616 60.2984 30.0975 57.8836 30.0975C55.4688 30.0975 53.0965 29.4616 51.0048 28.2535C48.9254 27.0517 47.199 25.3225 45.9994 23.2402H45.9973ZM46.4327 11.5198C45.7862 13.0491 45.453 14.6927 45.453 16.3533C45.453 18.0139 45.7862 19.6576 46.4327 21.1869C47.0421 22.6718 47.9398 24.0209 49.0737 25.1561C50.2075 26.2913 51.5551 27.19 53.0383 27.8001C54.5654 28.4489 56.2073 28.7832 57.8662 28.7832C59.525 28.7832 61.167 28.4489 62.6941 27.8001C64.1773 27.19 65.5248 26.2913 66.6587 25.1561C67.7925 24.0209 68.6902 22.6718 69.2996 21.1869C69.9461 19.6576 70.2793 18.0139 70.2793 16.3533C70.2793 14.6927 69.9461 13.0491 69.2996 11.5198C68.6902 10.0349 67.7925 8.68576 66.6587 7.55058C65.5248 6.41539 64.1773 5.5167 62.6941 4.90655C61.1666 4.25927 59.5248 3.92573 57.8662 3.92573C56.2075 3.92573 54.5657 4.25927 53.0383 4.90655C51.5551 5.5167 50.2075 6.41539 49.0737 7.55058C47.9398 8.68576 47.0421 10.0349 46.4327 11.5198ZM48.2485 21.9323C47.0255 19.8099 46.536 17.3428 46.8559 14.9135C47.1758 12.4842 48.2872 10.2284 50.0178 8.49579C51.7484 6.76316 54.0015 5.65048 56.428 5.33023C58.8545 5.00997 61.3187 5.50003 63.4386 6.72443C65.1246 7.70241 66.5242 9.10685 67.4971 10.797C68.4701 12.4872 68.9822 14.4037 68.9822 16.3544C68.9822 18.3052 68.4701 20.2217 67.4971 21.9119C66.5242 23.602 65.1246 25.0065 63.4386 25.9844C61.7431 26.9599 59.8217 27.4733 57.8662 27.4733C55.9106 27.4733 53.9892 26.9599 52.2937 25.9844C50.6162 25.0126 49.2246 23.6149 48.2594 21.9323H48.2485ZM49.3828 11.4304C48.5199 12.9277 48.0656 14.6258 48.0656 16.3544C48.0656 18.083 48.5199 19.7812 49.3828 21.2784C50.241 22.7638 51.4747 23.9967 52.9599 24.8532C54.4558 25.7158 56.1518 26.1698 57.8781 26.1698C59.6044 26.1698 61.3005 25.7158 62.7964 24.8532C64.276 23.995 65.5054 22.7641 66.3626 21.2828C67.2242 19.7851 67.6777 18.0871 67.6777 16.3588C67.6777 14.6305 67.2242 12.9325 66.3626 11.4348C65.5072 9.9487 64.2776 8.71313 62.7964 7.85135C61.3009 6.98743 59.6047 6.53264 57.8781 6.53264C56.1516 6.53264 54.4554 6.98743 52.9599 7.85135C51.4781 8.71054 50.2482 9.94488 49.3937 11.4304H49.3828ZM50.0359 19.6523C49.5921 18.6096 49.3633 17.4879 49.3633 16.3544C49.3633 15.221 49.5921 14.0992 50.0359 13.0565C50.8865 11.0047 52.5151 9.37431 54.5645 8.5227C55.6063 8.07965 56.7266 7.85131 57.8585 7.85131C58.9905 7.85131 60.1108 8.07965 61.1526 8.5227C63.2009 9.37519 64.8285 11.0054 65.679 13.0565C66.1228 14.0992 66.3516 15.221 66.3516 16.3544C66.3516 17.4879 66.1228 18.6096 65.679 19.6523C64.8285 21.7035 63.2009 23.3337 61.1526 24.1862C60.1108 24.6292 58.9905 24.8576 57.8585 24.8576C56.7266 24.8576 55.6063 24.6292 54.5645 24.1862C52.5151 23.3346 50.8865 21.7041 50.0359 19.6523ZM52.777 11.267C51.6025 12.4433 50.8715 13.9908 50.7084 15.646C50.5453 17.3012 50.9601 18.9618 51.8824 20.3453C52.8046 21.7287 54.1772 22.7494 55.7665 23.2337C57.3558 23.7179 59.0637 23.6358 60.5993 23.0013C62.135 22.3667 63.4036 21.219 64.1891 19.7535C64.9747 18.2879 65.2286 16.5951 64.9078 14.9631C64.587 13.3312 63.7112 11.861 62.4295 10.8028C61.1478 9.74458 59.5394 9.16376 57.8781 9.15918C56.9322 9.14391 55.9931 9.32308 55.1191 9.68563C54.2451 10.0482 53.4546 10.5864 52.7966 11.267H52.777Z" fill="#1F1F1F"/>
<path d="M77.5424 22.704C76.6862 20.6965 76.2448 18.5362 76.2448 16.3533C76.2448 14.1705 76.6862 12.0102 77.5424 10.0027C79.1766 6.06552 82.3015 2.93626 86.2337 1.29911C88.2388 0.441887 90.3966 -4.19617e-05 92.5769 -4.19617e-05C94.7572 -4.19617e-05 96.915 0.441887 98.9201 1.29911C102.853 2.93579 105.979 6.0651 107.614 10.0027C108.47 12.0102 108.911 14.1705 108.911 16.3533C108.911 18.5362 108.47 20.6965 107.614 22.704C105.981 26.6431 102.855 29.7731 98.9201 31.4076C96.915 32.2648 94.7572 32.7067 92.5769 32.7067C90.3966 32.7067 88.2388 32.2648 86.2337 31.4076C82.3003 29.7722 79.1748 26.6424 77.5424 22.704ZM78.7398 10.5128C77.9554 12.3602 77.551 14.347 77.551 16.3544C77.551 18.3619 77.9554 20.3487 78.7398 22.1961C79.4805 23.9939 80.5689 25.6273 81.9424 27.0024C83.3159 28.3775 84.9475 29.4672 86.7431 30.2087C88.5884 30.9941 90.5729 31.3989 92.578 31.3989C94.5831 31.3989 96.5676 30.9941 98.4128 30.2087C100.209 29.4672 101.84 28.3775 103.214 27.0024C104.587 25.6273 105.675 23.9939 106.416 22.1961C107.201 20.3487 107.605 18.3619 107.605 16.3544C107.605 14.347 107.201 12.3602 106.416 10.5128C105.675 8.715 104.587 7.08157 103.214 5.70645C101.84 4.33133 100.209 3.24166 98.4128 2.50014C96.5676 1.71475 94.5831 1.30995 92.578 1.30995C90.5729 1.30995 88.5884 1.71475 86.7431 2.50014C84.9475 3.24166 83.3159 4.33133 81.9424 5.70645C80.5689 7.08157 79.4805 8.715 78.7398 10.5128ZM80.6993 23.2402C79.4927 21.146 78.8575 18.7709 78.8575 16.3533C78.8575 13.9357 79.4927 11.5607 80.6993 9.46652C81.8994 7.38387 83.6266 5.65467 85.7068 4.45317C87.7981 3.24511 90.1701 2.60915 92.5845 2.60915C94.999 2.60915 97.3709 3.24511 99.4622 4.45317C101.542 5.65467 103.27 7.38387 104.47 9.46652C105.676 11.5607 106.312 13.9357 106.312 16.3533C106.312 18.7709 105.676 21.146 104.47 23.2402C103.269 25.3226 101.542 27.0518 99.4622 28.2535C97.3709 29.4616 94.999 30.0975 92.5845 30.0975C90.1701 30.0975 87.7981 29.4616 85.7068 28.2535C83.6268 27.0518 81.8996 25.3226 80.6993 23.2402ZM81.1347 11.5198C80.4882 13.0491 80.1551 14.6927 80.1551 16.3533C80.1551 18.0139 80.4882 19.6576 81.1347 21.1869C81.7442 22.6718 82.6418 24.0209 83.7757 25.1561C84.9095 26.2913 86.2571 27.19 87.7403 27.8001C89.2674 28.4489 90.9093 28.7832 92.5682 28.7832C94.2271 28.7832 95.869 28.4489 97.3961 27.8001C98.8798 27.1909 100.228 26.2926 101.362 25.1573C102.496 24.022 103.393 22.6724 104.002 21.1869C104.65 19.658 104.984 18.0142 104.984 16.3533C104.984 14.6925 104.65 13.0487 104.002 11.5198C103.393 10.0343 102.496 8.68471 101.362 7.54941C100.228 6.41411 98.8798 5.51576 97.3961 4.90655C95.8686 4.25927 94.2269 3.92573 92.5682 3.92573C90.9095 3.92573 89.2678 4.25927 87.7403 4.90655C86.2571 5.5167 84.9095 6.41539 83.7757 7.55058C82.6418 8.68576 81.7442 10.0349 81.1347 11.5198ZM82.9505 21.9323C81.977 20.2423 81.4649 18.3256 81.4657 16.3747C81.4664 14.4238 81.9799 12.5074 82.9547 10.8182C83.9294 9.12888 85.331 7.72616 87.0187 6.75092C88.7063 5.77569 90.6207 5.26228 92.5693 5.26228C94.5179 5.26228 96.4322 5.77569 98.1199 6.75092C99.8076 7.72616 101.209 9.12888 102.184 10.8182C103.159 12.5074 103.672 14.4238 103.673 16.3747C103.674 18.3256 103.162 20.2423 102.188 21.9323C101.219 23.6164 99.8228 25.0143 98.1407 25.9844C96.4455 26.9599 94.5245 27.4733 92.5693 27.4733C90.614 27.4733 88.693 26.9599 86.9979 25.9844C85.3185 25.0136 83.9253 23.6157 82.9592 21.9323H82.9505ZM84.0848 11.4304C83.2219 12.9277 82.7676 14.6258 82.7676 16.3544C82.7676 18.083 83.2219 19.7812 84.0848 21.2784C84.9438 22.7624 86.1764 23.995 87.6597 24.8532C89.1556 25.7158 90.8517 26.1698 92.578 26.1698C94.3043 26.1698 96.0003 25.7158 97.4962 24.8532C98.9758 23.995 100.205 22.7641 101.062 21.2828C101.924 19.7851 102.378 18.0871 102.378 16.3588C102.378 14.6305 101.924 12.9325 101.062 11.4348C100.207 9.9487 98.9775 8.71313 97.4962 7.85135C96.0007 6.98743 94.3046 6.53264 92.578 6.53264C90.8514 6.53264 89.1552 6.98743 87.6597 7.85135C86.1791 8.71192 84.9495 9.94594 84.0935 11.4304H84.0848ZM84.738 19.6523C84.2954 18.6093 84.0674 17.4877 84.0674 16.3544C84.0674 15.2212 84.2954 14.0996 84.738 13.0565C85.5902 11.0058 87.2182 9.37592 89.2665 8.5227C90.3083 8.07965 91.4286 7.85131 92.5606 7.85131C93.6925 7.85131 94.8128 8.07965 95.8546 8.5227C97.903 9.37592 99.5309 11.0058 100.383 13.0565C100.826 14.0996 101.054 15.2212 101.054 16.3544C101.054 17.4877 100.826 18.6093 100.383 19.6523C99.5309 21.7031 97.903 23.3329 95.8546 24.1862C94.8128 24.6292 93.6925 24.8576 92.5606 24.8576C91.4286 24.8576 90.3083 24.6292 89.2665 24.1862C87.2182 23.3329 85.5902 21.7031 84.738 19.6523ZM87.479 11.267C86.3045 12.4434 85.5734 13.9909 85.4104 15.6462C85.2473 17.3015 85.6623 18.9623 86.5847 20.3457C87.5071 21.7292 88.8798 22.7498 90.4693 23.2339C92.0588 23.718 93.7667 23.6357 95.3024 23.0009C96.838 22.3661 98.1065 21.2181 98.8918 19.7523C99.6771 18.2865 99.9307 16.5935 99.6095 14.9615C99.2883 13.3296 98.4121 11.8595 97.1301 10.8016C95.848 9.74366 94.2394 9.16325 92.578 9.15918C91.632 9.14391 90.693 9.32308 89.8189 9.68563C88.9449 10.0482 88.1544 10.5864 87.4964 11.267H87.479Z" fill="#1F1F1F"/>
<path d="M128.36 31.3923H111.615V1.31219H128.36C130.714 1.31013 133.015 2.01224 134.968 3.32843C137.042 4.70588 138.726 6.5955 139.858 8.81479C140.915 10.8675 141.528 13.1207 141.657 15.427C141.785 17.7332 141.426 20.0406 140.602 22.1983C139.94 23.9606 138.966 25.5888 137.726 27.0045C136.533 28.344 135.086 29.4337 133.47 30.2109C131.879 30.9899 130.131 31.3941 128.36 31.3923ZM112.915 30.0845H128.36C129.954 30.082 131.526 29.7089 132.952 28.9946C134.409 28.2816 135.71 27.2866 136.781 26.0673C137.901 24.7732 138.777 23.2865 139.368 21.6795C140.662 18.2455 140.662 14.4568 139.368 11.0228C138.774 9.41721 137.898 7.93109 136.781 6.63507C135.714 5.41542 134.414 4.421 132.958 3.70988C131.531 2.99461 129.956 2.6215 128.36 2.62002H112.922L112.915 30.0845ZM114.221 28.7767V3.92786H128.36C130.249 3.92781 132.093 4.50833 133.642 5.59098C135.311 6.7405 136.655 8.30225 137.543 10.1248C138.499 12.063 138.995 14.1953 138.995 16.3566C138.995 18.5179 138.499 20.6502 137.543 22.5884C136.654 24.4104 135.31 25.972 133.642 27.1222C132.091 28.2009 130.248 28.7783 128.36 28.7767H114.221ZM115.528 27.4688H128.36C130.018 27.4698 131.634 26.949 132.98 25.9801C134.44 24.9408 135.611 23.5462 136.383 21.928C137.218 20.189 137.652 18.2841 137.652 16.3544C137.652 14.4248 137.218 12.5199 136.383 10.7809C135.612 9.15717 134.437 7.75891 132.971 6.72008C131.626 5.75559 130.014 5.23655 128.36 5.23569H115.536L115.528 27.4688ZM116.834 26.161V6.54352H128.36C129.784 6.54533 131.171 7.00364 132.316 7.85135C133.578 8.77013 134.582 10.0001 135.229 11.4217C135.941 12.967 136.309 14.6484 136.309 16.3501C136.309 18.0517 135.941 19.7331 135.229 21.2784C134.585 22.7013 133.583 23.9329 132.322 24.8532C131.175 25.7014 129.786 26.1597 128.36 26.161H116.834ZM118.14 24.8532H128.36C130.163 24.8532 131.714 24.0205 133.015 22.3552C134.315 20.6899 134.968 18.6882 134.974 16.3501C134.988 14.8782 134.681 13.421 134.075 12.08C133.545 10.8597 132.714 9.79394 131.661 8.98262C130.717 8.2485 129.555 7.85042 128.36 7.85135H118.149L118.14 24.8532ZM119.447 23.5453V9.15918H128.36C129.798 9.15918 131.036 9.86469 132.072 11.2757C133.108 12.6867 133.626 14.3796 133.624 16.3544C133.624 18.3409 133.107 20.0367 132.072 21.4419C131.037 22.8471 129.8 23.5482 128.36 23.5453H119.447ZM120.753 22.2375H128.36C129.438 22.2375 130.361 21.6621 131.127 20.5112C131.893 19.3603 132.277 17.974 132.279 16.3523C132.279 14.7175 131.894 13.3275 131.125 12.1825C130.356 11.0374 129.434 10.4656 128.36 10.467H120.762L120.753 22.2375Z" fill="#1F1F1F"/>
<path d="M145.862 31.3923H144.556V1.31219H145.862V31.3923ZM148.475 31.3923H147.169V1.31219H148.475V31.3923ZM151.087 31.3923H149.781V1.31219H151.087V31.3923ZM153.7 24.8532H167.601V26.161H153.702V27.4688H167.604V28.7767H153.702V30.0845H167.604V31.3923H152.396V1.31219H167.604V2.62002H153.702V3.92785H167.604V5.23569H153.702V6.54352H167.604V7.85135H153.702V13.0827H160.835V14.3905H153.702V15.6983H160.835V17.0062H153.702V18.314H160.835V19.6218H153.702L153.7 24.8532Z" fill="#1F1F1F"/>
<path d="M172.121 3.43524V31.3923H170.815V1.31219H172.376L190.797 31.3923H189.29L172.121 3.43524ZM173.428 7.16038L174.734 9.37715V31.3923H173.428V7.16038ZM173.885 1.31219H175.409L193.893 31.3923H192.369L173.885 1.31219ZM176.04 11.5024L177.346 13.7017V31.3923H176.04V11.5024ZM176.97 1.31219H178.511L196.969 31.3923H195.417L176.97 1.31219ZM178.653 15.7899L179.959 17.9522V31.3923H178.653V15.7899ZM180.037 1.31219H181.561L198.694 29.2758V1.31219H200V31.3923H198.465L180.037 1.31219ZM192.151 16.9168L190.845 14.7545V1.31219H192.151V16.9168ZM194.764 21.2043L193.458 19.0072V1.31219H194.764V21.2043ZM197.377 25.5485L196.07 23.3274V1.31219H197.377V25.5485Z" fill="#1F1F1F"/>
<path d="M5.92188 68.0857L7.26737 66.3528C7.99048 67.1709 8.87804 67.8268 9.87193 68.2775C10.8658 68.7283 11.9436 68.9638 13.0347 68.9685C16.3005 68.9685 17.3477 67.2073 17.3477 65.8057C17.3477 61.0757 6.49883 63.687 6.49883 57.1413C6.49883 54.1159 9.18982 52.0539 12.7887 52.0539C15.5907 52.0539 17.7614 52.989 19.2985 54.6129L17.9247 56.2891C16.5509 54.7763 14.6284 54.0897 12.6232 54.0897C10.4265 54.0897 8.86107 55.2711 8.86107 57.004C8.86107 61.1302 19.71 58.7652 19.71 65.6117C19.71 68.2797 17.8985 71.0022 12.9607 71.0022C9.76677 71 7.43284 69.7903 5.92188 68.0857Z" fill="#C29B5D"/>
<path d="M50.5911 70.6709V52.3176H57.9521C61.6337 52.3176 63.6977 54.857 63.6977 57.8541C63.6977 60.8512 61.5836 63.3841 57.9565 63.3841H52.8706V70.6709H50.5911ZM61.3311 57.8541C61.3311 55.7921 59.8484 54.3666 57.6778 54.3666H52.8706V61.3526H57.6778C59.8484 61.3482 61.3311 59.9183 61.3311 57.8541Z" fill="#C29B5D"/>
<path d="M105.149 70.6709L103.54 66.6013H94.4089L92.7891 70.6709H90.1765L97.5419 52.3176H100.372L107.762 70.6621L105.149 70.6709ZM98.968 54.6935L95.0665 64.5655H102.843L98.968 54.6935Z" fill="#C29B5D"/>
<path d="M135.865 61.5139C135.865 55.8749 140.014 52.0255 145.287 52.0255C148.529 52.0255 150.78 53.5928 152.237 55.6548L150.315 56.7272C149.751 55.9124 149 55.245 148.125 54.7811C147.251 54.3172 146.277 54.0704 145.287 54.0614C141.277 54.0614 138.229 57.1413 138.229 61.516C138.229 65.8907 141.277 68.9685 145.287 68.9685C146.279 68.9653 147.254 68.7207 148.13 68.256C149.006 67.7912 149.756 67.1201 150.315 66.3005L152.274 67.3729C150.735 69.4633 148.538 71.0022 145.307 71.0022C140.014 71 135.865 67.1506 135.865 61.5139Z" fill="#C29B5D"/>
<path d="M182.65 70.6709V52.3176H194.655V54.3535H184.932V60.2671H194.463V62.3007H184.932V68.6219H194.655V70.6578L182.65 70.6709Z" fill="#C29B5D"/>
</g>
<defs>
<clipPath id="clip0_156_945">
<rect width="200" height="71" fill="white"/>
</clipPath>
</defs>
</svg>
