<svg width="32" height="32" viewBox="0 0 32 32" fill="none" xmlns="http://www.w3.org/2000/svg">
<g clip-path="url(#clip0_156_36100)">
<path d="M16 0.375C7.37056 0.375 0.375 7.37056 0.375 16C0.375 24.6294 7.37056 31.625 16 31.625C24.6294 31.625 31.625 24.6294 31.625 16C31.625 7.37056 24.6294 0.375 16 0.375ZM16.2019 25.4517C14.4523 25.4517 12.8375 24.9842 11.4244 24.2494L5.90675 25.986L7.7235 20.7761C6.84881 19.3066 6.3105 17.5699 6.3105 15.7666C6.3105 10.3563 10.7515 6.01475 16.2019 6.01475C21.6523 5.94794 26.0933 10.2898 26.0933 15.6998C26.0933 21.1099 21.6523 25.4517 16.2019 25.4517Z" fill="#C29B5D"/>
<path d="M16.2019 7.48413C11.6263 7.48413 7.85815 11.1578 7.85815 15.6998C7.85784 17.436 8.42496 19.1248 9.47315 20.5089L8.46378 23.5814L11.6937 22.5795C13.0563 23.4607 14.6466 23.925 16.2693 23.9154C20.8448 23.9154 24.613 20.2417 24.613 15.6998C24.5456 11.1578 20.7775 7.48413 16.2019 7.48413ZM21.1447 18.5554L21.0438 19.0374C20.9866 19.308 20.8764 19.5645 20.7197 19.7923C20.563 20.0201 20.3628 20.2147 20.1307 20.3649C19.5324 20.7406 18.7641 20.9284 17.7817 20.6529C14.7401 19.7951 13.0209 17.7914 12.0952 16.5391C11.1694 15.2868 10.8105 14.0345 11.0435 13.0141C11.201 12.3316 11.7047 11.7994 12.0196 11.5301C12.1757 11.3985 12.3762 11.3315 12.5801 11.3426L13.2287 11.3801C13.2915 11.3841 13.3519 11.4055 13.4031 11.442C13.4543 11.4785 13.4943 11.5287 13.5184 11.5868L14.463 13.7908C14.487 13.8487 14.4945 13.9122 14.4844 13.9742C14.4744 14.0361 14.4474 14.094 14.4063 14.1414L13.5813 15.0869C13.549 15.1244 13.5288 15.1707 13.5232 15.2198C13.5176 15.269 13.527 15.3186 13.55 15.3624C14.6395 17.4412 16.6169 18.2678 17.2088 18.4744C17.2577 18.4918 17.3108 18.4933 17.3605 18.4787C17.4103 18.4641 17.4542 18.4341 17.4859 18.3931L18.3484 17.2786C18.3955 17.2185 18.4615 17.1759 18.5358 17.1578C18.61 17.1397 18.6882 17.147 18.7577 17.1786L20.9555 18.1804C21.0245 18.2128 21.0806 18.2673 21.1149 18.3352C21.1492 18.4032 21.1597 18.4807 21.1447 18.5554Z" fill="#C29B5D"/>
</g>
<defs>
<clipPath id="clip0_156_36100">
<rect width="32" height="32" fill="white"/>
</clipPath>
</defs>
</svg>
