<svg width="128" height="93" viewBox="0 0 128 93" fill="none" xmlns="http://www.w3.org/2000/svg">
  <path d="M26.546 85.0417L48.9108 0.00673494H53.0919L28.6133 93H24.4654L0 0.00673494H4.18796L26.546 85.0417ZM29.3358 64.4282L27.4424 72.4068L8.36921 0.00673494H12.4969L29.3358 64.4282ZM33.517 48.8686L31.4565 56.6113L16.6782 0.00673494H20.7457L33.517 48.8686ZM37.6981 32.7431L35.5843 40.6071L24.9337 0.00673494H29.1485L37.6981 32.7431ZM36.9222 93H32.7944L57.2464 0.00673494H61.3205L36.9222 93ZM45.2044 93H41.0766L65.5019 0.00673494H69.6297L45.2044 93ZM53.567 93H49.3856L73.8375 0.10781L73.7842 0H78.019V0.10781L88.897 37.8442L98.8784 0.00673494H103.06L78.5809 93H74.393L63.4681 55.3242L53.567 93ZM65.5553 47.3861L76.38 85.3583L78.4938 77.3258L67.6226 39.4682L65.5553 47.3861ZM69.6831 31.5435L80.5878 69.4148L82.7087 61.4901L71.8307 23.592L69.6831 31.5435ZM73.8109 15.8156L84.7425 53.6801L86.803 45.7015L75.9852 7.72921L73.8109 15.8156ZM86.8899 93H82.7621L107.241 0.00673494H111.315L86.8899 93ZM95.1988 93H91.071L115.496 0.00673494H119.624L95.1988 93ZM103.561 93H99.3936L123.819 0.00673494H128L103.561 93Z" fill="#C29B5D" fill-opacity="0.3" />
</svg>