<svg width="456" height="688" viewBox="0 0 456 688" fill="none" xmlns="http://www.w3.org/2000/svg">
<path d="M98.5331 298.103L177.334 0.0236085H192.066L105.817 326H91.2022L5 0.0236085H19.756L98.5331 298.103ZM108.363 225.845L101.692 253.813L34.4884 0.0236085H49.0322L108.363 225.845ZM123.095 171.303L115.835 198.444L63.7646 0.0236085H78.0963L123.095 171.303ZM137.827 114.777L130.379 142.343L92.8522 0.0236085H107.703L137.827 114.777ZM135.093 326H120.549L206.704 0.0236085H221.059L135.093 326ZM164.275 326H149.731L235.792 0.0236085H250.336L164.275 326ZM193.74 326H179.007L265.162 0.377916L264.974 0H279.895V0.377916L318.223 132.658L353.392 0.0236085H368.124L281.875 326H267.119L228.626 193.932L193.74 326ZM235.98 166.106L274.12 299.213L281.568 271.056L243.264 138.351L235.98 166.106ZM250.524 110.572L288.946 243.325L296.419 215.546L258.091 82.6988L250.524 110.572ZM265.068 55.4396L303.585 188.169L310.845 160.201L272.729 27.0938L265.068 55.4396ZM311.151 326H296.607L382.857 0.0236085H397.212L311.151 326ZM340.427 326H325.883L411.944 0.0236085H426.488L340.427 326ZM369.892 326H355.207L441.268 0.0236085H456L369.892 326Z" fill="#C29B5D" fill-opacity="0.3"/>
<path d="M93.5331 389.897L172.334 687.976H187.066L100.817 362H86.2022L0 687.976H14.756L93.5331 389.897ZM103.363 462.155L96.6917 434.187L29.4884 687.976H44.0322L103.363 462.155ZM118.095 516.697L110.835 489.556L58.7646 687.976H73.0963L118.095 516.697ZM132.827 573.223L125.379 545.657L87.8522 687.976H102.703L132.827 573.223ZM130.093 362H115.549L201.704 687.976H216.059L130.093 362ZM159.275 362H144.731L230.792 687.976H245.336L159.275 362ZM188.74 362H174.007L260.162 687.622L259.974 688H274.895V687.622L313.223 555.342L348.392 687.976H363.124L276.875 362H262.119L223.626 494.068L188.74 362ZM230.98 521.894L269.12 388.787L276.568 416.944L238.264 549.649L230.98 521.894ZM245.524 577.428L283.946 444.675L291.419 472.454L253.091 605.301L245.524 577.428ZM260.068 632.56L298.585 499.831L305.845 527.799L267.729 660.906L260.068 632.56ZM306.151 362H291.607L377.857 687.976H392.212L306.151 362ZM335.427 362H320.883L406.944 687.976H421.488L335.427 362ZM364.892 362H350.207L436.268 687.976H451L364.892 362Z" fill="#C29B5D" fill-opacity="0.3"/>
</svg>
