<svg width="200" height="71" viewBox="0 0 200 71" fill="none" xmlns="http://www.w3.org/2000/svg">
<g clip-path="url(#clip0_156_3331)">
<path d="M8.63905 28.8176L15.9174 1.31175H17.2781L9.31179 31.3919H7.96194L0 1.31175H1.36291L8.63905 28.8176ZM9.54693 22.1499L8.93079 24.7307L2.72365 1.31175H4.06697L9.54693 22.1499ZM10.9077 17.1169L10.2371 19.6214L5.42771 1.31175H6.75143L10.9077 17.1169ZM12.2684 11.9008L11.5804 14.4446L8.11434 1.31175H9.48597L12.2684 11.9008ZM12.0159 31.3919H10.6725L18.6301 1.31175H19.956L12.0159 31.3919ZM14.7112 31.3919H13.3679L21.3168 1.31175H22.6601L14.7112 31.3919ZM17.4327 31.3919H16.0719L24.0295 1.34444L24.0121 1.30957H25.3903V1.34444L28.9304 13.5509L32.1787 1.31175H33.5394L25.5731 31.3919H24.2102L20.6549 19.2051L17.4327 31.3919ZM21.3342 16.6374L24.8569 28.9201L25.5448 26.3218L22.0069 14.0762L21.3342 16.6374ZM22.6775 11.5128L26.2263 23.7629L26.9165 21.1995L23.3764 8.94077L22.6775 11.5128ZM24.0208 6.42537L27.5783 18.6732L28.2489 16.0924L24.7284 3.80971L24.0208 6.42537ZM28.2772 31.3919H26.9339L34.9002 1.31175H36.2261L28.2772 31.3919ZM30.9813 31.3919H29.6379L37.5868 1.31175H38.9301L30.9813 31.3919ZM33.7027 31.3919H32.3463L40.2952 1.31175H41.656L33.7027 31.3919Z" fill="white"/>
<path d="M42.8404 22.704C41.9841 20.6965 41.5427 18.5362 41.5427 16.3534C41.5427 14.1705 41.9841 12.0103 42.8404 10.0028C44.4763 6.06595 47.6016 2.93704 51.5338 1.29915C53.539 0.441929 55.6967 0 57.8771 0C60.0574 0 62.2151 0.441929 64.2203 1.29915C68.1525 2.93704 71.2778 6.06595 72.9137 10.0028C73.77 12.0103 74.2114 14.1705 74.2114 16.3534C74.2114 18.5362 73.77 20.6965 72.9137 22.704C71.279 26.6416 68.1533 29.7709 64.2203 31.4076C62.2151 32.2648 60.0574 32.7068 57.8771 32.7068C55.6967 32.7068 53.539 32.2648 51.5338 31.4076C47.6008 29.7709 44.4751 26.6416 42.8404 22.704ZM44.0378 10.5128C43.2533 12.3602 42.849 14.347 42.849 16.3545C42.849 18.3619 43.2533 20.3487 44.0378 22.1961C44.7793 23.9937 45.8683 25.627 47.2421 27.002C48.6159 28.3771 50.2476 29.4669 52.0433 30.2088C53.8886 30.9942 55.873 31.3989 57.8781 31.3989C59.8832 31.3989 61.8677 30.9942 63.713 30.2088C65.5081 29.4663 67.1392 28.3763 68.5126 27.0013C69.886 25.6263 70.9747 23.9933 71.7163 22.1961C72.5008 20.3487 72.9051 18.3619 72.9051 16.3545C72.9051 14.347 72.5008 12.3602 71.7163 10.5128C70.9747 8.7156 69.886 7.08265 68.5126 5.70764C67.1392 4.33264 65.5081 3.24264 63.713 2.50018C61.8677 1.71479 59.8832 1.31 57.8781 1.31C55.873 1.31 53.8886 1.71479 52.0433 2.50018C50.2476 3.24209 48.6159 4.33187 47.2421 5.70692C45.8683 7.08198 44.7793 8.71521 44.0378 10.5128ZM45.9973 23.2402C44.7906 21.1461 44.1554 18.771 44.1554 16.3534C44.1554 13.9358 44.7906 11.5607 45.9973 9.46656C47.1971 7.38372 48.9244 5.65447 51.0048 4.45321C53.0965 3.24517 55.4688 2.60924 57.8836 2.60924C60.2984 2.60924 62.6707 3.24517 64.7624 4.45321C66.8428 5.65447 68.57 7.38372 69.7699 9.46656C70.978 11.5602 71.6141 13.9355 71.6141 16.3534C71.6141 18.7713 70.978 21.1466 69.7699 23.2402C68.5698 25.3229 66.8426 27.0521 64.7624 28.2536C62.6707 29.4616 60.2984 30.0975 57.8836 30.0975C55.4688 30.0975 53.0965 29.4616 51.0048 28.2536C48.9254 27.0518 47.199 25.3226 45.9994 23.2402H45.9973ZM46.4327 11.5199C45.7862 13.0491 45.453 14.6928 45.453 16.3534C45.453 18.014 45.7862 19.6577 46.4327 21.1869C47.0421 22.6718 47.9398 24.021 49.0737 25.1562C50.2075 26.2913 51.5551 27.19 53.0383 27.8002C54.5654 28.4489 56.2073 28.7832 57.8662 28.7832C59.525 28.7832 61.167 28.4489 62.6941 27.8002C64.1773 27.19 65.5248 26.2913 66.6587 25.1562C67.7925 24.021 68.6902 22.6718 69.2996 21.1869C69.9461 19.6577 70.2793 18.014 70.2793 16.3534C70.2793 14.6928 69.9461 13.0491 69.2996 11.5199C68.6902 10.0349 67.7925 8.6858 66.6587 7.55062C65.5248 6.41543 64.1773 5.51674 62.6941 4.90659C61.1666 4.25931 59.5248 3.92578 57.8662 3.92578C56.2075 3.92578 54.5657 4.25931 53.0383 4.90659C51.5551 5.51674 50.2075 6.41543 49.0737 7.55062C47.9398 8.6858 47.0421 10.0349 46.4327 11.5199ZM48.2485 21.9324C47.0255 19.8099 46.536 17.3428 46.8559 14.9135C47.1758 12.4843 48.2872 10.2285 50.0178 8.49583C51.7484 6.76321 54.0015 5.65052 56.428 5.33027C58.8545 5.01001 61.3187 5.50007 63.4386 6.72447C65.1246 7.70245 66.5242 9.10689 67.4971 10.7971C68.4701 12.4872 68.9822 14.4037 68.9822 16.3545C68.9822 18.3052 68.4701 20.2217 67.4971 21.9119C66.5242 23.6021 65.1246 25.0065 63.4386 25.9845C61.7431 26.96 59.8217 27.4733 57.8662 27.4733C55.9106 27.4733 53.9892 26.96 52.2937 25.9845C50.6162 25.0126 49.2246 23.6149 48.2594 21.9324H48.2485ZM49.3828 11.4305C48.5199 12.9277 48.0656 14.6259 48.0656 16.3545C48.0656 18.0831 48.5199 19.7812 49.3828 21.2785C50.241 22.7638 51.4747 23.9967 52.9599 24.8532C54.4558 25.7158 56.1518 26.1699 57.8781 26.1699C59.6044 26.1699 61.3005 25.7158 62.7964 24.8532C64.276 23.995 65.5054 22.7641 66.3626 21.2828C67.2242 19.7852 67.6777 18.0872 67.6777 16.3588C67.6777 14.6305 67.2242 12.9325 66.3626 11.4348C65.5072 9.94874 64.2776 8.71317 62.7964 7.85139C61.3009 6.98748 59.6047 6.53269 57.8781 6.53269C56.1516 6.53269 54.4554 6.98748 52.9599 7.85139C51.4781 8.71058 50.2482 9.94492 49.3937 11.4305H49.3828ZM50.0359 19.6524C49.5921 18.6097 49.3633 17.4879 49.3633 16.3545C49.3633 15.221 49.5921 14.0993 50.0359 13.0566C50.8865 11.0048 52.5151 9.37435 54.5645 8.52274C55.6063 8.07969 56.7266 7.85136 57.8585 7.85136C58.9905 7.85136 60.1108 8.07969 61.1526 8.52274C63.2009 9.37523 64.8285 11.0054 65.679 13.0566C66.1228 14.0993 66.3516 15.221 66.3516 16.3545C66.3516 17.4879 66.1228 18.6097 65.679 19.6524C64.8285 21.7035 63.2009 23.3337 61.1526 24.1862C60.1108 24.6293 58.9905 24.8576 57.8585 24.8576C56.7266 24.8576 55.6063 24.6293 54.5645 24.1862C52.5151 23.3346 50.8865 21.7042 50.0359 19.6524ZM52.777 11.267C51.6025 12.4433 50.8715 13.9908 50.7084 15.646C50.5453 17.3012 50.9601 18.9619 51.8824 20.3453C52.8046 21.7287 54.1772 22.7495 55.7665 23.2337C57.3558 23.718 59.0637 23.6358 60.5993 23.0013C62.135 22.3668 63.4036 21.2191 64.1891 19.7535C64.9747 18.2879 65.2286 16.5951 64.9078 14.9632C64.587 13.3312 63.7112 11.861 62.4295 10.8028C61.1478 9.74463 59.5394 9.1638 57.8781 9.15922C56.9322 9.14395 55.9931 9.32313 55.1191 9.68567C54.2451 10.0482 53.4546 10.5864 52.7966 11.267H52.777Z" fill="white"/>
<path d="M77.5424 22.704C76.6862 20.6965 76.2448 18.5362 76.2448 16.3534C76.2448 14.1705 76.6862 12.0103 77.5424 10.0028C79.1766 6.06556 82.3015 2.9363 86.2337 1.29915C88.2388 0.441929 90.3966 0 92.5769 0C94.7572 0 96.915 0.441929 98.9201 1.29915C102.853 2.93583 105.979 6.06514 107.614 10.0028C108.47 12.0103 108.911 14.1705 108.911 16.3534C108.911 18.5362 108.47 20.6965 107.614 22.704C105.981 26.6431 102.855 29.7732 98.9201 31.4076C96.915 32.2648 94.7572 32.7068 92.5769 32.7068C90.3966 32.7068 88.2388 32.2648 86.2337 31.4076C82.3003 29.7723 79.1748 26.6424 77.5424 22.704ZM78.7398 10.5128C77.9554 12.3602 77.551 14.347 77.551 16.3545C77.551 18.3619 77.9554 20.3487 78.7398 22.1961C79.4805 23.9939 80.5689 25.6273 81.9424 27.0025C83.3159 28.3776 84.9475 29.4672 86.7431 30.2088C88.5884 30.9942 90.5729 31.3989 92.578 31.3989C94.5831 31.3989 96.5676 30.9942 98.4128 30.2088C100.209 29.4672 101.84 28.3776 103.214 27.0025C104.587 25.6273 105.675 23.9939 106.416 22.1961C107.201 20.3487 107.605 18.3619 107.605 16.3545C107.605 14.347 107.201 12.3602 106.416 10.5128C105.675 8.71504 104.587 7.08161 103.214 5.70649C101.84 4.33137 100.209 3.24171 98.4128 2.50018C96.5676 1.71479 94.5831 1.31 92.578 1.31C90.5729 1.31 88.5884 1.71479 86.7431 2.50018C84.9475 3.24171 83.3159 4.33137 81.9424 5.70649C80.5689 7.08161 79.4805 8.71504 78.7398 10.5128ZM80.6993 23.2402C79.4927 21.1461 78.8575 18.771 78.8575 16.3534C78.8575 13.9358 79.4927 11.5607 80.6993 9.46656C81.8994 7.38391 83.6266 5.65471 85.7068 4.45321C87.7981 3.24515 90.1701 2.60919 92.5845 2.60919C94.999 2.60919 97.3709 3.24515 99.4622 4.45321C101.542 5.65471 103.27 7.38391 104.47 9.46656C105.676 11.5607 106.312 13.9358 106.312 16.3534C106.312 18.771 105.676 21.1461 104.47 23.2402C103.269 25.3227 101.542 27.0518 99.4622 28.2536C97.3709 29.4616 94.999 30.0976 92.5845 30.0976C90.1701 30.0976 87.7981 29.4616 85.7068 28.2536C83.6268 27.0518 81.8996 25.3227 80.6993 23.2402ZM81.1347 11.5199C80.4882 13.0491 80.1551 14.6928 80.1551 16.3534C80.1551 18.014 80.4882 19.6577 81.1347 21.1869C81.7442 22.6718 82.6418 24.021 83.7757 25.1562C84.9095 26.2913 86.2571 27.19 87.7403 27.8002C89.2674 28.4489 90.9093 28.7832 92.5682 28.7832C94.2271 28.7832 95.869 28.4489 97.3961 27.8002C98.8798 27.191 100.228 26.2926 101.362 25.1573C102.496 24.022 103.393 22.6724 104.002 21.1869C104.65 19.658 104.984 18.0142 104.984 16.3534C104.984 14.6926 104.65 13.0487 104.002 11.5199C103.393 10.0344 102.496 8.68476 101.362 7.54945C100.228 6.41415 98.8798 5.5158 97.3961 4.90659C95.8686 4.25931 94.2269 3.92578 92.5682 3.92578C90.9095 3.92578 89.2678 4.25931 87.7403 4.90659C86.2571 5.51674 84.9095 6.41543 83.7757 7.55062C82.6418 8.6858 81.7442 10.0349 81.1347 11.5199ZM82.9505 21.9324C81.977 20.2424 81.4649 18.3256 81.4657 16.3747C81.4664 14.4238 81.9799 12.5075 82.9547 10.8182C83.9294 9.12893 85.331 7.7262 87.0187 6.75097C88.7063 5.77573 90.6207 5.26232 92.5693 5.26232C94.5179 5.26232 96.4322 5.77573 98.1199 6.75097C99.8076 7.7262 101.209 9.12893 102.184 10.8182C103.159 12.5075 103.672 14.4238 103.673 16.3747C103.674 18.3256 103.162 20.2424 102.188 21.9324C101.219 23.6164 99.8228 25.0143 98.1407 25.9845C96.4455 26.96 94.5245 27.4734 92.5693 27.4734C90.614 27.4734 88.693 26.96 86.9979 25.9845C85.3185 25.0137 83.9253 23.6158 82.9592 21.9324H82.9505ZM84.0848 11.4305C83.2219 12.9277 82.7676 14.6259 82.7676 16.3545C82.7676 18.0831 83.2219 19.7812 84.0848 21.2785C84.9438 22.7625 86.1764 23.995 87.6597 24.8532C89.1556 25.7158 90.8517 26.1699 92.578 26.1699C94.3043 26.1699 96.0003 25.7158 97.4962 24.8532C98.9758 23.995 100.205 22.7641 101.062 21.2828C101.924 19.7852 102.378 18.0872 102.378 16.3588C102.378 14.6305 101.924 12.9325 101.062 11.4348C100.207 9.94874 98.9775 8.71317 97.4962 7.85139C96.0007 6.98748 94.3046 6.53269 92.578 6.53269C90.8514 6.53269 89.1552 6.98748 87.6597 7.85139C86.1791 8.71196 84.9495 9.94598 84.0935 11.4305H84.0848ZM84.738 19.6524C84.2954 18.6093 84.0674 17.4877 84.0674 16.3545C84.0674 15.2212 84.2954 14.0996 84.738 13.0566C85.5902 11.0058 87.2182 9.37596 89.2665 8.52274C90.3083 8.07969 91.4286 7.85136 92.5606 7.85136C93.6925 7.85136 94.8128 8.07969 95.8546 8.52274C97.903 9.37596 99.5309 11.0058 100.383 13.0566C100.826 14.0996 101.054 15.2212 101.054 16.3545C101.054 17.4877 100.826 18.6093 100.383 19.6524C99.5309 21.7031 97.903 23.333 95.8546 24.1862C94.8128 24.6293 93.6925 24.8576 92.5606 24.8576C91.4286 24.8576 90.3083 24.6293 89.2665 24.1862C87.2182 23.333 85.5902 21.7031 84.738 19.6524ZM87.479 11.267C86.3045 12.4434 85.5734 13.991 85.4104 15.6463C85.2473 17.3016 85.6623 18.9623 86.5847 20.3458C87.5071 21.7292 88.8798 22.7498 90.4693 23.234C92.0588 23.7181 93.7667 23.6357 95.3024 23.0009C96.838 22.3661 98.1065 21.2181 98.8918 19.7523C99.6771 18.2865 99.9307 16.5935 99.6095 14.9616C99.2883 13.3296 98.4121 11.8596 97.1301 10.8016C95.848 9.7437 94.2394 9.1633 92.578 9.15922C91.632 9.14395 90.693 9.32313 89.8189 9.68567C88.9449 10.0482 88.1544 10.5864 87.4964 11.267H87.479Z" fill="white"/>
<path d="M128.36 31.3926H111.615V1.3125H128.36C130.714 1.31045 133.015 2.01255 134.968 3.32874C137.042 4.70619 138.726 6.59581 139.858 8.8151C140.915 10.8679 141.528 13.121 141.657 15.4273C141.785 17.7335 141.426 20.0409 140.602 22.1986C139.94 23.9609 138.966 25.5891 137.726 27.0049C136.533 28.3443 135.086 29.434 133.47 30.2112C131.879 30.9902 130.131 31.3944 128.36 31.3926ZM112.915 30.0848H128.36C129.954 30.0823 131.526 29.7092 132.952 28.9949C134.409 28.2819 135.71 27.287 136.781 26.0676C137.901 24.7735 138.777 23.2869 139.368 21.6798C140.662 18.2458 140.662 14.4571 139.368 11.0232C138.774 9.41752 137.898 7.93141 136.781 6.63538C135.714 5.41573 134.414 4.42131 132.958 3.7102C131.531 2.99492 129.956 2.62181 128.36 2.62034H112.922L112.915 30.0848ZM114.221 28.777V3.92817H128.36C130.249 3.92813 132.093 4.50865 133.642 5.59129C135.311 6.74081 136.655 8.30256 137.543 10.1251C138.499 12.0633 138.995 14.1956 138.995 16.3569C138.995 18.5182 138.499 20.6506 137.543 22.5887C136.654 24.4107 135.31 25.9723 133.642 27.1226C132.091 28.2012 130.248 28.7786 128.36 28.777H114.221ZM115.528 27.4691H128.36C130.018 27.4702 131.634 26.9494 132.98 25.9804C134.44 24.9411 135.611 23.5466 136.383 21.9283C137.218 20.1893 137.652 18.2844 137.652 16.3547C137.652 14.4251 137.218 12.5202 136.383 10.7812C135.612 9.15749 134.437 7.75923 132.971 6.72039C131.626 5.75591 130.014 5.23686 128.36 5.236H115.536L115.528 27.4691ZM116.834 26.1613V6.54383H128.36C129.784 6.54564 131.171 7.00395 132.316 7.85166C133.578 8.77044 134.582 10.0004 135.229 11.422C135.941 12.9673 136.309 14.6488 136.309 16.3504C136.309 18.052 135.941 19.7334 135.229 21.2787C134.585 22.7017 133.583 23.9332 132.322 24.8535C131.175 25.7017 129.786 26.16 128.36 26.1613H116.834ZM118.14 24.8535H128.36C130.163 24.8535 131.714 24.0208 133.015 22.3555C134.315 20.6902 134.968 18.6885 134.974 16.3504C134.988 14.8785 134.681 13.4213 134.075 12.0803C133.545 10.86 132.714 9.79425 131.661 8.98294C130.717 8.24881 129.555 7.85073 128.36 7.85166H118.149L118.14 24.8535ZM119.447 23.5456V9.15949H128.36C129.798 9.15949 131.036 9.865 132.072 11.276C133.108 12.687 133.626 14.3799 133.624 16.3547C133.624 18.3412 133.107 20.037 132.072 21.4422C131.037 22.8474 129.8 23.5485 128.36 23.5456H119.447ZM120.753 22.2378H128.36C129.438 22.2378 130.361 21.6624 131.127 20.5115C131.893 19.3606 132.277 17.9743 132.279 16.3526C132.279 14.7178 131.894 13.3278 131.125 12.1828C130.356 11.0377 129.434 10.4659 128.36 10.4673H120.762L120.753 22.2378Z" fill="white"/>
<path d="M145.862 31.3926H144.556V1.3125H145.862V31.3926ZM148.475 31.3926H147.169V1.3125H148.475V31.3926ZM151.087 31.3926H149.781V1.3125H151.087V31.3926ZM153.7 24.8535H167.601V26.1613H153.702V27.4691H167.604V28.777H153.702V30.0848H167.604V31.3926H152.396V1.3125H167.604V2.62033H153.702V3.92816H167.604V5.23599H153.702V6.54383H167.604V7.85166H153.702V13.083H160.835V14.3908H153.702V15.6986H160.835V17.0065H153.702V18.3143H160.835V19.6221H153.702L153.7 24.8535Z" fill="white"/>
<path d="M172.121 3.43555V31.3926H170.815V1.3125H172.376L190.797 31.3926H189.29L172.121 3.43555ZM173.428 7.16069L174.734 9.37746V31.3926H173.428V7.16069ZM173.885 1.3125H175.409L193.893 31.3926H192.369L173.885 1.3125ZM176.04 11.5027L177.346 13.702V31.3926H176.04V11.5027ZM176.97 1.3125H178.511L196.969 31.3926H195.417L176.97 1.3125ZM178.653 15.7902L179.959 17.9525V31.3926H178.653V15.7902ZM180.037 1.3125H181.561L198.694 29.2761V1.3125H200V31.3926H198.465L180.037 1.3125ZM192.151 16.9171L190.845 14.7548V1.3125H192.151V16.9171ZM194.764 21.2046L193.458 19.0075V1.3125H194.764V21.2046ZM197.377 25.5488L196.07 23.3277V1.3125H197.377V25.5488Z" fill="white"/>
<path d="M5.92188 68.0855L7.26737 66.3527C7.99048 67.1707 8.87804 67.8266 9.87193 68.2774C10.8658 68.7281 11.9436 68.9636 13.0347 68.9683C16.3005 68.9683 17.3477 67.2071 17.3477 65.8056C17.3477 61.0756 6.49883 63.6869 6.49883 57.1412C6.49883 54.1157 9.18982 52.0537 12.7887 52.0537C15.5907 52.0537 17.7614 52.9888 19.2985 54.6127L17.9247 56.2889C16.5509 54.7762 14.6284 54.0896 12.6232 54.0896C10.4265 54.0896 8.86107 55.271 8.86107 57.0039C8.86107 61.1301 19.71 58.7651 19.71 65.6116C19.71 68.2795 17.8985 71.002 12.9607 71.002C9.76677 70.9998 7.43284 69.7901 5.92188 68.0855Z" fill="#C29B5D"/>
<path d="M50.5911 70.6706V52.3174H57.9521C61.6337 52.3174 63.6977 54.8568 63.6977 57.8539C63.6977 60.851 61.5836 63.3838 57.9565 63.3838H52.8706V70.6706H50.5911ZM61.3311 57.8539C61.3311 55.7919 59.8484 54.3663 57.6778 54.3663H52.8706V61.3523H57.6778C59.8484 61.348 61.3311 59.9181 61.3311 57.8539Z" fill="#C29B5D"/>
<path d="M105.149 70.6706L103.54 66.6011H94.4089L92.7891 70.6706H90.1765L97.5419 52.3174H100.372L107.762 70.6619L105.149 70.6706ZM98.968 54.6933L95.0665 64.5652H102.843L98.968 54.6933Z" fill="#C29B5D"/>
<path d="M135.865 61.5137C135.865 55.8748 140.014 52.0254 145.287 52.0254C148.529 52.0254 150.78 53.5926 152.237 55.6546L150.315 56.727C149.751 55.9123 149 55.2449 148.125 54.781C147.251 54.3171 146.277 54.0703 145.287 54.0612C141.277 54.0612 138.229 57.1412 138.229 61.5159C138.229 65.8906 141.277 68.9684 145.287 68.9684C146.279 68.9651 147.254 68.7206 148.13 68.2558C149.006 67.791 149.756 67.1199 150.315 66.3004L152.274 67.3728C150.735 69.4631 148.538 71.002 145.307 71.002C140.014 70.9998 135.865 67.1505 135.865 61.5137Z" fill="#C29B5D"/>
<path d="M182.65 70.6706V52.3174H194.655V54.3532H184.932V60.2668H194.463V62.3005H184.932V68.6217H194.655V70.6575L182.65 70.6706Z" fill="#C29B5D"/>
</g>
<defs>
<clipPath id="clip0_156_3331">
<rect width="200" height="71" fill="white"/>
</clipPath>
</defs>
</svg>
