<svg width="190" height="122" viewBox="0 0 190 122" fill="none" xmlns="http://www.w3.org/2000/svg">
<path d="M121.499 0H30.8898V18.5325H121.499V0Z" fill="#477987"/>
<path d="M34.7107 0H27.4601C17.4589 0 9.35669 8.08358 9.35669 18.0617V93.0989H34.7222V0H34.7107Z" fill="#375D68"/>
<path d="M124.929 0H117.678V93.0989H143.044V18.0617C143.044 8.08358 134.942 0 124.94 0H124.929Z" fill="#375D68"/>
<path d="M87.8357 89.2754H67.8103V112.826H87.8357V89.2754Z" fill="#375D68"/>
<path opacity="0.2" d="M87.8357 89.2754H67.8103V97.4393H87.8357V89.2754Z" fill="black"/>
<mask id="mask0_156_2553" style="mask-type:luminance" maskUnits="userSpaceOnUse" x="48" y="45" width="56" height="30">
<path d="M103.626 67.8494V74.291H48.6825V67.8494H54.6556V66.3222H52.0776V60.0873H49.0047V54.1854H52.0776V45.7344H68.3742V48.8002H83.9227V45.7344H100.219V54.1854H103.292V60.0873H100.219V66.3222H97.6412V67.8494H103.614H103.626Z" fill="white"/>
</mask>
<g mask="url(#mask0_156_2553)">
<path d="M103.626 45.7227H76.0736V74.2793H103.626V45.7227Z" fill="#CFAD86"/>
<path opacity="0.2" d="M87.2487 73.5331C84.7628 73.0968 82.2194 73.3379 79.7104 73.3494C78.502 73.3494 77.2935 73.3494 76.0736 73.3149V73.1886C77.282 73.1197 78.4905 73.0738 79.6989 73.0393C82.2193 72.9704 84.7858 72.8327 87.2372 73.5331H87.2487Z" fill="black"/>
<path opacity="0.2" d="M96.0645 72.8211C95.0517 72.867 94.0734 73.1541 93.0607 73.2574C91.7717 73.3722 90.4712 73.2344 89.2052 73.0163C87.9392 72.7981 86.6847 72.5225 85.4188 72.3618C84.406 72.2355 83.4162 72.2125 82.4034 72.2929C83.3587 72.1206 84.3024 72.0632 85.2691 72.1207C86.5697 72.201 87.8702 72.4536 89.1592 72.6718C90.4136 72.89 91.6911 73.0737 92.9686 73.0278C94.0159 72.9933 95.0287 72.7637 96.076 72.8211H96.0645Z" fill="black"/>
<path opacity="0.2" d="M103.626 72.8324V72.9931C103.315 73.0161 102.993 73.0275 102.682 73.0275C101.324 73.0275 99.966 72.8898 98.6425 72.6486C97.8024 72.4994 96.9852 72.2812 96.1566 72.1549C95.5812 72.063 95.0057 72.0171 94.4188 72.063C93.2449 72.1434 92.1285 72.3731 90.9546 72.2008C92.1285 72.2582 93.2334 71.9712 94.3842 71.8219C95.8113 71.6382 97.2039 72.0286 98.5965 72.2927C99.92 72.5453 101.255 72.7175 102.59 72.7864C102.935 72.8094 103.281 72.8094 103.626 72.8094V72.8324Z" fill="black"/>
<path opacity="0.2" d="M103.626 73.7739V73.9691C102.648 73.7624 101.658 73.705 100.645 73.7395C99.2179 73.7739 97.8253 73.7624 96.4213 73.5328C97.8369 73.5557 99.2294 73.4524 100.645 73.418C101.669 73.3835 102.671 73.4868 103.637 73.7969L103.626 73.7739Z" fill="black"/>
<path opacity="0.2" d="M91.0582 71.271C91.0582 71.9599 89.8382 72.0173 89.4124 72.0173C88.6988 72.0173 88.0083 71.8107 87.3063 71.6729C86.5467 71.5121 85.8331 71.4662 85.062 71.5121C84.4291 71.5466 83.7961 71.6614 83.1631 71.7303C83.048 71.7418 82.9329 71.7647 82.8178 71.7647C81.3447 71.914 79.8715 72.0173 78.3754 71.9599C77.6043 71.937 76.8332 71.8796 76.0736 71.7992V71.7418C76.9943 71.7762 77.915 71.7877 78.8357 71.7877C80.3204 71.7877 81.8165 71.6155 83.2782 71.3973C84.0378 71.2825 84.7858 71.1906 85.5454 71.1447C86.2935 71.1102 87.0301 71.271 87.7551 71.4432C88.4917 71.6155 89.2513 71.8221 90.0109 71.7073C90.2295 71.6729 90.782 71.604 90.8395 71.3169C90.9085 70.9954 90.4597 70.6739 90.2295 70.5591C89.608 70.2491 88.837 70.3983 88.3766 70.9495C88.3536 70.961 88.5607 71.0643 88.5607 71.0643C88.7219 71.1332 88.883 71.1562 89.0556 71.1791C89.3318 71.1906 89.585 71.1102 89.8382 70.9954C89.585 71.1332 89.3318 71.2251 89.0556 71.2251C88.883 71.2251 88.7219 71.2021 88.5492 71.1447C88.4802 71.1217 88.2615 71.0643 88.2155 70.9954C88.1925 70.961 88.4572 70.6969 88.4917 70.6624C88.5953 70.5591 88.7219 70.4902 88.8485 70.4213C89.1362 70.2835 89.4584 70.2261 89.7692 70.2491C90.2525 70.295 91.0351 70.6624 91.0351 71.2825L91.0582 71.271Z" fill="black"/>
<path opacity="0.2" d="M99.0453 71.271C98.4699 71.3054 97.9405 71.2021 97.3766 71.0987C96.686 70.9839 96.007 70.9265 95.305 70.915C94.1771 70.915 93.0607 71.0069 91.9329 71.0643C93.0377 70.7772 94.1771 70.582 95.305 70.582C95.9955 70.582 96.686 70.6624 97.3651 70.8461C97.929 70.9954 98.4584 71.1906 99.0453 71.2595V71.271Z" fill="black"/>
<path opacity="0.2" d="M103.626 69.8701V70.1227C102.981 70.3064 102.36 70.582 101.704 70.7657C100.944 70.9839 100.139 71.0758 99.3676 70.8002C98.8957 70.6394 98.4354 70.4672 97.9635 70.295C98.4469 70.3753 98.9302 70.5131 99.4136 70.6165C100.185 70.8117 100.956 70.6624 101.704 70.4328C102.348 70.2261 102.981 69.9964 103.626 69.8701Z" fill="black"/>
<path opacity="0.2" d="M103.626 71.6038V71.9253C102.694 71.9597 101.75 71.8908 100.841 71.7301C101.761 71.5923 102.694 71.5464 103.626 71.6038Z" fill="black"/>
<path opacity="0.2" d="M86.1093 70.5133C85.1886 70.3066 84.2909 70.3296 83.3702 70.5133C82.2308 70.7315 81.126 71.0874 79.9751 71.1448C78.8587 71.2367 77.7539 70.8578 76.6835 70.5707C76.4879 70.5133 76.2807 70.4674 76.0851 70.4329V70.2377C76.2692 70.2607 76.4649 70.2836 76.649 70.3296C77.7308 70.5477 78.8472 70.9152 79.9636 70.8233C81.103 70.7659 82.2078 70.4444 83.3357 70.2951C83.9456 70.2148 84.5326 70.2033 85.1195 70.2951C85.4533 70.3411 85.7756 70.4214 86.1093 70.5363V70.5133Z" fill="black"/>
<path opacity="0.2" d="M81.3562 69.5714C81.2871 69.8814 81.0109 70.0307 80.7462 70.0766C79.5953 70.3063 78.3869 70.0192 77.259 69.7666C76.8677 69.6747 76.4764 69.5944 76.0736 69.5255V69.3418C76.2232 69.3532 76.3728 69.3762 76.5225 69.3877C77.5007 69.5255 78.4675 69.7551 79.4572 69.801C79.7104 69.801 79.9636 69.801 80.2283 69.801C80.447 69.7896 80.6656 69.801 80.8728 69.7092C81.2066 69.5599 81.1145 69.0891 80.8268 68.9399C80.6541 68.8365 80.447 68.8021 80.2398 68.8021C80.0557 68.8021 79.8025 68.7676 79.6414 68.871C79.3882 69.0432 79.6529 69.204 79.814 69.2499C79.9636 69.2958 80.2513 69.3762 80.4009 69.2958C80.3894 69.1695 80.3089 69.0891 80.2168 69.0317C80.2053 69.0317 80.0327 68.9743 79.9291 68.9743C79.9866 68.9628 80.0787 68.9514 80.0902 68.9514C80.2283 68.9628 80.3089 69.0432 80.4125 69.1236C80.47 69.2269 80.5621 69.3303 80.4355 69.3762C80.3319 69.3992 80.2283 69.4221 80.1247 69.4221C79.9176 69.4221 79.5608 69.3992 79.4342 69.204C79.2846 68.9743 79.4802 68.6987 79.6874 68.6298C80.1017 68.4806 80.7922 68.4921 81.126 68.825C81.3101 69.0088 81.4252 69.3073 81.3677 69.5829L81.3562 69.5714Z" fill="black"/>
<path opacity="0.2" d="M79.8716 68.9976C79.8716 68.9976 79.8831 68.9746 79.9176 68.9746C79.8946 68.9746 79.8716 68.9861 79.8716 68.9976Z" fill="black"/>
<path opacity="0.2" d="M78.7322 68.8253C78.7322 68.8253 78.5365 68.7334 78.5135 68.7334C78.3524 68.7219 78.1797 68.7219 78.0186 68.7219C77.6273 68.7219 77.236 68.7219 76.8447 68.7219C76.58 68.7104 76.3268 68.6875 76.0736 68.6301V68.3545C76.3038 68.366 76.534 68.3775 76.7641 68.3889C77.1439 68.4119 77.5122 68.4234 77.892 68.4923C78.1222 68.5267 78.6171 68.5727 78.7322 68.8368V68.8253Z" fill="black"/>
<path opacity="0.2" d="M87.9278 68.3776C87.007 67.9986 86.0863 67.9068 85.1081 67.9183C83.9227 67.9412 82.7257 67.9872 81.5288 67.9986C80.3434 67.9986 79.158 67.9986 77.9726 67.9757C77.4777 67.9757 76.9713 67.9412 76.4764 67.8608C76.3383 67.8379 76.2117 67.8149 76.0736 67.7805V67.6886C76.7296 67.7575 77.3856 67.7805 78.0531 67.7575C79.2386 67.7116 80.424 67.6886 81.6209 67.6771C82.8063 67.6771 84.0032 67.6542 85.1886 67.7001C86.1554 67.746 87.0646 67.9183 87.9278 68.389V68.3776Z" fill="black"/>
<path opacity="0.2" d="M96.5364 69.514C95.4315 69.7666 94.3497 69.7551 93.2334 69.6288C91.8868 69.4795 90.5403 69.204 89.1822 69.2843C88.5262 69.3188 87.8587 69.4681 87.2142 69.5599C86.5352 69.6633 85.8677 69.7092 85.1886 69.6403C84.1644 69.5255 83.2206 69.181 82.2999 68.6758C83.2321 69.0777 84.1759 69.3647 85.1886 69.4221C86.5812 69.5025 87.8817 68.9973 89.2628 68.9399C90.5748 68.8825 91.8753 69.158 93.1758 69.3762C94.3037 69.5599 95.4085 69.6518 96.5479 69.5025L96.5364 69.514Z" fill="black"/>
<path opacity="0.2" d="M93.0147 67.1489H94.5454C93.9814 67.2178 93.4175 67.3326 92.8536 67.436C92.5198 67.5049 92.186 67.5623 91.8523 67.6197C90.9891 67.7805 90.1259 67.9412 89.2628 68.102L88.9866 68.1479C89.8612 67.9297 90.7244 67.7001 91.5991 67.4934C92.0709 67.3786 92.5313 67.2523 93.0032 67.1489H93.0147Z" fill="black"/>
<path opacity="0.2" d="M103.626 67.7116V67.8494C103.062 67.9297 102.509 67.9527 101.934 67.9182C100.415 67.8494 98.9302 67.4589 97.4341 67.2293C97.2384 67.1949 97.0313 67.1719 96.8241 67.1489H98.7806C100.392 67.4704 102.003 67.8723 103.626 67.7116Z" fill="black"/>
<path opacity="0.2" d="M103.626 68.7562V68.9629C102.233 69.2041 100.829 69.3533 99.4136 69.3189C98.4699 69.2959 97.5492 69.1466 96.64 68.9514C96.1797 68.8596 95.7193 68.7562 95.2474 68.6529C94.1541 68.4118 93.0838 68.2625 91.9674 68.274C93.0953 68.1592 94.1771 68.2395 95.282 68.4233C96.7321 68.6644 98.1592 68.9629 99.6208 68.9859C100.956 69.0203 102.291 68.917 103.626 68.7562Z" fill="black"/>
<path opacity="0.2" d="M99.5747 68.0789C98.4813 68.1707 97.342 68.0215 96.3062 67.6425C97.3995 67.5507 98.5389 67.6999 99.5747 68.0789Z" fill="black"/>
<path d="M103.626 52.876H76.0736V60.018H103.626V52.876Z" fill="#CFAD86"/>
<path opacity="0.2" d="M92.4623 53.6226C94.9482 54.0589 97.4917 53.8178 100.001 53.8063C101.209 53.8063 102.417 53.8063 103.637 53.8407V53.967C102.429 54.0359 101.221 54.0819 100.012 54.1163C97.4917 54.1852 94.9252 54.323 92.4738 53.6226H92.4623Z" fill="black"/>
<path opacity="0.2" d="M83.6349 54.3342C84.6477 54.2883 85.626 54.0012 86.6387 53.8979C87.9277 53.7831 89.2282 53.9209 90.4942 54.139C91.7602 54.3572 93.0146 54.6328 94.2806 54.7935C95.2934 54.9198 96.2832 54.9428 97.296 54.8624C96.3407 55.0346 95.397 55.0921 94.4302 55.0346C93.1297 54.9543 91.8292 54.7017 90.5402 54.4835C89.2858 54.2653 88.0083 54.0816 86.7308 54.1275C85.6835 54.162 84.6707 54.3916 83.6234 54.3342H83.6349Z" fill="black"/>
<path opacity="0.2" d="M76.0736 54.3226V54.1619C76.3843 54.1389 76.7066 54.1274 77.0173 54.1274C78.3754 54.1274 79.7334 54.2652 81.057 54.5064C81.8971 54.6556 82.7142 54.8738 83.5429 55.0001C84.1183 55.092 84.6938 55.1379 85.2807 55.092C86.4546 55.0116 87.571 54.7819 88.7449 54.9542C87.571 54.8968 86.4661 55.1838 85.3152 55.3331C83.8881 55.5168 82.4956 55.1264 81.103 54.8623C79.7795 54.6097 78.4444 54.4375 77.1094 54.3686C76.7641 54.3456 76.4189 54.3456 76.0736 54.3456V54.3226Z" fill="black"/>
<path opacity="0.2" d="M76.0736 53.3812V53.186C77.0519 53.3927 78.0417 53.4501 79.0544 53.4157C80.4815 53.3812 81.8741 53.3927 83.2782 53.6224C81.8626 53.5994 80.47 53.7027 79.0544 53.7372C78.0302 53.7716 77.0289 53.6683 76.0621 53.3583L76.0736 53.3812Z" fill="black"/>
<path opacity="0.2" d="M88.6414 55.8845C88.6414 55.1956 89.8613 55.1382 90.2871 55.1382C91.0007 55.1382 91.6912 55.3449 92.3933 55.4827C93.1528 55.6434 93.8664 55.6893 94.6375 55.6434C95.2705 55.609 95.9035 55.4941 96.5364 55.4252C96.6515 55.4138 96.7666 55.3908 96.8817 55.3908C98.3549 55.2415 99.828 55.1382 101.324 55.1956C102.095 55.2186 102.855 55.276 103.626 55.3563V55.4138C102.705 55.3793 101.784 55.3678 100.864 55.3678C99.3791 55.3678 97.883 55.5401 96.4214 55.7582C95.6618 55.8731 94.9137 55.9649 94.1541 56.0108C93.406 56.0453 92.6695 55.8845 91.9444 55.7123C91.2078 55.5401 90.4483 55.3334 89.6887 55.4482C89.47 55.4827 88.9176 55.5515 88.86 55.8386C88.791 56.1601 89.2398 56.4816 89.47 56.5964C90.0915 56.9065 90.8626 56.7572 91.3229 56.206C91.3459 56.1946 91.1388 56.0912 91.1388 56.0912C90.9777 56.0223 90.8165 55.9994 90.6439 55.9764C90.3677 55.9649 90.1145 56.0453 89.8613 56.1601C90.1145 56.0223 90.3677 55.9305 90.6439 55.9305C90.8165 55.9305 90.9777 55.9534 91.1503 56.0108C91.2193 56.0338 91.438 56.0912 91.4841 56.1601C91.5071 56.1946 91.2424 56.4587 91.2078 56.4931C91.1043 56.5964 90.9777 56.6653 90.8511 56.7342C90.5633 56.872 90.2411 56.9294 89.9304 56.9065C89.447 56.8605 88.6644 56.4931 88.6644 55.8731L88.6414 55.8845Z" fill="black"/>
<path opacity="0.2" d="M80.6656 55.8842C81.2411 55.8498 81.7705 55.9531 82.3344 56.0564C83.025 56.1713 83.704 56.2287 84.406 56.2402C85.5339 56.2402 86.6503 56.1483 87.7781 56.0909C86.6733 56.3779 85.5339 56.5731 84.406 56.5731C83.7155 56.5731 83.025 56.4928 82.346 56.309C81.782 56.1598 81.2526 55.9646 80.6656 55.8957V55.8842Z" fill="black"/>
<path opacity="0.2" d="M76.0736 57.285V57.0324C76.7181 56.8487 77.3396 56.5731 77.9956 56.3894C78.7552 56.1713 79.5608 56.0794 80.3319 56.355C80.8038 56.5157 81.2641 56.688 81.736 56.8602C81.2526 56.7798 80.7692 56.642 80.2859 56.5387C79.5148 56.3435 78.7437 56.4928 77.9956 56.7224C77.3511 56.9291 76.7181 57.1587 76.0736 57.285Z" fill="black"/>
<path opacity="0.2" d="M76.0736 55.5514V55.2299C77.0058 55.1954 77.9496 55.2643 78.8588 55.4251C77.938 55.5628 77.0058 55.6088 76.0736 55.5514Z" fill="black"/>
<path opacity="0.2" d="M93.6017 56.6421C94.5224 56.8488 95.4201 56.8258 96.3408 56.6421C97.4802 56.424 98.585 56.068 99.7359 56.0106C100.852 55.9187 101.957 56.2977 103.027 56.5847C103.223 56.6421 103.43 56.6881 103.626 56.7225V56.9177C103.442 56.8947 103.246 56.8718 103.062 56.8258C101.98 56.6077 100.864 56.2402 99.7474 56.3321C98.608 56.3895 97.5032 56.711 96.3753 56.8603C95.7653 56.9407 95.1784 56.9522 94.5914 56.8603C94.2577 56.8144 93.9354 56.734 93.6017 56.6192V56.6421Z" fill="black"/>
<path opacity="0.2" d="M98.3433 57.5839C98.4124 57.2739 98.6886 57.1246 98.9533 57.0787C100.104 56.849 101.313 57.1361 102.44 57.3887C102.832 57.4805 103.223 57.5609 103.626 57.6298V57.8135C103.476 57.802 103.327 57.7791 103.177 57.7676C102.199 57.6298 101.232 57.4002 100.242 57.3542C99.9891 57.3542 99.7359 57.3542 99.4712 57.3542C99.2525 57.3657 99.0338 57.3542 98.8267 57.4461C98.4929 57.5954 98.585 58.0661 98.8727 58.2154C99.0454 58.3188 99.2525 58.3532 99.4597 58.3532C99.6438 58.3532 99.897 58.3876 100.058 58.2843C100.311 58.1121 100.047 57.9513 99.8855 57.9054C99.7359 57.8595 99.4482 57.7791 99.2985 57.8595C99.3101 57.9858 99.3906 58.0661 99.4827 58.1236C99.4942 58.1236 99.6668 58.181 99.7704 58.181C99.7129 58.1924 99.6208 58.2039 99.6093 58.2039C99.4712 58.1924 99.3906 58.1121 99.287 58.0317C99.2295 57.9284 99.1374 57.825 99.264 57.7791C99.3676 57.7561 99.4712 57.7332 99.5748 57.7332C99.7819 57.7332 100.139 57.7561 100.265 57.9513C100.415 58.181 100.219 58.4565 100.012 58.5254C99.5978 58.6747 98.9072 58.6632 98.5735 58.3302C98.3893 58.1465 98.2743 57.848 98.3318 57.5724L98.3433 57.5839Z" fill="black"/>
<path opacity="0.2" d="M99.828 58.1694C99.828 58.1694 99.8165 58.1924 99.782 58.1924C99.805 58.1924 99.828 58.1809 99.828 58.1694Z" fill="black"/>
<path opacity="0.2" d="M100.979 58.3303C100.979 58.3303 101.175 58.4222 101.198 58.4222C101.359 58.4337 101.531 58.4337 101.692 58.4337C102.084 58.4337 102.475 58.4337 102.866 58.4337C103.131 58.4452 103.384 58.4681 103.637 58.5255V58.8011C103.407 58.7896 103.177 58.7781 102.947 58.7667C102.567 58.7437 102.199 58.7322 101.819 58.6633C101.589 58.6289 101.094 58.5829 100.979 58.3188V58.3303Z" fill="black"/>
<path opacity="0.2" d="M91.7832 58.7781C92.7039 59.157 93.6246 59.2489 94.6029 59.2374C95.7883 59.2144 96.9852 59.1685 98.1821 59.157C99.3675 59.157 100.553 59.157 101.738 59.18C102.245 59.18 102.74 59.2144 103.235 59.2948C103.373 59.3178 103.499 59.3407 103.637 59.3752V59.467C102.981 59.3981 102.325 59.3752 101.658 59.3981C100.472 59.4441 99.287 59.467 98.0901 59.4785C96.8931 59.49 95.7077 59.5015 94.5223 59.4555C93.5556 59.4096 92.6464 59.2374 91.7832 58.7666V58.7781Z" fill="black"/>
<path opacity="0.2" d="M83.1631 57.6412C84.268 57.3886 85.3498 57.4 86.4662 57.5263C87.8127 57.6756 89.1592 57.9512 90.5173 57.8708C91.1733 57.8364 91.8408 57.6871 92.4853 57.5952C93.1643 57.4919 93.8318 57.446 94.5109 57.5149C95.5352 57.6297 96.4789 57.9742 97.3996 58.4794C96.4674 58.0775 95.5237 57.7904 94.5109 57.733C93.1183 57.6526 91.8178 58.1579 90.4367 58.2153C89.1247 58.2727 87.8242 57.9971 86.5237 57.779C85.3958 57.5952 84.291 57.5034 83.1516 57.6526L83.1631 57.6412Z" fill="black"/>
<path opacity="0.2" d="M86.6849 60.0063H85.1542C85.7181 59.9374 86.282 59.8226 86.846 59.7192C87.1797 59.6503 87.5135 59.5929 87.8473 59.5355C88.7104 59.3748 89.5736 59.214 90.4368 59.0533L90.713 59.0073C89.8383 59.2255 88.9751 59.4551 88.1005 59.6618C87.6286 59.7766 87.1682 59.9029 86.6964 60.0063H86.6849Z" fill="black"/>
<path opacity="0.2" d="M76.0736 59.4439V59.3061C76.6375 59.2257 77.19 59.2027 77.7654 59.2372C79.2846 59.3061 80.7692 59.6965 82.2654 59.9261C82.461 59.9606 82.6682 59.9835 82.8754 60.0065H80.9188C79.3076 59.685 77.6964 59.2831 76.0736 59.4439Z" fill="black"/>
<path opacity="0.2" d="M76.0736 58.3991V58.1924C77.4662 57.9513 78.8703 57.802 80.2859 57.8365C81.2296 57.8594 82.1503 58.0087 83.0595 58.2039C83.5198 58.2958 83.9802 58.3991 84.4521 58.5024C85.5454 58.7436 86.6157 58.8928 87.7321 58.8814C86.6042 58.9962 85.5224 58.9158 84.4175 58.7321C82.9674 58.491 81.5403 58.1924 80.0787 58.1695C78.7437 58.135 77.4086 58.2383 76.0736 58.3991Z" fill="black"/>
<path opacity="0.2" d="M80.1248 59.0766C81.2181 58.9848 82.3575 59.134 83.3933 59.5129C82.2999 59.6048 81.1606 59.4555 80.1248 59.0766Z" fill="black"/>
<path d="M103.626 60.0068H76.0736V67.1489H103.626V60.0068Z" fill="#CFAD86"/>
<path opacity="0.2" d="M82.5416 65.7825C81.2526 65.9892 79.9521 66.1155 78.6516 66.104C77.8575 66.104 77.0634 66.0466 76.2693 65.9662C76.2002 65.9662 76.1427 65.9547 76.0736 65.9433V65.7251C76.0736 65.7251 76.1887 65.7251 76.2347 65.7251C77.0404 65.7251 77.846 65.7481 78.6516 65.7595C79.9521 65.7825 81.2411 65.7481 82.5416 65.771V65.7825Z" fill="black"/>
<path opacity="0.2" d="M94.7755 66.6668C93.6592 66.6897 92.5658 66.5405 91.461 66.4486C89.9993 66.3338 88.5377 66.2878 87.0761 66.3223C84.8319 66.3682 82.5876 66.5405 80.3434 66.6783C82.5071 66.3338 84.7052 66.0697 86.8919 66.0008C88.3651 65.9549 89.8497 66.0008 91.3113 66.196C92.4737 66.3453 93.6131 66.5864 94.7755 66.6668Z" fill="black"/>
<path opacity="0.2" d="M103.626 64.9903V65.0132C102.613 65.0821 101.623 65.2084 100.622 65.4036C99.2409 65.6448 97.8714 65.9203 96.4788 65.9433C94.9251 65.9777 93.3829 65.6562 91.8638 65.3692C90.3676 65.0821 88.8484 64.9443 87.3293 64.9328C85.9942 64.9214 84.6592 64.9329 83.3242 64.8984C82.2654 64.864 81.2296 64.7491 80.1823 64.5884C81.3562 64.7032 82.5186 64.7491 83.6925 64.7491C84.0838 64.7491 84.4751 64.7377 84.8779 64.7147C85.9022 64.6802 86.9265 64.6458 87.9507 64.6458C89.5159 64.6688 91.0466 64.8754 92.5888 65.1625C93.8893 65.4036 95.1783 65.6333 96.5018 65.6448C96.6975 65.6448 96.9046 65.6448 97.1118 65.6448C98.4123 65.5873 99.7013 65.3577 100.99 65.1855C101.876 65.0706 102.763 65.0017 103.649 64.9903H103.626Z" fill="black"/>
<path opacity="0.2" d="M102.337 65.8397C102.417 65.9086 101.98 66.1267 101.957 66.1382C101.761 66.1841 101.405 66.1956 101.359 65.92C101.266 65.3344 102.268 65.4148 102.555 65.4722C102.763 65.5182 103.004 65.61 103.154 65.7937C103.304 66.0234 103.246 66.3219 103.05 66.4942C102.671 66.8386 101.992 66.8386 101.531 66.8616C100.403 66.896 99.2524 66.6894 98.1361 66.5975C97.411 66.5401 96.6975 66.5171 95.9724 66.4712C96.6169 66.4253 97.2614 66.3793 97.9059 66.3793C98.9417 66.3793 99.9545 66.4827 100.99 66.5171C101.485 66.5401 101.969 66.5171 102.463 66.4253C102.636 66.3908 102.866 66.3449 102.97 66.1841C103.096 65.9774 102.878 65.8282 102.728 65.7708C102.475 65.6674 101.669 65.4263 101.52 65.8167C101.416 66.0693 101.842 66.0923 101.969 66.0808C102.13 66.0578 102.279 66.0004 102.36 65.8397H102.337Z" fill="black"/>
<path opacity="0.2" d="M97.6527 64.9902C96.8701 65.0591 96.0875 65.0935 95.3049 64.9557C94.2576 64.7835 93.2678 64.3472 92.2435 64.0372C90.4712 63.486 88.6528 63.4286 86.8344 63.6582C88.5952 63.2219 90.3791 63.153 92.1399 63.6582C93.1642 63.9453 94.1425 64.4046 95.1783 64.6917C95.9839 64.9213 96.8241 64.9672 97.6527 64.9787V64.9902Z" fill="black"/>
<path opacity="0.2" d="M103.626 63.7616V63.842C103.154 63.7616 102.682 63.7272 102.187 63.7387C101.336 63.819 100.484 63.9224 99.6322 64.0257C98.7921 64.1406 97.9519 64.175 97.1118 64.1406C96.732 64.1291 96.3637 64.0831 95.9954 64.0372C95.7998 64.0142 95.5811 64.0028 95.374 63.9454C95.2589 63.9109 95.1323 63.865 95.0287 63.7961C95.3049 63.9339 95.6156 63.8994 95.9149 63.9109C96.2947 63.9109 96.6745 63.9224 97.0543 63.9109C97.9059 63.8879 98.7461 63.819 99.5862 63.7042C100.449 63.5894 101.301 63.532 102.176 63.5205C102.671 63.555 103.142 63.6353 103.614 63.7616H103.626Z" fill="black"/>
<path opacity="0.2" d="M79.5493 64.7031C78.3984 64.9098 77.2245 64.9327 76.0736 64.772V64.5768C76.534 64.5538 76.9943 64.5538 77.4432 64.5768C78.1452 64.5768 78.8588 64.6112 79.5493 64.7146V64.7031Z" fill="black"/>
<path opacity="0.2" d="M85.695 63.8877C85.4418 64.0484 85.1426 64.0829 84.8549 64.0829C84.7973 64.0829 84.7398 64.0829 84.6707 64.0829C81.805 63.9795 78.9393 63.5432 76.0736 63.7269V63.6351C76.8102 63.5317 77.5352 63.4743 78.2833 63.4628C79.791 63.4399 81.2871 63.5317 82.7948 63.6351C83.1746 63.658 83.5659 63.6925 83.9457 63.7154C84.337 63.7384 84.7283 63.7958 85.1196 63.7614C85.3613 63.7384 85.7756 63.6236 85.8101 63.3135C85.8446 63.038 85.2117 62.8198 85.0275 62.7624C84.7053 62.6705 84.36 62.6591 84.0262 62.7394C83.8651 62.7739 83.727 62.8313 83.5774 62.9002C83.3817 62.9806 83.6695 63.1298 83.7385 63.1643C84.0262 63.3135 84.314 63.3365 84.6247 63.2906C84.7283 63.2791 84.8779 63.2561 84.9239 63.1298C84.9585 63.0495 84.9124 62.992 84.8434 62.9576C84.9239 62.992 84.9815 63.0609 84.9239 63.1758C84.7858 63.4284 84.2909 63.4169 84.0608 63.3824C83.8766 63.3595 83.3127 63.2332 83.3702 62.9346C83.4048 62.6705 83.9802 62.5557 84.1643 62.5213C84.3025 62.4983 84.4406 62.4868 84.5787 62.4868C84.7858 62.4868 84.993 62.5213 85.1886 62.5787C85.4648 62.6591 85.9367 62.8428 86.0518 63.1643C86.1554 63.4743 85.9252 63.7614 85.695 63.8991V63.8877Z" fill="black"/>
<path opacity="0.2" d="M84.6362 62.9121C84.6362 62.9121 84.6823 62.9121 84.7053 62.9121C84.7283 62.9121 84.7628 62.9121 84.7858 62.9351C84.7398 62.9236 84.6823 62.9121 84.6362 62.9121Z" fill="black"/>
<path opacity="0.2" d="M88.6989 62.7051C88.2616 62.7051 87.8127 62.7281 87.3754 62.6592C86.7769 62.5673 86.213 62.4066 85.6375 62.2458C85.2808 62.1425 84.9355 62.0966 84.6017 62.0966C84.3485 62.0966 84.0953 62.1195 83.8306 62.1655C83.1976 62.2803 82.5647 62.4296 81.9317 62.5444C80.7117 62.774 79.5263 63.0611 78.2834 62.9233C77.6964 62.8544 77.1095 62.7625 76.534 62.7051C76.3844 62.6936 76.2463 62.6822 76.0967 62.6822V62.6018C76.2233 62.6018 76.3384 62.6018 76.465 62.6018C77.0519 62.6248 77.6504 62.6477 78.2373 62.7051C79.5033 62.8314 80.7463 62.4755 81.9777 62.2229C82.6107 62.0966 83.2552 61.9588 83.8997 61.8669C84.5327 61.7865 85.1196 61.844 85.7296 62.0506C86.2935 62.2458 86.846 62.441 87.4214 62.5673C87.8472 62.6707 88.2846 62.6936 88.7219 62.7281L88.6989 62.7051Z" fill="black"/>
<path opacity="0.2" d="M81.759 61.5339C80.6887 61.7176 79.6414 61.775 78.5595 61.7635C77.7194 61.6946 76.8907 61.5798 76.0736 61.3961V61.2583C76.9138 61.2927 77.7424 61.3616 78.571 61.4305C79.6298 61.4305 80.7002 61.465 81.759 61.5339Z" fill="black"/>
<path opacity="0.2" d="M92.5428 61.1208C92.0249 60.9371 91.5185 60.7993 90.9776 60.7649C90.2295 60.7075 89.4929 60.7763 88.7448 60.8108C87.2372 60.8682 85.741 60.9256 84.2334 60.9371C82.7487 60.9371 81.2526 60.9141 79.7679 60.8682C78.5365 60.8338 77.305 60.7534 76.0851 60.5008V60.4434C77.0288 60.5582 77.9725 60.6156 78.9393 60.6156C80.3549 60.6156 81.759 60.5926 83.1745 60.5926C84.6937 60.5926 86.2244 60.5697 87.7551 60.5697C89.1016 60.5697 90.5632 60.3974 91.8753 60.8338C92.1054 60.9141 92.3356 61.006 92.5543 61.1093L92.5428 61.1208Z" fill="black"/>
<path opacity="0.2" d="M103.626 60.6841V60.8334C103.142 60.8334 102.648 60.8678 102.153 60.9022C100.68 61.0286 99.218 61.3156 97.7678 61.5912C96.9852 61.7405 96.2026 61.8897 95.4085 62.0046C94.8676 62.0849 94.3037 62.1883 93.7397 62.2112C93.5326 62.2112 93.3254 62.2112 93.1298 62.2112C91.6681 62.1194 90.2295 61.7749 88.7679 61.6716C88.1809 61.6256 87.594 61.6027 87.0186 61.5682C88.1925 61.5682 89.3433 61.5797 90.5173 61.6716C91.2538 61.729 91.9904 61.8553 92.727 61.9127C93.4635 61.9357 94.1771 61.8782 94.9136 61.7634C97.8139 61.3156 100.691 60.6152 103.637 60.6956L103.626 60.6841Z" fill="black"/>
<path opacity="0.2" d="M98.9762 60.0068C98.6885 60.0872 98.3893 60.1676 98.1016 60.248C97.3074 60.4661 96.5133 60.6498 95.6962 60.7532C95.0632 60.8336 94.4417 60.8336 93.7972 60.8106C94.4187 60.7302 95.0402 60.6613 95.6617 60.5235C96.3407 60.3743 97.0312 60.1906 97.7103 60.0068H98.9762Z" fill="black"/>
<path opacity="0.2" d="M103.626 62.4525V62.6018C103.096 62.5329 102.579 62.4985 102.038 62.4755C100.691 62.4296 99.3446 62.51 97.998 62.6133C96.6975 62.7166 95.3855 62.797 94.0735 62.8085C93.0377 62.8085 92.0249 62.7166 90.9891 62.6018C91.9098 62.6133 92.8306 62.6363 93.7513 62.6018C93.8548 62.6018 93.9584 62.6018 94.062 62.5903C95.3625 62.51 96.663 62.3951 97.975 62.2918C99.3216 62.1885 100.691 62.131 102.038 62.2459C102.567 62.2918 103.096 62.3607 103.614 62.464L103.626 62.4525Z" fill="black"/>
<path d="M103.626 45.7227H76.0736V52.8647H103.626V45.7227Z" fill="#CFAD86"/>
<path opacity="0.2" d="M82.5416 47.1005C81.2526 46.8939 79.9521 46.7676 78.6516 46.779C77.8575 46.779 77.0634 46.8365 76.2693 46.9168C76.2002 46.9168 76.1427 46.9283 76.0736 46.9398V47.158C76.0736 47.158 76.1887 47.158 76.2347 47.158C77.0404 47.158 77.846 47.135 78.6516 47.1235C79.9521 47.1005 81.2411 47.135 82.5416 47.112V47.1005Z" fill="black"/>
<path opacity="0.2" d="M94.7755 46.2048C93.6592 46.1819 92.5658 46.3311 91.461 46.423C89.9993 46.5378 88.5377 46.5838 87.0761 46.5493C84.8319 46.5034 82.5876 46.3311 80.3434 46.1934C82.5071 46.5378 84.7052 46.8019 86.8919 46.8708C88.3651 46.9167 89.8497 46.8708 91.3113 46.6756C92.4737 46.5263 93.6131 46.2852 94.7755 46.2048Z" fill="black"/>
<path opacity="0.2" d="M103.626 47.8926V47.8696C102.613 47.8007 101.623 47.6744 100.622 47.4792C99.2409 47.2381 97.8714 46.9625 96.4788 46.9396C94.9251 46.9051 93.3829 47.2266 91.8638 47.5137C90.3676 47.8007 88.8484 47.9385 87.3293 47.95C85.9942 47.9615 84.6592 47.95 83.3242 47.9845C82.2654 48.0189 81.2296 48.1337 80.1823 48.2945C81.3562 48.1797 82.5186 48.1337 83.6925 48.1337C84.0838 48.1337 84.4751 48.1452 84.8779 48.1682C85.9022 48.2026 86.9265 48.2371 87.9507 48.2371C89.5159 48.2141 91.0466 48.0074 92.5888 47.7204C93.8893 47.4792 95.1783 47.2496 96.5018 47.2381C96.6975 47.2381 96.9046 47.2381 97.1118 47.2381C98.4123 47.2955 99.7013 47.5252 100.99 47.6974C101.876 47.8122 102.763 47.8811 103.649 47.8926H103.626Z" fill="black"/>
<path opacity="0.2" d="M102.337 47.0316C102.417 46.9627 101.98 46.7446 101.957 46.7331C101.761 46.6872 101.405 46.6757 101.359 46.9512C101.266 47.5368 102.268 47.4565 102.555 47.3991C102.763 47.3531 103.004 47.2613 103.154 47.0776C103.304 46.8479 103.246 46.5494 103.05 46.3771C102.671 46.0327 101.992 46.0327 101.531 46.0097C100.403 45.9752 99.2524 46.1819 98.1361 46.2738C97.411 46.3312 96.6975 46.3542 95.9724 46.4001C96.6169 46.446 97.2614 46.492 97.9059 46.492C98.9417 46.492 99.9545 46.3886 100.99 46.3542C101.485 46.3312 101.969 46.3542 102.463 46.446C102.636 46.4805 102.866 46.5264 102.97 46.6872C103.096 46.8938 102.878 47.0431 102.728 47.1005C102.475 47.2039 101.669 47.445 101.52 47.0546C101.416 46.802 101.842 46.779 101.969 46.7905C102.13 46.8135 102.279 46.8709 102.36 47.0316H102.337Z" fill="black"/>
<path opacity="0.2" d="M97.6527 47.8928C96.8701 47.8239 96.0875 47.7895 95.3049 47.9273C94.2576 48.0995 93.2678 48.5358 92.2435 48.8458C90.4712 49.397 88.6528 49.4544 86.8344 49.2133C88.5952 49.6496 90.3791 49.7185 92.1399 49.2133C93.1642 48.9262 94.1425 48.4669 95.1783 48.1799C95.9839 47.9502 96.8241 47.9043 97.6527 47.8928Z" fill="black"/>
<path opacity="0.2" d="M103.626 49.1099V49.0295C103.154 49.1099 102.682 49.1444 102.187 49.1329C101.336 49.0525 100.484 48.9492 99.6322 48.8458C98.7921 48.731 97.9519 48.6966 97.1118 48.731C96.732 48.7425 96.3637 48.7884 95.9954 48.8343C95.7998 48.8573 95.5811 48.8688 95.374 48.9262C95.2589 48.9607 95.1323 49.0066 95.0287 49.0755C95.3049 48.9377 95.6156 48.9721 95.9149 48.9607C96.2947 48.9607 96.6745 48.9492 97.0543 48.9607C97.9059 48.9836 98.7461 49.0525 99.5862 49.1673C100.449 49.2822 101.301 49.3396 102.176 49.3511C102.671 49.3166 103.142 49.2362 103.614 49.1099H103.626Z" fill="black"/>
<path opacity="0.2" d="M79.5493 48.1798C78.3984 47.9731 77.2245 47.9501 76.0736 48.1109V48.3061C76.534 48.329 76.9943 48.329 77.4432 48.3061C78.1452 48.3061 78.8588 48.2716 79.5493 48.1683V48.1798Z" fill="black"/>
<path opacity="0.2" d="M85.695 48.9838C85.4418 48.823 85.1426 48.7886 84.8549 48.7886C84.7973 48.7886 84.7398 48.7886 84.6707 48.7886C81.805 48.8919 78.9393 49.3282 76.0736 49.1445V49.2364C76.8102 49.3397 77.5352 49.3971 78.2833 49.4086C79.791 49.4316 81.2871 49.3397 82.7948 49.2364C83.1746 49.2134 83.5659 49.179 83.9457 49.156C84.337 49.133 84.7283 49.0756 85.1196 49.1101C85.3613 49.133 85.7756 49.2479 85.8101 49.5579C85.8446 49.8335 85.2117 50.0516 85.0275 50.109C84.7053 50.2009 84.36 50.2124 84.0262 50.132C83.8651 50.0976 83.727 50.0401 83.5774 49.9713C83.3817 49.8909 83.6695 49.7416 83.7385 49.7072C84.0262 49.5579 84.314 49.5349 84.6247 49.5809C84.7283 49.5923 84.8779 49.6153 84.9239 49.7416C84.9585 49.822 84.9124 49.8794 84.8434 49.9138C84.9239 49.8794 84.9815 49.8105 84.9239 49.6957C84.7858 49.4431 84.2909 49.4545 84.0608 49.489C83.8766 49.512 83.3127 49.6383 83.3702 49.9368C83.4048 50.2009 83.9802 50.3157 84.1643 50.3502C84.3025 50.3731 84.4406 50.3846 84.5787 50.3846C84.7858 50.3846 84.993 50.3502 85.1886 50.2928C85.4648 50.2124 85.9367 50.0287 86.0518 49.7072C86.1554 49.3971 85.9252 49.1101 85.695 48.9723V48.9838Z" fill="black"/>
<path opacity="0.2" d="M84.6362 49.9595C84.6362 49.9595 84.6823 49.9595 84.7053 49.9595C84.7283 49.9595 84.7628 49.9595 84.7858 49.9365C84.7398 49.948 84.6823 49.9595 84.6362 49.9595Z" fill="black"/>
<path opacity="0.2" d="M88.6989 50.1662C88.2616 50.1662 87.8127 50.1432 87.3754 50.2121C86.7769 50.304 86.213 50.4647 85.6375 50.6255C85.2808 50.7288 84.9355 50.7748 84.6017 50.7748C84.3485 50.7748 84.0953 50.7518 83.8306 50.7059C83.1976 50.591 82.5647 50.4418 81.9317 50.327C80.7117 50.0973 79.5263 49.8102 78.2834 49.948C77.6964 50.0169 77.1095 50.1088 76.534 50.1662C76.3844 50.1777 76.2463 50.1892 76.0967 50.1892V50.2695C76.2233 50.2695 76.3384 50.2695 76.465 50.2695C77.0519 50.2466 77.6504 50.2236 78.2373 50.1662C79.5033 50.0399 80.7463 50.3958 81.9777 50.6485C82.6107 50.7748 83.2552 50.9125 83.8997 51.0044C84.5327 51.0848 85.1196 51.0274 85.7296 50.8207C86.2935 50.6255 86.846 50.4303 87.4214 50.304C87.8472 50.2006 88.2846 50.1777 88.7219 50.1432L88.6989 50.1662Z" fill="black"/>
<path opacity="0.2" d="M81.759 51.3375C80.6887 51.1538 79.6414 51.0964 78.5595 51.1078C77.7194 51.1767 76.8907 51.2916 76.0736 51.4753V51.6131C76.9138 51.5786 77.7424 51.5097 78.571 51.4408C79.6298 51.4408 80.7002 51.4064 81.759 51.3375Z" fill="black"/>
<path opacity="0.2" d="M92.5428 51.751C92.0249 51.9347 91.5185 52.0725 90.9776 52.1069C90.2295 52.1643 89.4929 52.0954 88.7448 52.061C87.2372 52.0036 85.741 51.9462 84.2334 51.9347C82.7487 51.9347 81.2526 51.9577 79.7679 52.0036C78.5365 52.038 77.305 52.1184 76.0851 52.371V52.4284C77.0288 52.3136 77.9725 52.2562 78.9393 52.2562C80.3549 52.2562 81.759 52.2792 83.1745 52.2792C84.6937 52.2792 86.2244 52.3021 87.7551 52.3021C89.1016 52.3021 90.5632 52.4744 91.8753 52.038C92.1054 51.9577 92.3356 51.8658 92.5543 51.7625L92.5428 51.751Z" fill="black"/>
<path opacity="0.2" d="M103.626 52.1985V52.0493C103.142 52.0493 102.648 52.0148 102.153 51.9804C100.68 51.8541 99.218 51.567 97.7678 51.2914C96.9852 51.1422 96.2026 50.9929 95.4085 50.8781C94.8676 50.7977 94.3037 50.6944 93.7397 50.6714C93.5326 50.6714 93.3254 50.6714 93.1298 50.6714C91.6681 50.7632 90.2295 51.1077 88.7679 51.2111C88.1809 51.257 87.594 51.2799 87.0186 51.3144C88.1925 51.3144 89.3433 51.3029 90.5173 51.2111C91.2538 51.1536 91.9904 51.0273 92.727 50.9699C93.4635 50.947 94.1771 51.0044 94.9136 51.1192C97.8139 51.567 100.691 52.2674 103.637 52.1871L103.626 52.1985Z" fill="black"/>
<path opacity="0.2" d="M98.9762 52.8648C98.6885 52.7845 98.3893 52.7041 98.1016 52.6237C97.3074 52.4055 96.5133 52.2218 95.6962 52.1185C95.0632 52.0381 94.4417 52.0381 93.7972 52.0611C94.4187 52.1414 95.0402 52.2103 95.6617 52.3481C96.3407 52.4974 97.0312 52.6811 97.7103 52.8648H98.9762Z" fill="black"/>
<path opacity="0.2" d="M103.626 50.4189V50.2697C103.096 50.3386 102.579 50.373 102.038 50.396C100.691 50.4419 99.3446 50.3615 97.998 50.2582C96.6975 50.1548 95.3855 50.0745 94.0735 50.063C93.0377 50.063 92.0249 50.1548 90.9891 50.2697C91.9098 50.2582 92.8306 50.2352 93.7513 50.2697C93.8548 50.2697 93.9584 50.2697 94.062 50.2812C95.3625 50.3615 96.663 50.4764 97.975 50.5797C99.3216 50.683 100.691 50.7404 102.038 50.6256C102.567 50.5797 103.096 50.5108 103.614 50.4075L103.626 50.4189Z" fill="black"/>
<path d="M76.2347 45.7227H48.6825V74.2793H76.2347V45.7227Z" fill="#CFAD86"/>
<path opacity="0.2" d="M59.8576 73.5331C57.3717 73.0968 54.8282 73.3379 52.3193 73.3494C51.1109 73.3494 49.9024 73.3494 48.6825 73.3149V73.1886C49.8909 73.1197 51.0994 73.0738 52.3078 73.0393C54.8282 72.9704 57.3947 72.8327 59.8461 73.5331H59.8576Z" fill="black"/>
<path opacity="0.2" d="M68.6734 72.8211C67.6606 72.867 66.6823 73.1541 65.6695 73.2574C64.3806 73.3722 63.08 73.2344 61.8141 73.0163C60.5481 72.7981 59.2936 72.5225 58.0277 72.3618C57.0149 72.2355 56.0251 72.2125 55.0123 72.2929C55.9676 72.1206 56.9113 72.0632 57.878 72.1207C59.1785 72.201 60.479 72.4536 61.768 72.6718C63.0225 72.89 64.3 73.0737 65.5775 73.0278C66.6248 72.9933 67.6376 72.7637 68.6849 72.8211H68.6734Z" fill="black"/>
<path opacity="0.2" d="M76.2462 72.8324V72.9931C75.9355 73.0161 75.6132 73.0275 75.3025 73.0275C73.9444 73.0275 72.5864 72.8898 71.2629 72.6486C70.4227 72.4994 69.6056 72.2812 68.777 72.1549C68.2015 72.063 67.6261 72.0171 67.0391 72.063C65.8652 72.1434 64.7489 72.3731 63.575 72.2008C64.7489 72.2582 65.8537 71.9712 67.0046 71.8219C68.4317 71.6382 69.8243 72.0286 71.2168 72.2927C72.5404 72.5453 73.8754 72.7175 75.2104 72.7864C75.5557 72.8094 75.901 72.8094 76.2462 72.8094V72.8324Z" fill="black"/>
<path opacity="0.2" d="M76.2463 73.7739V73.9691C75.268 73.7624 74.2783 73.705 73.2655 73.7395C71.8384 73.7739 70.4458 73.7624 69.0417 73.5328C70.4573 73.5557 71.8499 73.4524 73.2655 73.418C74.2898 73.3835 75.2911 73.4868 76.2578 73.7969L76.2463 73.7739Z" fill="black"/>
<path opacity="0.2" d="M63.667 71.271C63.667 71.9599 62.4471 72.0173 62.0213 72.0173C61.3077 72.0173 60.6172 71.8107 59.9152 71.6729C59.1556 71.5121 58.442 71.4662 57.6709 71.5121C57.0379 71.5466 56.4049 71.6614 55.772 71.7303C55.6569 71.7418 55.5418 71.7647 55.4267 71.7647C53.9536 71.914 52.4804 72.0173 50.9843 71.9599C50.2132 71.937 49.4421 71.8796 48.6825 71.7992V71.7418C49.6032 71.7762 50.5239 71.7877 51.4446 71.7877C52.9293 71.7877 54.4254 71.6155 55.8871 71.3973C56.6466 71.2825 57.3947 71.1906 58.1543 71.1447C58.9024 71.1102 59.6389 71.271 60.364 71.4432C61.1006 71.6155 61.8602 71.8221 62.6197 71.7073C62.8384 71.6729 63.3908 71.604 63.4484 71.3169C63.5174 70.9954 63.0686 70.6739 62.8384 70.5591C62.2169 70.2491 61.4458 70.3983 60.9855 70.9495C60.9625 70.961 61.1696 71.0643 61.1696 71.0643C61.3307 71.1332 61.4919 71.1562 61.6645 71.1791C61.9407 71.1906 62.1939 71.1102 62.4471 70.9954C62.1939 71.1332 61.9407 71.2251 61.6645 71.2251C61.4919 71.2251 61.3307 71.2021 61.1581 71.1447C61.0891 71.1217 60.8704 71.0643 60.8244 70.9954C60.8013 70.961 61.066 70.6969 61.1006 70.6624C61.2042 70.5591 61.3307 70.4902 61.4573 70.4213C61.7451 70.2835 62.0673 70.2261 62.3781 70.2491C62.8614 70.295 63.644 70.6624 63.644 71.2825L63.667 71.271Z" fill="black"/>
<path opacity="0.2" d="M71.6542 71.271C71.0788 71.3054 70.5494 71.2021 69.9854 71.0987C69.2949 70.9839 68.6159 70.9265 67.9138 70.915C66.786 70.915 65.6696 71.0069 64.5417 71.0643C65.6466 70.7772 66.786 70.582 67.9138 70.582C68.6044 70.582 69.2949 70.6624 69.9739 70.8461C70.5379 70.9954 71.0673 71.1906 71.6542 71.2595V71.271Z" fill="black"/>
<path opacity="0.2" d="M76.2462 69.8701V70.1227C75.6017 70.3064 74.9803 70.582 74.3242 70.7657C73.5647 70.9839 72.759 71.0758 71.9879 70.8002C71.5161 70.6394 71.0557 70.4672 70.5839 70.295C71.0672 70.3753 71.5506 70.5131 72.034 70.6165C72.8051 70.8117 73.5762 70.6624 74.3242 70.4328C74.9687 70.2261 75.6017 69.9964 76.2462 69.8701Z" fill="black"/>
<path opacity="0.2" d="M76.2462 71.6038V71.9253C75.314 71.9597 74.3703 71.8908 73.4611 71.7301C74.3818 71.5923 75.314 71.5464 76.2462 71.6038Z" fill="black"/>
<path opacity="0.2" d="M58.7182 70.5133C57.7975 70.3066 56.8998 70.3296 55.9791 70.5133C54.8397 70.7315 53.7349 71.0874 52.584 71.1448C51.4676 71.2367 50.3628 70.8578 49.2924 70.5707C49.0968 70.5133 48.8896 70.4674 48.694 70.4329V70.2377C48.8781 70.2607 49.0738 70.2836 49.2579 70.3296C50.3397 70.5477 51.4561 70.9152 52.5725 70.8233C53.7118 70.7659 54.8167 70.4444 55.9446 70.2951C56.5545 70.2148 57.1415 70.2033 57.7284 70.2951C58.0622 70.3411 58.3844 70.4214 58.7182 70.5363V70.5133Z" fill="black"/>
<path opacity="0.2" d="M53.9651 69.5714C53.896 69.8814 53.6198 70.0307 53.3551 70.0766C52.2042 70.3063 50.9958 70.0192 49.8679 69.7666C49.4766 69.6747 49.0853 69.5944 48.6825 69.5255V69.3418C48.8321 69.3532 48.9817 69.3762 49.1313 69.3877C50.1096 69.5255 51.0763 69.7551 52.0661 69.801C52.3193 69.801 52.5725 69.801 52.8372 69.801C53.0559 69.7896 53.2745 69.801 53.4817 69.7092C53.8155 69.5599 53.7234 69.0891 53.4357 68.9399C53.263 68.8365 53.0559 68.8021 52.8487 68.8021C52.6646 68.8021 52.4114 68.7676 52.2502 68.871C51.9971 69.0432 52.2618 69.204 52.4229 69.2499C52.5725 69.2958 52.8602 69.3762 53.0098 69.2958C52.9983 69.1695 52.9178 69.0891 52.8257 69.0317C52.8142 69.0317 52.6416 68.9743 52.538 68.9743C52.5955 68.9628 52.6876 68.9514 52.6991 68.9514C52.8372 68.9628 52.9178 69.0432 53.0213 69.1236C53.0789 69.2269 53.171 69.3303 53.0444 69.3762C52.9408 69.3992 52.8372 69.4221 52.7336 69.4221C52.5265 69.4221 52.1697 69.3992 52.0431 69.204C51.8935 68.9743 52.0891 68.6987 52.2963 68.6298C52.7106 68.4806 53.4011 68.4921 53.7349 68.825C53.919 69.0088 54.0341 69.3073 53.9766 69.5829L53.9651 69.5714Z" fill="black"/>
<path opacity="0.2" d="M52.4805 68.9976C52.4805 68.9976 52.492 68.9746 52.5265 68.9746C52.5035 68.9746 52.4805 68.9861 52.4805 68.9976Z" fill="black"/>
<path opacity="0.2" d="M51.341 68.8253C51.341 68.8253 51.1454 68.7334 51.1224 68.7334C50.9613 68.7219 50.7886 68.7219 50.6275 68.7219C50.2362 68.7219 49.8449 68.7219 49.4536 68.7219C49.1889 68.7104 48.9357 68.6875 48.6825 68.6301V68.3545C48.9127 68.366 49.1429 68.3775 49.373 68.3889C49.7528 68.4119 50.1211 68.4234 50.5009 68.4923C50.7311 68.5267 51.226 68.5727 51.341 68.8368V68.8253Z" fill="black"/>
<path opacity="0.2" d="M60.5366 68.3772C59.6159 67.9983 58.6952 67.9064 57.717 67.9179C56.5315 67.9409 55.3346 67.9868 54.1377 67.9983C52.9523 67.9983 51.7669 67.9983 50.5815 67.9753C50.0866 67.9753 49.5802 67.9409 49.0853 67.8605C48.9472 67.8375 48.8206 67.8146 48.6825 67.7801V67.6883C49.3385 67.7572 49.9945 67.7801 50.662 67.7571C51.8474 67.7112 53.0328 67.6883 54.2298 67.6768C55.4267 67.6653 56.6121 67.6538 57.7975 67.6997C58.7643 67.7457 59.6735 67.9179 60.5366 68.3887V68.3772Z" fill="black"/>
<path opacity="0.2" d="M69.1568 69.514C68.0519 69.7666 66.9701 69.7551 65.8537 69.6288C64.5072 69.4795 63.1606 69.204 61.8026 69.2843C61.1466 69.3188 60.4791 69.4681 59.8346 69.5599C59.1556 69.6633 58.488 69.7092 57.809 69.6403C56.7847 69.5255 55.841 69.181 54.9203 68.6758C55.8525 69.0777 56.7962 69.3647 57.809 69.4221C59.2016 69.5025 60.5021 68.9973 61.8832 68.9399C63.1952 68.8825 64.4957 69.158 65.7962 69.3762C66.924 69.5599 68.0289 69.6518 69.1683 69.5025L69.1568 69.514Z" fill="black"/>
<path opacity="0.2" d="M65.6236 67.1489H67.1542C66.5903 67.2178 66.0264 67.3326 65.4624 67.436C65.1287 67.5049 64.7949 67.5623 64.4612 67.6197C63.598 67.7805 62.7348 67.9412 61.8717 68.102L61.5955 68.1479C62.4701 67.9297 63.3333 67.7001 64.208 67.4934C64.6798 67.3786 65.1402 67.2523 65.6121 67.1489H65.6236Z" fill="black"/>
<path opacity="0.2" d="M76.2462 67.7116V67.8494C75.6823 67.9297 75.1298 67.9527 74.5544 67.9182C73.0352 67.8494 71.5506 67.4589 70.0544 67.2293C69.8588 67.1949 69.6516 67.1719 69.4445 67.1489H71.401C73.0122 67.4704 74.6235 67.8723 76.2462 67.7116Z" fill="black"/>
<path opacity="0.2" d="M76.2463 68.7562V68.9629C74.8537 69.2041 73.4496 69.3533 72.034 69.3189C71.0903 69.2959 70.1696 69.1466 69.2604 68.9514C68.8 68.8596 68.3397 68.7562 67.8678 68.6529C66.7745 68.4118 65.7041 68.2625 64.5878 68.274C65.7156 68.1592 66.7975 68.2395 67.9023 68.4233C69.3524 68.6644 70.7795 68.9629 72.2412 68.9859C73.5762 69.0203 74.9112 68.917 76.2463 68.7562Z" fill="black"/>
<path opacity="0.2" d="M72.1836 68.0789C71.0902 68.1707 69.9508 68.0215 68.915 67.6425C70.0084 67.5507 71.1478 67.6999 72.1836 68.0789Z" fill="black"/>
<path d="M76.2347 52.876H48.6825V60.018H76.2347V52.876Z" fill="#CFAD86"/>
<path opacity="0.2" d="M65.0712 53.6226C67.5571 54.0589 70.1005 53.8178 72.6095 53.8063C73.8179 53.8063 75.0263 53.8063 76.2463 53.8407V53.967C75.0379 54.0359 73.8294 54.0819 72.621 54.1163C70.1005 54.1852 67.5341 54.323 65.0827 53.6226H65.0712Z" fill="black"/>
<path opacity="0.2" d="M56.2554 54.3342C57.2682 54.2883 58.2464 54.0012 59.2592 53.8979C60.5482 53.7831 61.8487 53.9209 63.1147 54.139C64.3807 54.3572 65.6351 54.6328 66.9011 54.7935C67.9139 54.9198 68.9037 54.9428 69.9164 54.8624C68.9612 55.0346 68.0175 55.0921 67.0507 55.0346C65.7502 54.9543 64.4497 54.7017 63.1607 54.4835C61.9063 54.2653 60.6288 54.0816 59.3513 54.1275C58.304 54.162 57.2912 54.3916 56.2439 54.3342H56.2554Z" fill="black"/>
<path opacity="0.2" d="M48.6825 54.3226V54.1619C48.9932 54.1389 49.3155 54.1274 49.6262 54.1274C50.9843 54.1274 52.3423 54.2652 53.6658 54.5064C54.506 54.6556 55.3231 54.8738 56.1518 55.0001C56.7272 55.092 57.3026 55.1379 57.8896 55.092C59.0635 55.0116 60.1799 54.7819 61.3538 54.9542C60.1799 54.8968 59.075 55.1838 57.9241 55.3331C56.497 55.5168 55.1044 55.1264 53.7119 54.8623C52.3884 54.6097 51.0533 54.4375 49.7183 54.3686C49.373 54.3456 49.0278 54.3456 48.6825 54.3456V54.3226Z" fill="black"/>
<path opacity="0.2" d="M48.6825 53.3812V53.186C49.6608 53.3927 50.6505 53.4501 51.6633 53.4157C53.0904 53.3812 54.483 53.3927 55.8871 53.6224C54.4715 53.5994 53.0789 53.7027 51.6633 53.7372C50.639 53.7716 49.6378 53.6683 48.671 53.3583L48.6825 53.3812Z" fill="black"/>
<path opacity="0.2" d="M61.2617 55.8845C61.2617 55.1956 62.4817 55.1382 62.9075 55.1382C63.621 55.1382 64.3116 55.3449 65.0136 55.4827C65.7732 55.6434 66.4867 55.6893 67.2578 55.6434C67.8908 55.609 68.5238 55.4941 69.1568 55.4252C69.2719 55.4138 69.387 55.3908 69.5021 55.3908C70.9752 55.2415 72.4483 55.1382 73.9445 55.1956C74.7156 55.2186 75.4867 55.276 76.2463 55.3563V55.4138C75.3256 55.3793 74.4049 55.3678 73.4841 55.3678C71.9995 55.3678 70.5033 55.5401 69.0417 55.7582C68.2821 55.8731 67.5341 55.9649 66.7745 56.0108C66.0264 56.0453 65.2898 55.8845 64.5648 55.7123C63.8282 55.5401 63.0686 55.3334 62.309 55.4482C62.0904 55.4827 61.5379 55.5515 61.4804 55.8386C61.4113 56.1601 61.8602 56.4816 62.0904 56.5964C62.7118 56.9065 63.4829 56.7572 63.9433 56.206C63.9663 56.1946 63.7591 56.0912 63.7591 56.0912C63.598 56.0223 63.4369 55.9994 63.2643 55.9764C62.9881 55.9649 62.7349 56.0453 62.4817 56.1601C62.7349 56.0223 62.9881 55.9305 63.2643 55.9305C63.4369 55.9305 63.598 55.9534 63.7707 56.0108C63.8397 56.0338 64.0584 56.0912 64.1044 56.1601C64.1274 56.1946 63.8627 56.4587 63.8282 56.4931C63.7246 56.5964 63.598 56.6653 63.4714 56.7342C63.1837 56.872 62.8615 56.9294 62.5507 56.9065C62.0673 56.8605 61.2847 56.4931 61.2847 55.8731L61.2617 55.8845Z" fill="black"/>
<path opacity="0.2" d="M53.2745 55.8842C53.85 55.8498 54.3794 55.9531 54.9433 56.0564C55.6339 56.1713 56.3129 56.2287 57.0149 56.2402C58.1428 56.2402 59.2592 56.1483 60.387 56.0909C59.2822 56.3779 58.1428 56.5731 57.0149 56.5731C56.3244 56.5731 55.6339 56.4928 54.9548 56.309C54.3909 56.1598 53.8615 55.9646 53.2745 55.8957V55.8842Z" fill="black"/>
<path opacity="0.2" d="M48.6825 57.285V57.0324C49.327 56.8487 49.9485 56.5731 50.6045 56.3894C51.3641 56.1713 52.1697 56.0794 52.9408 56.355C53.4126 56.5157 53.873 56.688 54.3449 56.8602C53.8615 56.7798 53.3781 56.642 52.8947 56.5387C52.1236 56.3435 51.3526 56.4928 50.6045 56.7224C49.96 56.9291 49.327 57.1587 48.6825 57.285Z" fill="black"/>
<path opacity="0.2" d="M48.6825 55.5514V55.2299C49.6147 55.1954 50.5584 55.2643 51.4676 55.4251C50.5469 55.5628 49.6147 55.6088 48.6825 55.5514Z" fill="black"/>
<path opacity="0.2" d="M66.2106 56.6421C67.1313 56.8488 68.029 56.8258 68.9497 56.6421C70.0891 56.424 71.1939 56.068 72.3448 56.0106C73.4612 55.9187 74.566 56.2977 75.6363 56.5847C75.832 56.6421 76.0391 56.6881 76.2348 56.7225V56.9177C76.0507 56.8947 75.855 56.8718 75.6709 56.8258C74.589 56.6077 73.4727 56.2402 72.3563 56.3321C71.2169 56.3895 70.1121 56.711 68.9842 56.8603C68.3742 56.9407 67.7873 56.9522 67.2003 56.8603C66.8666 56.8144 66.5443 56.734 66.2106 56.6192V56.6421Z" fill="black"/>
<path opacity="0.2" d="M70.9637 57.5839C71.0327 57.2739 71.3089 57.1246 71.5736 57.0787C72.7245 56.849 73.933 57.1361 75.0608 57.3887C75.4521 57.4805 75.8434 57.5609 76.2462 57.6298V57.8135C76.0966 57.802 75.947 57.7791 75.7974 57.7676C74.8191 57.6298 73.8524 57.4002 72.8626 57.3542C72.6094 57.3542 72.3562 57.3542 72.0915 57.3542C71.8729 57.3657 71.6542 57.3542 71.447 57.4461C71.1133 57.5954 71.2054 58.0661 71.4931 58.2154C71.6657 58.3188 71.8729 58.3532 72.08 58.3532C72.2642 58.3532 72.5174 58.3876 72.6785 58.2843C72.9317 58.1121 72.667 57.9513 72.5059 57.9054C72.3562 57.8595 72.0685 57.7791 71.9189 57.8595C71.9304 57.9858 72.011 58.0661 72.103 58.1236C72.1146 58.1236 72.2872 58.181 72.3908 58.181C72.3332 58.1924 72.2412 58.2039 72.2296 58.2039C72.0915 58.1924 72.011 58.1121 71.9074 58.0317C71.8499 57.9284 71.7578 57.825 71.8844 57.7791C71.988 57.7561 72.0915 57.7332 72.1951 57.7332C72.4023 57.7332 72.7591 57.7561 72.8857 57.9513C73.0353 58.181 72.8396 58.4565 72.6325 58.5254C72.2181 58.6747 71.5276 58.6632 71.1938 58.3302C71.0097 58.1465 70.8946 57.848 70.9522 57.5724L70.9637 57.5839Z" fill="black"/>
<path opacity="0.2" d="M72.4484 58.1694C72.4484 58.1694 72.4369 58.1924 72.4023 58.1924C72.4254 58.1924 72.4484 58.1809 72.4484 58.1694Z" fill="black"/>
<path opacity="0.2" d="M73.5878 58.3303C73.5878 58.3303 73.7834 58.4222 73.8064 58.4222C73.9676 58.4337 74.1402 58.4337 74.3013 58.4337C74.6926 58.4337 75.0839 58.4337 75.4752 58.4337C75.7399 58.4452 75.9931 58.4681 76.2463 58.5255V58.8011C76.0161 58.7896 75.786 58.7781 75.5558 58.7667C75.176 58.7437 74.8077 58.7322 74.4279 58.6633C74.1977 58.6289 73.7029 58.5829 73.5878 58.3188V58.3303Z" fill="black"/>
<path opacity="0.2" d="M64.3921 58.7781C65.3128 59.157 66.2335 59.2489 67.2118 59.2374C68.3972 59.2144 69.5941 59.1685 70.791 59.157C71.9764 59.157 73.1618 59.157 74.3473 59.18C74.8421 59.18 75.3485 59.2144 75.8434 59.2948C75.9815 59.3178 76.1081 59.3407 76.2462 59.3752V59.467C75.5902 59.3981 74.9342 59.3752 74.2667 59.3981C73.0813 59.4441 71.8959 59.467 70.699 59.4785C69.502 59.49 68.3166 59.5015 67.1312 59.4555C66.1645 59.4096 65.2553 59.2374 64.3921 58.7666V58.7781Z" fill="black"/>
<path opacity="0.2" d="M55.7835 57.6412C56.8883 57.3886 57.9702 57.4 59.0865 57.5263C60.4331 57.6756 61.7796 57.9512 63.1377 57.8708C63.7937 57.8364 64.4612 57.6871 65.1057 57.5952C65.7847 57.4919 66.4522 57.446 67.1312 57.5149C68.1555 57.6297 69.0993 57.9742 70.02 58.4794C69.0877 58.0775 68.144 57.7904 67.1312 57.733C65.7387 57.6526 64.4382 58.1579 63.0571 58.2153C61.7451 58.2727 60.4446 57.9971 59.1441 57.779C58.0162 57.5952 56.9114 57.5034 55.772 57.6526L55.7835 57.6412Z" fill="black"/>
<path opacity="0.2" d="M59.3052 60.0063H57.7745C58.3385 59.9374 58.9024 59.8226 59.4663 59.7192C59.8001 59.6503 60.1339 59.5929 60.4676 59.5355C61.3308 59.3748 62.1939 59.214 63.0571 59.0533L63.3333 59.0073C62.4586 59.2255 61.5955 59.4551 60.7208 59.6618C60.2489 59.7766 59.7886 59.9029 59.3167 60.0063H59.3052Z" fill="black"/>
<path opacity="0.2" d="M48.6825 59.4439V59.3061C49.2464 59.2257 49.7989 59.2027 50.3743 59.2372C51.8935 59.3061 53.3781 59.6965 54.8743 59.9261C55.0699 59.9606 55.2771 59.9835 55.4842 60.0065H53.5277C51.9165 59.685 50.3052 59.2831 48.6825 59.4439Z" fill="black"/>
<path opacity="0.2" d="M48.6825 58.3991V58.1924C50.0751 57.9513 51.4792 57.802 52.8947 57.8365C53.8385 57.8594 54.7592 58.0087 55.6684 58.2039C56.1287 58.2958 56.5891 58.3991 57.061 58.5024C58.1543 58.7436 59.2246 58.8928 60.341 58.8814C59.2131 58.9962 58.1313 58.9158 57.0264 58.7321C55.5763 58.491 54.1492 58.1924 52.6876 58.1695C51.3526 58.135 50.0175 58.2383 48.6825 58.3991Z" fill="black"/>
<path opacity="0.2" d="M52.7451 59.0766C53.8385 58.9848 54.9778 59.134 56.0136 59.5129C54.9203 59.6048 53.7809 59.4555 52.7451 59.0766Z" fill="black"/>
<path d="M76.2347 60.0068H48.6825V67.1489H76.2347V60.0068Z" fill="#CFAD86"/>
<path opacity="0.2" d="M55.1505 65.7825C53.8615 65.9892 52.561 66.1155 51.2605 66.104C50.4664 66.104 49.6723 66.0466 48.8781 65.9662C48.8091 65.9662 48.7515 65.9547 48.6825 65.9433V65.7251C48.6825 65.7251 48.7976 65.7251 48.8436 65.7251C49.6492 65.7251 50.4549 65.7481 51.2605 65.7595C52.561 65.7825 53.85 65.7481 55.1505 65.771V65.7825Z" fill="black"/>
<path opacity="0.2" d="M67.3844 66.6668C66.268 66.6897 65.1747 66.5405 64.0698 66.4486C62.6082 66.3338 61.1466 66.2878 59.685 66.3223C57.4407 66.3682 55.1965 66.5405 52.9523 66.6783C55.1159 66.3338 57.3141 66.0697 59.5008 66.0008C60.974 65.9549 62.4586 66.0008 63.9202 66.196C65.0826 66.3453 66.222 66.5864 67.3844 66.6668Z" fill="black"/>
<path opacity="0.2" d="M76.2463 64.9903V65.0132C75.2335 65.0821 74.2438 65.2084 73.2425 65.4036C71.8614 65.6448 70.4919 65.9203 69.0993 65.9433C67.5456 65.9777 66.0034 65.6562 64.4842 65.3692C62.9881 65.0821 61.4689 64.9443 59.9497 64.9328C58.6147 64.9214 57.2797 64.9329 55.9447 64.8984C54.8858 64.864 53.85 64.7491 52.8027 64.5884C53.9766 64.7032 55.139 64.7491 56.3129 64.7491C56.7042 64.7491 57.0955 64.7377 57.4984 64.7147C58.5226 64.6802 59.5469 64.6458 60.5712 64.6458C62.1364 64.6688 63.6671 64.8754 65.2093 65.1625C66.5098 65.4036 67.7988 65.6333 69.1223 65.6448C69.318 65.6448 69.5251 65.6448 69.7323 65.6448C71.0328 65.5873 72.3218 65.3577 73.6108 65.1855C74.497 65.0706 75.3831 65.0017 76.2693 64.9903H76.2463Z" fill="black"/>
<path opacity="0.2" d="M74.9457 65.8397C75.0263 65.9086 74.5889 66.1267 74.5659 66.1382C74.3703 66.1841 74.0135 66.1956 73.9674 65.92C73.8754 65.3344 74.8767 65.4148 75.1644 65.4722C75.3715 65.5182 75.6132 65.61 75.7628 65.7937C75.9125 66.0234 75.8549 66.3219 75.6593 66.4942C75.2795 66.8386 74.6004 66.8386 74.1401 66.8616C73.0122 66.896 71.8613 66.6894 70.745 66.5975C70.0199 66.5401 69.3064 66.5171 68.5813 66.4712C69.2258 66.4253 69.8703 66.3793 70.5148 66.3793C71.5506 66.3793 72.5634 66.4827 73.5992 66.5171C74.0941 66.5401 74.5774 66.5171 75.0723 66.4253C75.2449 66.3908 75.4751 66.3449 75.5787 66.1841C75.7053 65.9774 75.4866 65.8282 75.337 65.7708C75.0838 65.6674 74.2782 65.4263 74.1286 65.8167C74.025 66.0693 74.4508 66.0923 74.5774 66.0808C74.7386 66.0578 74.8882 66.0004 74.9687 65.8397H74.9457Z" fill="black"/>
<path opacity="0.2" d="M70.2616 64.9902C69.479 65.0591 68.6964 65.0935 67.9138 64.9557C66.8665 64.7835 65.8767 64.3472 64.8524 64.0372C63.08 63.486 61.2616 63.4286 59.4432 63.6582C61.2041 63.2219 62.988 63.153 64.7488 63.6582C65.7731 63.9453 66.7514 64.4046 67.7872 64.6917C68.5928 64.9213 69.4329 64.9672 70.2616 64.9787V64.9902Z" fill="black"/>
<path opacity="0.2" d="M76.2463 63.7616V63.842C75.7744 63.7616 75.3026 63.7272 74.8077 63.7387C73.956 63.819 73.1044 63.9224 72.2527 64.0257C71.4126 64.1406 70.5724 64.175 69.7323 64.1406C69.3525 64.1291 68.9842 64.0831 68.6159 64.0372C68.4203 64.0142 68.2016 64.0028 67.9944 63.9454C67.8794 63.9109 67.7527 63.865 67.6492 63.7961C67.9254 63.9339 68.2361 63.8994 68.5354 63.9109C68.9151 63.9109 69.2949 63.9224 69.6747 63.9109C70.5264 63.8879 71.3665 63.819 72.2067 63.7042C73.0699 63.5894 73.9215 63.532 74.7962 63.5205C75.2911 63.555 75.7629 63.6353 76.2348 63.7616H76.2463Z" fill="black"/>
<path opacity="0.2" d="M52.1582 64.7031C51.0073 64.9098 49.8334 64.9327 48.6825 64.772V64.5768C49.1429 64.5538 49.6032 64.5538 50.0521 64.5768C50.7541 64.5768 51.4676 64.6112 52.1582 64.7146V64.7031Z" fill="black"/>
<path opacity="0.2" d="M58.3039 63.8877C58.0507 64.0484 57.7515 64.0829 57.4638 64.0829C57.4062 64.0829 57.3487 64.0829 57.2796 64.0829C54.4139 63.9795 51.5482 63.5432 48.6825 63.7269V63.6351C49.4191 63.5317 50.1441 63.4743 50.8922 63.4628C52.3999 63.4399 53.896 63.5317 55.4037 63.6351C55.7835 63.658 56.1748 63.6925 56.5546 63.7154C56.9459 63.7384 57.3372 63.7958 57.7285 63.7614C57.9702 63.7384 58.3845 63.6236 58.419 63.3135C58.4535 63.038 57.8205 62.8198 57.6364 62.7624C57.3142 62.6705 56.9689 62.6591 56.6351 62.7394C56.474 62.7739 56.3359 62.8313 56.1863 62.9002C55.9906 62.9806 56.2784 63.1298 56.3474 63.1643C56.6351 63.3135 56.9228 63.3365 57.2336 63.2906C57.3372 63.2791 57.4868 63.2561 57.5328 63.1298C57.5673 63.0495 57.5213 62.992 57.4523 62.9576C57.5328 62.992 57.5904 63.0609 57.5328 63.1758C57.3947 63.4284 56.8998 63.4169 56.6697 63.3824C56.4855 63.3595 55.9216 63.2332 55.9791 62.9346C56.0136 62.6705 56.5891 62.5557 56.7732 62.5213C56.9113 62.4983 57.0494 62.4868 57.1876 62.4868C57.3947 62.4868 57.6019 62.5213 57.7975 62.5787C58.0737 62.6591 58.5456 62.8428 58.6607 63.1643C58.7643 63.4743 58.5341 63.7614 58.3039 63.8991V63.8877Z" fill="black"/>
<path opacity="0.2" d="M57.2451 62.9121C57.2451 62.9121 57.2911 62.9121 57.3142 62.9121C57.3372 62.9121 57.3717 62.9121 57.3947 62.9351C57.3487 62.9236 57.2912 62.9121 57.2451 62.9121Z" fill="black"/>
<path opacity="0.2" d="M61.3078 62.7051C60.8704 62.7051 60.4216 62.7281 59.9843 62.6592C59.3858 62.5673 58.8219 62.4066 58.2464 62.2458C57.8896 62.1425 57.5444 62.0966 57.2106 62.0966C56.9574 62.0966 56.7042 62.1195 56.4395 62.1655C55.8065 62.2803 55.1736 62.4296 54.5406 62.5444C53.3206 62.774 52.1352 63.0611 50.8923 62.9233C50.3053 62.8544 49.7183 62.7625 49.1429 62.7051C48.9933 62.6936 48.8552 62.6822 48.7056 62.6822V62.6018C48.8322 62.6018 48.9473 62.6018 49.0739 62.6018C49.6608 62.6248 50.2593 62.6477 50.8462 62.7051C52.1122 62.8314 53.3552 62.4755 54.5866 62.2229C55.2196 62.0966 55.8641 61.9588 56.5086 61.8669C57.1416 61.7865 57.7285 61.844 58.3385 62.0506C58.9024 62.2458 59.4549 62.441 60.0303 62.5673C60.4561 62.6707 60.905 62.6936 61.3308 62.7281L61.3078 62.7051Z" fill="black"/>
<path opacity="0.2" d="M54.3679 61.5339C53.2976 61.7176 52.2502 61.775 51.1684 61.7635C50.3283 61.6946 49.4996 61.5798 48.6825 61.3961V61.2583C49.5226 61.2927 50.3513 61.3616 51.1799 61.4305C52.2387 61.4305 53.3091 61.465 54.3679 61.5339Z" fill="black"/>
<path opacity="0.2" d="M65.1517 61.1208C64.6338 60.9371 64.1274 60.7993 63.5865 60.7649C62.8384 60.7075 62.1018 60.7763 61.3537 60.8108C59.8461 60.8682 58.3499 60.9256 56.8423 60.9371C55.3576 60.9371 53.8615 60.9141 52.3768 60.8682C51.1454 60.8338 49.9139 60.7534 48.694 60.5008V60.4434C49.6377 60.5582 50.5814 60.6156 51.5482 60.6156C52.9638 60.6156 54.3678 60.5926 55.7834 60.5926C57.3026 60.5926 58.8333 60.5697 60.364 60.5697C61.7105 60.5697 63.1721 60.3974 64.4841 60.8338C64.7143 60.9141 64.9445 61.006 65.1632 61.1093L65.1517 61.1208Z" fill="black"/>
<path opacity="0.2" d="M76.2462 60.6841V60.8334C75.7628 60.8334 75.268 60.8678 74.7731 60.9022C73.3 61.0286 71.8383 61.3156 70.3882 61.5912C69.6056 61.7405 68.823 61.8897 68.0289 62.0046C67.488 62.0849 66.924 62.1883 66.3601 62.2112C66.1529 62.2112 65.9458 62.2112 65.7501 62.2112C64.2885 62.1194 62.8499 61.7749 61.3883 61.6716C60.8013 61.6256 60.2144 61.6027 59.6389 61.5682C60.8128 61.5682 61.9637 61.5797 63.1376 61.6716C63.8742 61.729 64.6107 61.8553 65.3473 61.9127C66.0839 61.9357 66.7974 61.8782 67.534 61.7634C70.4342 61.3156 73.3115 60.6152 76.2577 60.6956L76.2462 60.6841Z" fill="black"/>
<path opacity="0.2" d="M71.5851 60.0068C71.2974 60.0872 70.9982 60.1676 70.7104 60.248C69.9163 60.4661 69.1222 60.6498 68.3051 60.7532C67.6721 60.8336 67.0506 60.8336 66.4061 60.8106C67.0276 60.7302 67.6491 60.6613 68.2706 60.5235C68.9496 60.3743 69.6401 60.1906 70.3191 60.0068H71.5851Z" fill="black"/>
<path opacity="0.2" d="M76.2462 62.4525V62.6018C75.7168 62.5329 75.1989 62.4985 74.658 62.4755C73.3115 62.4296 71.9649 62.51 70.6184 62.6133C69.3179 62.7166 68.0059 62.797 66.6939 62.8085C65.6581 62.8085 64.6453 62.7166 63.6095 62.6018C64.5302 62.6133 65.4509 62.6363 66.3716 62.6018C66.4752 62.6018 66.5788 62.6018 66.6824 62.5903C67.9829 62.51 69.2834 62.3951 70.5954 62.2918C71.9419 62.1885 73.3115 62.131 74.658 62.2459C75.1874 62.2918 75.7168 62.3607 76.2347 62.464L76.2462 62.4525Z" fill="black"/>
<path d="M76.2347 45.7227H48.6825V52.8647H76.2347V45.7227Z" fill="#CFAD86"/>
<path opacity="0.2" d="M55.1505 47.1005C53.8615 46.8939 52.561 46.7676 51.2605 46.779C50.4664 46.779 49.6723 46.8365 48.8781 46.9168C48.8091 46.9168 48.7515 46.9283 48.6825 46.9398V47.158C48.6825 47.158 48.7976 47.158 48.8436 47.158C49.6492 47.158 50.4549 47.135 51.2605 47.1235C52.561 47.1005 53.85 47.135 55.1505 47.112V47.1005Z" fill="black"/>
<path opacity="0.2" d="M67.3844 46.2048C66.268 46.1819 65.1747 46.3311 64.0698 46.423C62.6082 46.5378 61.1466 46.5838 59.685 46.5493C57.4407 46.5034 55.1965 46.3311 52.9523 46.1934C55.1159 46.5378 57.3141 46.8019 59.5008 46.8708C60.974 46.9167 62.4586 46.8708 63.9202 46.6756C65.0826 46.5263 66.222 46.2852 67.3844 46.2048Z" fill="black"/>
<path opacity="0.2" d="M76.2463 47.8926V47.8696C75.2335 47.8007 74.2438 47.6744 73.2425 47.4792C71.8614 47.2381 70.4919 46.9625 69.0993 46.9396C67.5456 46.9051 66.0034 47.2266 64.4842 47.5137C62.9881 47.8007 61.4689 47.9385 59.9497 47.95C58.6147 47.9615 57.2797 47.95 55.9447 47.9845C54.8858 48.0189 53.85 48.1337 52.8027 48.2945C53.9766 48.1797 55.139 48.1337 56.3129 48.1337C56.7042 48.1337 57.0955 48.1452 57.4984 48.1682C58.5226 48.2026 59.5469 48.2371 60.5712 48.2371C62.1364 48.2141 63.6671 48.0074 65.2093 47.7204C66.5098 47.4792 67.7988 47.2496 69.1223 47.2381C69.318 47.2381 69.5251 47.2381 69.7323 47.2381C71.0328 47.2955 72.3218 47.5252 73.6108 47.6974C74.497 47.8122 75.3831 47.8811 76.2693 47.8926H76.2463Z" fill="black"/>
<path opacity="0.2" d="M74.9457 47.0316C75.0263 46.9627 74.5889 46.7446 74.5659 46.7331C74.3703 46.6872 74.0135 46.6757 73.9674 46.9512C73.8754 47.5368 74.8767 47.4565 75.1644 47.3991C75.3715 47.3531 75.6132 47.2613 75.7628 47.0776C75.9125 46.8479 75.8549 46.5494 75.6593 46.3771C75.2795 46.0327 74.6004 46.0327 74.1401 46.0097C73.0122 45.9752 71.8613 46.1819 70.745 46.2738C70.0199 46.3312 69.3064 46.3542 68.5813 46.4001C69.2258 46.446 69.8703 46.492 70.5148 46.492C71.5506 46.492 72.5634 46.3886 73.5992 46.3542C74.0941 46.3312 74.5774 46.3542 75.0723 46.446C75.2449 46.4805 75.4751 46.5264 75.5787 46.6872C75.7053 46.8938 75.4866 47.0431 75.337 47.1005C75.0838 47.2039 74.2782 47.445 74.1286 47.0546C74.025 46.802 74.4508 46.779 74.5774 46.7905C74.7386 46.8135 74.8882 46.8709 74.9687 47.0316H74.9457Z" fill="black"/>
<path opacity="0.2" d="M70.2616 47.8928C69.479 47.8239 68.6964 47.7895 67.9138 47.9273C66.8665 48.0995 65.8767 48.5358 64.8524 48.8458C63.08 49.397 61.2616 49.4544 59.4432 49.2133C61.2041 49.6496 62.988 49.7185 64.7488 49.2133C65.7731 48.9262 66.7514 48.4669 67.7872 48.1799C68.5928 47.9502 69.4329 47.9043 70.2616 47.8928Z" fill="black"/>
<path opacity="0.2" d="M76.2463 49.1099V49.0295C75.7744 49.1099 75.3026 49.1444 74.8077 49.1329C73.956 49.0525 73.1044 48.9492 72.2527 48.8458C71.4126 48.731 70.5724 48.6966 69.7323 48.731C69.3525 48.7425 68.9842 48.7884 68.6159 48.8343C68.4203 48.8573 68.2016 48.8688 67.9944 48.9262C67.8794 48.9607 67.7527 49.0066 67.6492 49.0755C67.9254 48.9377 68.2361 48.9721 68.5354 48.9607C68.9151 48.9607 69.2949 48.9492 69.6747 48.9607C70.5264 48.9836 71.3665 49.0525 72.2067 49.1673C73.0699 49.2822 73.9215 49.3396 74.7962 49.3511C75.2911 49.3166 75.7629 49.2362 76.2348 49.1099H76.2463Z" fill="black"/>
<path opacity="0.2" d="M52.1582 48.1798C51.0073 47.9731 49.8334 47.9501 48.6825 48.1109V48.3061C49.1429 48.329 49.6032 48.329 50.0521 48.3061C50.7541 48.3061 51.4676 48.2716 52.1582 48.1683V48.1798Z" fill="black"/>
<path opacity="0.2" d="M58.3039 48.9838C58.0507 48.823 57.7515 48.7886 57.4638 48.7886C57.4062 48.7886 57.3487 48.7886 57.2796 48.7886C54.4139 48.8919 51.5482 49.3282 48.6825 49.1445V49.2364C49.4191 49.3397 50.1441 49.3971 50.8922 49.4086C52.3999 49.4316 53.896 49.3397 55.4037 49.2364C55.7835 49.2134 56.1748 49.179 56.5546 49.156C56.9459 49.133 57.3372 49.0756 57.7285 49.1101C57.9702 49.133 58.3845 49.2479 58.419 49.5579C58.4535 49.8335 57.8205 50.0516 57.6364 50.109C57.3142 50.2009 56.9689 50.2124 56.6351 50.132C56.474 50.0976 56.3359 50.0401 56.1863 49.9713C55.9906 49.8909 56.2784 49.7416 56.3474 49.7072C56.6351 49.5579 56.9228 49.5349 57.2336 49.5809C57.3372 49.5923 57.4868 49.6153 57.5328 49.7416C57.5673 49.822 57.5213 49.8794 57.4523 49.9138C57.5328 49.8794 57.5904 49.8105 57.5328 49.6957C57.3947 49.4431 56.8998 49.4545 56.6697 49.489C56.4855 49.512 55.9216 49.6383 55.9791 49.9368C56.0136 50.2009 56.5891 50.3157 56.7732 50.3502C56.9113 50.3731 57.0494 50.3846 57.1876 50.3846C57.3947 50.3846 57.6019 50.3502 57.7975 50.2928C58.0737 50.2124 58.5456 50.0287 58.6607 49.7072C58.7643 49.3971 58.5341 49.1101 58.3039 48.9723V48.9838Z" fill="black"/>
<path opacity="0.2" d="M57.2451 49.9595C57.2451 49.9595 57.2911 49.9595 57.3142 49.9595C57.3372 49.9595 57.3717 49.9595 57.3947 49.9365C57.3487 49.948 57.2912 49.9595 57.2451 49.9595Z" fill="black"/>
<path opacity="0.2" d="M61.3078 50.1662C60.8704 50.1662 60.4216 50.1432 59.9843 50.2121C59.3858 50.304 58.8219 50.4647 58.2464 50.6255C57.8896 50.7288 57.5444 50.7748 57.2106 50.7748C56.9574 50.7748 56.7042 50.7518 56.4395 50.7059C55.8065 50.591 55.1736 50.4418 54.5406 50.327C53.3206 50.0973 52.1352 49.8102 50.8923 49.948C50.3053 50.0169 49.7183 50.1088 49.1429 50.1662C48.9933 50.1777 48.8552 50.1892 48.7056 50.1892V50.2695C48.8322 50.2695 48.9473 50.2695 49.0739 50.2695C49.6608 50.2466 50.2593 50.2236 50.8462 50.1662C52.1122 50.0399 53.3552 50.3958 54.5866 50.6485C55.2196 50.7748 55.8641 50.9125 56.5086 51.0044C57.1416 51.0848 57.7285 51.0274 58.3385 50.8207C58.9024 50.6255 59.4549 50.4303 60.0303 50.304C60.4561 50.2006 60.905 50.1777 61.3308 50.1432L61.3078 50.1662Z" fill="black"/>
<path opacity="0.2" d="M54.3679 51.3375C53.2976 51.1538 52.2502 51.0964 51.1684 51.1078C50.3283 51.1767 49.4996 51.2916 48.6825 51.4753V51.6131C49.5226 51.5786 50.3513 51.5097 51.1799 51.4408C52.2387 51.4408 53.3091 51.4064 54.3679 51.3375Z" fill="black"/>
<path opacity="0.2" d="M65.1517 51.751C64.6338 51.9347 64.1274 52.0725 63.5865 52.1069C62.8384 52.1643 62.1018 52.0954 61.3537 52.061C59.8461 52.0036 58.3499 51.9462 56.8423 51.9347C55.3576 51.9347 53.8615 51.9577 52.3768 52.0036C51.1454 52.038 49.9139 52.1184 48.694 52.371V52.4284C49.6377 52.3136 50.5814 52.2562 51.5482 52.2562C52.9638 52.2562 54.3678 52.2792 55.7834 52.2792C57.3026 52.2792 58.8333 52.3021 60.364 52.3021C61.7105 52.3021 63.1721 52.4744 64.4841 52.038C64.7143 51.9577 64.9445 51.8658 65.1632 51.7625L65.1517 51.751Z" fill="black"/>
<path opacity="0.2" d="M76.2462 52.1985V52.0493C75.7628 52.0493 75.268 52.0148 74.7731 51.9804C73.3 51.8541 71.8383 51.567 70.3882 51.2914C69.6056 51.1422 68.823 50.9929 68.0289 50.8781C67.488 50.7977 66.924 50.6944 66.3601 50.6714C66.1529 50.6714 65.9458 50.6714 65.7501 50.6714C64.2885 50.7632 62.8499 51.1077 61.3883 51.2111C60.8013 51.257 60.2144 51.2799 59.6389 51.3144C60.8128 51.3144 61.9637 51.3029 63.1376 51.2111C63.8742 51.1536 64.6107 51.0273 65.3473 50.9699C66.0839 50.947 66.7974 51.0044 67.534 51.1192C70.4342 51.567 73.3115 52.2674 76.2577 52.1871L76.2462 52.1985Z" fill="black"/>
<path opacity="0.2" d="M71.5851 52.8648C71.2974 52.7845 70.9982 52.7041 70.7104 52.6237C69.9163 52.4055 69.1222 52.2218 68.3051 52.1185C67.6721 52.0381 67.0506 52.0381 66.4061 52.0611C67.0276 52.1414 67.6491 52.2103 68.2706 52.3481C68.9496 52.4974 69.6401 52.6811 70.3191 52.8648H71.5851Z" fill="black"/>
<path opacity="0.2" d="M76.2462 50.4189V50.2697C75.7168 50.3386 75.1989 50.373 74.658 50.396C73.3115 50.4419 71.9649 50.3615 70.6184 50.2582C69.3179 50.1548 68.0059 50.0745 66.6939 50.063C65.6581 50.063 64.6453 50.1548 63.6095 50.2697C64.5302 50.2582 65.4509 50.2352 66.3716 50.2697C66.4752 50.2697 66.5788 50.2697 66.6824 50.2812C67.9829 50.3615 69.2834 50.4764 70.5954 50.5797C71.9419 50.683 73.3115 50.7404 74.658 50.6256C75.1874 50.5797 75.7168 50.5108 76.2347 50.4075L76.2462 50.4189Z" fill="black"/>
</g>
<path opacity="0.2" d="M67.7642 45.7227V52.2906H52.0891V54.1851H66.6363H68.3857V45.7227H67.7642Z" fill="black"/>
<path opacity="0.2" d="M84.5557 45.7227V52.2906H100.231V54.1851H85.6835H83.9342V45.7227H84.5557Z" fill="black"/>
<path opacity="0.2" d="M100.219 60.0869H52.0891V61.8207H100.219V60.0869Z" fill="black"/>
<path opacity="0.2" d="M103.626 72.5454H48.6825V74.2792H103.626V72.5454Z" fill="black"/>
<path opacity="0.2" d="M97.6528 66.3218H54.6671V67.8489H97.6528V66.3218Z" fill="black"/>
<path opacity="0.2" d="M77.5813 56.8834C77.5813 57.7331 76.9483 58.4106 76.1657 58.4106C75.3831 58.4106 74.7501 57.7216 74.7501 56.8834V51.7049C74.7501 50.8552 75.3831 50.1777 76.1657 50.1777C76.9483 50.1777 77.5813 50.8667 77.5813 51.7049V56.8834Z" fill="black"/>
<path d="M57.2335 48.7999C57.2335 49.4429 56.7502 49.9596 56.1632 49.9596C55.5763 49.9596 55.0929 49.4429 55.0929 48.7999C55.0929 48.1568 55.5763 47.6401 56.1632 47.6401C56.7502 47.6401 57.2335 48.1568 57.2335 48.7999Z" fill="white"/>
<path d="M64.5993 48.7999C64.5993 49.4429 64.1159 49.9596 63.5289 49.9596C62.942 49.9596 62.4586 49.4429 62.4586 48.7999C62.4586 48.1568 62.942 47.6401 63.5289 47.6401C64.1159 47.6401 64.5993 48.1568 64.5993 48.7999Z" fill="white"/>
<path d="M89.8612 48.7999C89.8612 49.4429 89.3779 49.9596 88.7909 49.9596C88.204 49.9596 87.7206 49.4429 87.7206 48.7999C87.7206 48.1568 88.204 47.6401 88.7909 47.6401C89.3779 47.6401 89.8612 48.1568 89.8612 48.7999Z" fill="white"/>
<path d="M97.227 48.7999C97.227 49.4429 96.7436 49.9596 96.1566 49.9596C95.5697 49.9596 95.0863 49.4429 95.0863 48.7999C95.0863 48.1568 95.5697 47.6401 96.1566 47.6401C96.7436 47.6401 97.227 48.1568 97.227 48.7999Z" fill="white"/>
<path d="M116.619 83.6948H9.24158V115.616H43.1122V100.149C43.1122 95.1887 47.1403 91.1698 52.1121 91.1698H100.173C105.145 91.1698 109.173 95.1887 109.173 100.149V115.616H143.044V83.6948H116.631H116.619Z" fill="#375D68"/>
<path d="M149.765 78.3784H2.54346V85.6238H149.765V78.3784Z" fill="#477987"/>
<path d="M152.32 122H0V119.118C0 113.423 4.62657 108.795 10.3465 108.795H141.985C147.693 108.795 152.331 113.411 152.331 119.118V122H152.32Z" fill="#477987"/>
<path opacity="0.2" d="M143.032 85.624H9.34521V88.8161H143.032V85.624Z" fill="black"/>
<path d="M117.598 73.8315H34.7108V78.39H117.598V73.8315Z" fill="#DADADA"/>
<path d="M113.995 18.4404H38.6238V19.7609H113.995V18.4404Z" fill="#C6C6C6"/>
<path d="M47.7618 67.3438H44.827V73.8313H47.7618V67.3438Z" fill="#575756"/>
<path d="M51.249 65.8281H44.827V67.9983H51.249V65.8281Z" fill="#575756"/>
<path opacity="0.2" d="M138.624 38.9482H122.098C120.852 38.9482 119.842 39.9558 119.842 41.1988V73.269C119.842 74.5119 120.852 75.5195 122.098 75.5195H138.624C139.87 75.5195 140.88 74.5119 140.88 73.269V41.1988C140.88 39.9558 139.87 38.9482 138.624 38.9482Z" fill="black"/>
<path opacity="0.2" d="M30.2914 38.9482H13.7647C12.5188 38.9482 11.5089 39.9558 11.5089 41.1988V73.269C11.5089 74.5119 12.5188 75.5195 13.7647 75.5195H30.2914C31.5372 75.5195 32.5471 74.5119 32.5471 73.269V41.1988C32.5471 39.9558 31.5372 38.9482 30.2914 38.9482Z" fill="black"/>
<path d="M107.597 67.3438H104.662V73.8313H107.597V67.3438Z" fill="#575756"/>
<path d="M107.597 65.8281H101.175V67.9983H107.597V65.8281Z" fill="#575756"/>
<path opacity="0.2" d="M113.984 10.5178V8.01467C113.984 5.3967 111.59 3.27246 108.644 3.27246H43.7337C40.7874 3.27246 38.3936 5.3967 38.3936 8.01467V10.5178C38.3936 13.1358 40.7874 15.26 43.7337 15.26H108.644C111.59 15.26 113.984 13.1358 113.984 10.5178Z" fill="black"/>
<path d="M134.309 42.0713H125.769C124.898 42.0713 124.192 42.7756 124.192 43.6444V60.4201C124.192 61.2889 124.898 61.9932 125.769 61.9932H134.309C135.179 61.9932 135.885 61.2889 135.885 60.4201V43.6444C135.885 42.7756 135.179 42.0713 134.309 42.0713Z" fill="#EDEDED"/>
<path d="M134.309 65.4033H125.769C124.898 65.4033 124.192 66.1076 124.192 66.9764V70.6622C124.192 71.531 124.898 72.2353 125.769 72.2353H134.309C135.179 72.2353 135.885 71.531 135.885 70.6622V66.9764C135.885 66.1076 135.179 65.4033 134.309 65.4033Z" fill="#EDEDED"/>
<path d="M134.228 53.416H125.849V60.4891H134.228V53.416Z" fill="#95BBCC"/>
<path d="M128.945 52.1528H125.849V52.9796H128.945V52.1528Z" fill="#95BBCC"/>
<path d="M132.329 52.1528H129.233V52.9796H132.329V52.1528Z" fill="#405E6B"/>
<path d="M134.228 52.1528H132.617V52.9796H134.228V52.1528Z" fill="#405E6B"/>
<path d="M134.113 43.4951H131.673V45.1945H134.113V43.4951Z" fill="#FA4E4E"/>
<path d="M134.113 45.4355H131.673V47.1349H134.113V45.4355Z" fill="#405E6B"/>
<path d="M134.113 49.3281H131.673V51.0275H134.113V49.3281Z" fill="#405E6B"/>
<path d="M131.259 43.4951H128.819V45.1945H131.259V43.4951Z" fill="#405E6B"/>
<path d="M131.259 45.4355H128.819V47.1349H131.259V45.4355Z" fill="#405E6B"/>
<path d="M131.259 49.3281H128.819V51.0275H131.259V49.3281Z" fill="#95BBCC"/>
<path d="M128.404 43.4951H125.965V45.1945H128.404V43.4951Z" fill="#405E6B"/>
<path d="M128.404 45.4355H125.965V47.1349H128.404V45.4355Z" fill="#405E6B"/>
<path d="M128.404 49.3281H125.965V51.0275H128.404V49.3281Z" fill="#FA4E4E"/>
<path d="M28.6111 19.6006H15.4564V21.2655H28.6111V19.6006Z" fill="#1D1D1B"/>
<path d="M28.6111 22.5171H15.4564V24.182H28.6111V22.5171Z" fill="#1D1D1B"/>
<path d="M28.6111 25.4453H15.4564V27.1103H28.6111V25.4453Z" fill="#1D1D1B"/>
<path d="M28.6111 28.3618H15.4564V30.0268H28.6111V28.3618Z" fill="#1D1D1B"/>
<path d="M28.6111 31.2896H15.4564V32.9545H28.6111V31.2896Z" fill="#1D1D1B"/>
<path d="M28.6111 34.2061H15.4564V35.871H28.6111V34.2061Z" fill="#1D1D1B"/>
<path d="M136.933 19.6006H123.778V21.2655H136.933V19.6006Z" fill="#1D1D1B"/>
<path d="M136.933 22.5171H123.778V24.182H136.933V22.5171Z" fill="#1D1D1B"/>
<path d="M136.933 25.4453H123.778V27.1103H136.933V25.4453Z" fill="#1D1D1B"/>
<path d="M136.933 28.3618H123.778V30.0268H136.933V28.3618Z" fill="#1D1D1B"/>
<path d="M136.933 31.2896H123.778V32.9545H136.933V31.2896Z" fill="#1D1D1B"/>
<path d="M136.933 34.2061H123.778V35.871H136.933V34.2061Z" fill="#1D1D1B"/>
<path d="M138.337 47.4454L137.681 47.652C136.806 47.8472 136.518 46.5153 137.301 46.2167L136.806 46.3201C136.069 46.4694 135.782 45.5623 136.093 45.1259C136.116 45.103 136.139 45.08 136.162 45.057L133.733 45.5278C132.847 45.723 132.536 44.4829 133.445 44.2877L138.383 42.795L138.659 42.4161C138.74 42.3013 138.855 42.2324 138.981 42.1979C139.073 42.1979 141.076 42.0257 141.237 42.0372C141.847 42.0372 142.411 42.3357 142.837 42.795L143.055 43.0821L143.826 42.8869L144.908 42.5883C145.058 43.2773 145.219 43.9547 145.38 44.6437C145.507 45.1948 145.645 45.746 145.771 46.3086C145.794 46.4005 145.818 46.4923 145.829 46.5842L143.849 46.7679C143.401 47.652 142.722 48.1343 140.892 48.4443L139.085 48.7199C138.141 48.8921 137.796 47.8013 138.371 47.4568L138.337 47.4454Z" fill="#FFD2A1"/>
<path d="M183.797 25.2729C187.192 29.3721 188.481 36.3419 189.873 42.2553C190.311 44.1155 189.609 46.1019 187.998 47.1468C184.775 49.2366 180.989 49.5352 178.25 49.4203L183.785 25.2729H183.797Z" fill="#C29B5D"/>
<path opacity="0.2" d="M183.797 30.9106C185.086 36.4911 185.028 39.6487 186.432 43.6446C184.131 45.9985 181.081 46.9974 175.108 48.3983C179.412 42.6112 183.808 30.9106 183.808 30.9106H183.797Z" fill="#1D1D1B"/>
<path d="M180.229 120.691C180.229 120.806 180.229 120.921 180.229 121.047H171.828V120.909C171.828 120.909 171.828 120.829 171.851 120.783C171.851 120.749 171.851 120.726 171.851 120.691C171.885 120.255 171.966 119.876 172.081 119.555C172.369 118.705 172.863 118.234 173.496 117.97C173.83 117.821 174.198 117.74 174.59 117.694C174.993 117.648 175.418 117.637 175.879 117.625H176.213C178.204 117.625 179.861 117.821 180.16 119.853V119.876C180.218 120.117 180.229 120.393 180.229 120.691Z" fill="#896229"/>
<path d="M180.241 120.691L180.218 121.047L180.16 122H171.759L171.816 121.047L171.828 120.91V120.691H180.241Z" fill="#896229"/>
<path d="M162.367 120.209C162.367 120.37 162.367 120.519 162.344 120.691L162.321 121.047H148.695V121.013C148.695 120.898 148.718 120.795 148.741 120.691C149.121 118.739 151.583 117.74 154.334 117.338C156.44 117.028 158.719 117.074 160.388 117.315C160.56 117.338 160.721 117.361 160.871 117.396C161.251 117.465 161.585 117.545 161.861 117.625C162.114 117.717 162.471 117.855 162.367 120.209Z" fill="#896229"/>
<path d="M162.344 120.691L162.321 121.047L162.264 122H148.637L148.695 121.047V121.013L148.718 120.691H162.344Z" fill="#896229"/>
<path d="M180.874 119.084C180.874 119.451 180.609 119.704 180.16 119.876C178.813 120.393 175.81 120.14 173.692 119.83C173.048 119.738 172.484 119.635 172.081 119.555C171.701 119.474 171.344 119.428 171.056 119.348C170.55 104.731 170.182 93.7767 169.998 88.713L168.421 72.2473L164.358 88.2078L164.312 88.5063C164.312 92.8007 164.485 97.4511 164.531 101.975C164.612 109.083 164.416 115.869 162.954 120.485C162.782 120.393 162.586 120.301 162.367 120.209C161.826 119.991 161.136 119.784 160.365 119.589C158.397 119.061 155.957 118.487 154.334 117.373V84.7286C158.017 58.8359 158.489 58.2159 158.696 54.1855L163.771 54.7482L177.363 56.2409L179.216 56.4476C179.631 61.6146 179.539 64.956 178.25 68.8255C178.365 71.0416 179.504 84.4875 179.389 87.9551C179.354 89.2412 179.469 91.3195 179.654 93.7997C180.252 102.09 181.599 114.985 180.862 119.084H180.874Z" fill="#C29B5D"/>
<path d="M170.654 18.0964L168.398 17.752L168.064 19.8992L170.539 19.8303L170.654 18.0964Z" fill="#EBB677"/>
<path d="M177.398 20.0141L176.27 12.895C173.232 13.4347 169.146 14.0892 168.421 14.0777C168.421 14.0777 169.204 19.2562 169.342 21.5183C169.204 27.4087 175.982 26.8002 177.409 20.0256L177.398 20.0141Z" fill="#FFD2A1"/>
<path d="M177.49 13.997C177.973 12.5503 177.927 11.9302 177.881 10.3916C177.225 3.39883 173.255 4.62744 170.654 4.78819C167.615 5.1097 164.865 7.33727 164.991 12.0106C165.175 12.4584 165.383 12.8258 165.383 12.8258L164.542 15.4897C164.404 15.9261 164.692 16.3854 165.141 16.4657L165.82 16.6035C165.866 17.0743 165.935 19.0952 165.935 19.0952C166.05 20.2779 166.683 22.1036 168.26 21.851C168.87 21.6213 170.182 20.2549 170.124 16.0294C171.229 15.8342 177.133 15.0534 177.49 13.997Z" fill="#FFD2A1"/>
<path d="M176.903 17.2123C168.973 19.8647 170.32 15.7196 170.055 14.9043C170.009 14.6517 168.72 14.9617 168.674 14.7206C167.892 10.5295 169.008 7.64746 165.613 8.35937C164.301 8.22158 163.311 4.16831 171.287 3.90422C174.808 3.78939 177.674 5.54619 178.514 8.95645C179.331 12.2863 178.227 16.4544 176.903 17.2123Z" fill="#C29B5D"/>
<path d="M171.678 14.0204C171.747 15.1227 171.114 16.4317 170.562 16.4662C170.021 16.5006 169.917 15.582 169.848 14.4797C169.802 13.7563 169.71 12.7574 170.297 12.4933C170.815 12.2636 171.586 12.4129 171.678 14.0319V14.0204Z" fill="#FFD2A1"/>
<path d="M184.637 28.1895C184.637 29.5214 183.475 35.4808 182.232 41.5894C180.793 48.6281 179.251 55.862 179.228 56.4476L177.237 56.5279L164.174 57.0332L158.661 57.2398C158.661 56.2409 158.684 55.2304 158.707 54.1855C158.788 48.984 158.961 43.3117 159.363 38.0299C159.709 33.4829 160.215 29.2229 161.009 25.8126C163 22.2301 160.169 23.2061 168.812 20.6341C171.77 19.8992 176.454 18.9347 177.409 20.0141L181.748 23.2406C183.521 24.2855 184.614 26.1686 184.637 28.1895Z" fill="#C29B5D"/>
<path opacity="0.2" d="M164.174 57.0331C164.266 57.5039 164.381 57.9632 164.496 58.411C159.018 61.7983 157.349 73.8662 155.543 85.6242L154.334 110.277V84.7285C158.017 58.8358 158.489 58.2158 158.696 54.1855C158.777 48.984 158.949 43.3117 159.352 38.0298L166.718 30.0381C164.082 39.1895 162.816 47.5831 163.771 54.7481C163.875 55.5289 164.002 56.2867 164.163 57.0331H164.174Z" fill="#1D1D1B"/>
<path d="M167.477 28.8439C167.477 28.8439 167.466 28.8784 167.443 28.9013C163.852 34.5392 161.113 39.9129 158.638 43.4265L144.529 47.7898C142.181 48.0424 140.132 42.749 142.158 41.819C147.429 39.5569 154.265 36.2156 154.265 36.2156C159.363 26.0422 159.732 24.5954 160.768 23.7343C160.791 23.7113 160.814 23.6883 160.837 23.6769C165.175 19.991 171.195 22.8157 167.489 28.8439H167.477Z" fill="#C29B5D"/>
<path opacity="0.2" d="M174.866 93.0989C172.461 99.7472 172.553 108.485 173.496 117.97C173.554 118.59 173.611 119.21 173.692 119.83C173.715 120.117 173.75 120.404 173.784 120.691C173.784 120.806 173.807 120.921 173.83 121.047C173.853 121.357 173.899 121.678 173.934 122H171.759L171.816 121.047V120.909V120.691H171.839C171.874 120.255 171.954 119.876 172.069 119.554C171.689 119.474 171.333 119.428 171.045 119.348C170.539 104.731 170.17 93.7764 169.986 88.7126L168.409 72.2469L169.572 70.1572C172.127 70.7083 174.808 69.6749 177.524 68.0903L171.632 73.8315C170.055 80.4339 172.035 88.15 174.854 93.0989H174.866Z" fill="#1D1D1B"/>
<path opacity="0.2" d="M164.531 101.975C164.611 109.082 164.416 115.869 162.954 120.484C162.782 120.393 162.586 120.301 162.367 120.209C162.367 120.37 162.367 120.519 162.344 120.691L162.321 121.047L162.264 122H159.686C159.789 121.69 159.881 121.369 159.973 121.047C160.008 120.932 160.042 120.806 160.065 120.691C160.169 120.324 160.273 119.956 160.365 119.589C160.549 118.865 160.721 118.142 160.871 117.396C162.747 108.6 162.597 98.978 161.47 88.8276C163.886 86.2326 165.97 78.3786 168.421 72.2471L164.358 88.2075L164.312 88.5061C164.312 92.8005 164.485 97.4508 164.531 101.975Z" fill="#1D1D1B"/>
<path opacity="0.2" d="M179.228 56.4473C179.642 61.6143 179.55 64.9557 178.261 68.8252C178.675 63.6926 178.744 60.2939 176.305 57.9629C176.638 57.5611 176.938 57.0673 177.237 56.5276C177.283 56.4358 177.329 56.3324 177.375 56.2406C179.389 52.2332 180.505 45.3324 182.232 41.6006C180.793 48.6278 179.251 55.8617 179.228 56.4473Z" fill="#1D1D1B"/>
</svg>
