<svg width="103" height="139" viewBox="0 0 103 139" fill="none" xmlns="http://www.w3.org/2000/svg">
<g clip-path="url(#clip0_156_1388)">
<path d="M46.126 22.6344C41.499 25.5988 36.7037 27.5426 30.4061 30.021L30.1177 30.1303L24.8297 31.1022L20.1426 31.9648L20.2267 30.2761L20.5512 24.2624L24.0966 23.7764L24.2648 23.7521L28.351 23.1811L43.6022 19.8037L45.6573 22.112L46.126 22.6344Z" fill="#FFCFA1"/>
<path d="M24.9139 32.2208L14.0854 33.6786L12.7033 33.8609C7.35522 34.6505 4.06222 26.8631 12.7033 25.0407L24.0966 23.7772L24.2649 23.7529L24.7216 29.7545L24.8297 31.1031L24.9139 32.2208Z" fill="#F5EFD1"/>
<path d="M1.82684 133.7C1.82684 133.773 1.82684 133.834 1.82684 133.883C1.82684 133.919 1.82684 133.943 1.82684 133.968C1.82684 133.992 1.82684 134.016 1.82684 134.016C1.86289 134.077 1.92298 134.126 2.00711 134.15L2.98059 134.344C3.16086 134.381 3.32912 134.405 3.50939 134.405C3.61755 134.405 3.72572 134.405 3.83388 134.405H4.12232L4.77131 134.369C4.95158 134.369 5.11983 134.369 5.27607 134.369H5.39625L5.48038 134.357L5.99716 134.332H6.18946H6.36973H10.2516L11.7659 134.357C13.5807 134.357 15.8401 133.713 16.9938 133.069C17.114 132.996 17.1982 132.85 17.1621 132.716C17.1621 132.704 17.1621 132.68 17.1621 132.668C17.09 131.769 17.1621 131.016 16.6814 130.675C16.1886 130.189 15.2031 129.995 14.0013 129.703C13.797 129.655 13.5807 129.594 13.3523 129.533C12.4389 129.29 11.5015 129.169 10.9367 128.962C10.8285 128.926 10.7444 128.889 10.6602 128.841C9.92713 128.404 9.182 127.978 8.73732 127.274C8.61714 127.067 8.50898 126.861 8.43687 126.605L6.6101 126.727H6.45386L4.74727 126.848L4.06223 126.897L3.29306 126.958C3.29306 127.031 3.29306 127.091 3.29306 127.164C3.28104 127.614 3.14884 128.051 3.01664 128.416C2.81233 128.95 2.55995 129.351 2.51188 129.485V129.521C2.42775 129.728 2.25949 130.578 2.11528 131.489C2.11528 131.489 2.11528 131.493 2.11528 131.501C2.09124 131.623 2.0672 131.757 2.05518 131.878C2.01913 132.06 1.99509 132.218 1.97106 132.388C1.88693 132.923 1.82684 133.421 1.81482 133.725L1.82684 133.7Z" fill="#896229"/>
<path d="M0.192261 65.1436C0.420607 72.3479 0.336479 74.0366 3.11269 77.2925C2.09114 85.8211 2.43967 95.1029 4.12222 101.129C1.32197 111.966 0.26437 122.268 2.22334 130.979C5.84083 131.234 7.49935 129.363 10.7082 128.816C12.0663 119.474 12.2225 111.054 14.7463 99.7073L16.6933 68.4359L0.192261 65.1436Z" fill="#C29B5D"/>
<path d="M44.3233 21.9542C44.3233 21.9542 44.3233 21.9664 44.3353 21.9664C44.3954 22.0271 44.4555 22.0757 44.5156 22.1364C44.6478 22.2458 44.792 22.343 44.9363 22.4159C45.2728 22.5859 45.6934 22.6588 46.1381 22.6467C46.751 22.6467 47.388 22.5009 47.8567 22.2822C48.073 22.185 48.2773 22.0757 48.4696 21.9542C48.8061 21.7477 49.1186 21.5168 49.4191 21.2739C49.6354 21.1159 49.8397 20.9458 50.044 20.7879C50.3805 20.5206 50.6209 20.3019 50.8492 20.0833C50.9935 19.9496 51.1257 19.8281 51.2819 19.7066C51.3901 19.6095 51.5223 19.5123 51.6545 19.4151C51.7145 19.3665 51.7987 19.3179 51.8708 19.2571C51.9429 19.2207 52.015 19.1721 52.0871 19.1235C52.0871 19.1113 52.0871 19.087 52.0871 19.087C52.0631 18.9656 52.027 18.8562 52.015 18.7469C51.9189 18.3338 51.8467 17.9815 51.7867 17.6292C51.7746 17.5441 51.7626 17.4712 51.7506 17.3983C51.6905 17.0582 51.6424 16.718 51.5703 16.3657C51.5583 16.2685 51.5343 16.1592 51.5102 16.0498C51.4501 15.7339 51.378 15.4059 51.2819 15.0293C51.1978 15.0779 51.1016 15.1265 51.0055 15.1629L50.8853 15.2115C50.8853 15.2115 50.8853 15.2115 50.8733 15.2115C50.7771 15.248 50.681 15.2844 50.5848 15.3209C50.3084 15.4302 50.032 15.5031 49.7556 15.576C49.2628 15.7096 48.7701 15.8068 48.2773 15.9526C47.8807 16.062 47.4961 16.2077 47.1116 16.4021C47.1116 16.4021 47.0875 16.4143 47.0755 16.4264C47.0515 16.4386 47.0274 16.4507 47.0034 16.4629C46.5227 16.718 46.0419 16.9853 45.6093 17.3133C45.0204 17.775 44.5156 18.346 44.107 18.9777C43.9267 19.245 43.7585 19.5244 43.6143 19.816C43.5542 19.9375 43.4941 20.059 43.4821 20.1805C43.4821 20.2291 43.4821 20.2776 43.4821 20.3141C43.4821 20.3141 43.4821 20.3262 43.4821 20.3384C43.4821 20.3748 43.4941 20.3991 43.5061 20.4356C43.5061 20.4599 43.5061 20.4963 43.5301 20.5206C43.6864 21.043 43.9508 21.5533 44.3233 21.9542Z" fill="#F2C194"/>
<path d="M10.9126 133.688C10.9126 133.761 10.9126 133.834 10.9246 133.883C10.9246 133.919 10.9246 133.956 10.9486 133.968C10.9486 133.992 10.9486 134.016 10.9606 134.016C11.0087 134.089 11.0808 134.138 11.1529 134.15L12.1504 134.345C12.3307 134.381 12.511 134.405 12.6913 134.405C12.7994 134.405 12.9076 134.405 13.0158 134.405H13.3042L13.9532 134.369C14.1335 134.369 14.2897 134.369 14.4579 134.369H14.5781L14.6623 134.357L15.179 134.332H15.3713H15.5516H19.4335L20.9478 134.357C22.7626 134.357 24.9378 133.701 26.0075 133.045C26.1156 132.972 26.1877 132.826 26.1397 132.68C26.1397 132.668 26.1397 132.644 26.1397 132.632C25.9594 131.72 25.9354 130.943 25.3945 130.59C24.8417 130.092 23.8202 129.898 22.5943 129.594C22.378 129.546 22.1616 129.485 21.9333 129.424C20.9839 129.169 20.0344 129.06 19.4455 128.841C19.3374 128.805 19.2412 128.768 19.1571 128.72C18.3759 128.282 17.5707 127.845 17.0299 127.116C16.8856 126.909 16.7414 126.691 16.6333 126.436L14.8185 126.569H14.6623L12.9797 126.703L12.2947 126.751L11.5375 126.812C11.5375 126.885 11.5616 126.946 11.5616 127.019C11.6096 127.48 11.5375 127.93 11.4414 128.294C11.2972 128.841 11.1049 129.242 11.0688 129.376V129.412C11.0087 129.619 10.9606 130.493 10.9246 131.417C10.9246 131.417 10.9246 131.421 10.9246 131.429C10.9246 131.55 10.9246 131.684 10.9246 131.805C10.9246 131.988 10.9126 132.158 10.9126 132.328C10.9006 132.874 10.9126 133.385 10.9246 133.688H10.9126Z" fill="#896229"/>
<path opacity="0.1" d="M46.126 22.6344C41.499 25.5987 36.7037 27.5426 30.4062 30.0209L30.1178 30.1303L24.8297 31.1022L24.9139 32.2199L14.0854 33.6778L13.5326 30.0209C15.1911 29.8509 17.3063 30.3368 20.2267 30.2761C21.5488 30.2518 23.039 30.106 24.7216 29.7537H24.7336C32.4974 28.1014 42.124 24.1894 45.0444 22.4521L46.126 22.6344Z" fill="#1D1D1B"/>
<path d="M13.3523 28.7217L16.8015 37.1045L10.2035 44.0901C8.32867 40.0445 7.41528 33.9579 7.41528 33.9579L13.3523 28.7217Z" fill="#4AB775"/>
<path d="M5.70874 24.2632L10.2156 14.0459C13.0399 14.8234 16.1045 16.6822 16.7896 16.7308L12.6312 30.69C12.6312 30.69 6.82644 27.6527 5.70874 24.2632Z" fill="#F2C194"/>
<path d="M17.4384 66.128C17.2942 66.6747 17.2101 67.0149 17.2101 67.1607C16.4529 67.1607 15.7439 67.1728 15.1069 67.1971C6.24945 67.4765 8.44879 69.4204 0.709045 65.3991C0.54079 65.3262 0.372534 65.229 0.192261 65.1318C0.192261 65.0467 0.192261 64.9617 0.204279 64.8645C0.348498 60.3572 0.276388 55.1453 0.300425 49.9942C0.312443 43.7132 0.46868 37.4929 1.33399 32.7305C2.1272 28.4055 4.09819 25.7449 5.70863 24.2627C9.22997 24.8094 11.4293 26.1458 13.5205 27.6766C14.6622 30.0213 16.1765 32.8399 17.1139 36.3995C17.186 36.6425 17.2461 36.8855 17.3062 37.1284C20.8756 52.4604 18.2437 62.8599 17.4384 66.128Z" fill="#C29B5D"/>
<path d="M8.06421 15.3574C7.69164 13.8873 6.64605 15.3574 6.80229 13.8266C7.94402 6.90169 12.7393 7.88576 15.2872 8.23808C18.2557 8.77263 20.8035 11.2024 20.3348 15.8555C20.1185 16.2928 19.8901 16.633 19.8901 16.633L20.5271 19.3544C20.6353 19.8039 20.3228 20.2412 19.8661 20.2777L19.1811 20.3749C19.109 20.8365 18.8926 22.8533 18.8926 22.8533C18.6883 24.0317 17.835 25.526 16.4289 25.2952L14.9507 25.0401C13.184 24.5906 10.7683 22.0636 11.2971 19.0142C10.7803 17.6049 8.31659 16.4386 8.04017 15.3574H8.06421Z" fill="#FFCFA1"/>
<path d="M6.77828 11.9916C7.30708 10.3515 10.4679 10.4001 12.6432 10.8496C14.3738 11.2141 15.0468 11.7608 14.6983 13.5102C14.5541 14.2635 14.3498 14.8345 13.9532 16.3288C13.2681 16.2924 11.213 15.8793 11.213 15.8793C11.213 15.8793 10.3597 21.2005 7.46332 20.2894C6.46581 18.7829 5.73269 15.2354 6.77828 11.9795V11.9916Z" fill="#1D1D1B"/>
<path d="M9.99915 16.4632C9.85493 17.5566 10.6001 18.9294 11.3091 19.0266C12.0182 19.1238 12.0543 18.2248 12.1985 17.1314C12.2946 16.4146 12.6191 15.4062 11.874 15.0782C11.225 14.7866 10.2035 14.8595 9.99915 16.451V16.4632Z" fill="#FFCFA1"/>
<path d="M19.6979 11.5181C15.9723 9.78085 15.4555 11.2266 14.6863 13.5227L6.91052 11.7004C10.8285 1.78684 22.5583 10.3397 19.6979 11.5181Z" fill="#1D1D1B"/>
<path d="M19.1451 128.707C16.0083 129.266 14.1455 132.084 10.504 131.817C7.41527 122.936 7.57151 111.516 8.97764 100.485C8.6171 99.586 8.25655 98.6627 7.90802 97.7029C5.84088 92.163 4.01411 85.7605 3.95402 78.3375C0.757171 75.0329 -0.540799 71.9957 0.204332 64.8643L1.87487 64.9858L15.131 65.9577L17.4385 66.1278L19.2653 96.4637L19.4215 99.0393C18.3639 110.593 19.3013 119.182 19.1451 128.707Z" fill="#C29B5D"/>
<path opacity="0.3" d="M19.2653 96.4643L19.1331 97.4606C18.3399 85.3602 17.8351 72.2029 15.107 67.1975C14.9988 67.0031 14.8907 66.8209 14.7825 66.6508C14.9027 66.42 15.0108 66.1891 15.131 65.9583C16.9939 62.1192 18.4841 56.9195 16.8136 53.4813L11.2491 53.0804C8.08835 48.8526 6.00919 43.7622 5.31213 37.5297L12.8476 32.415L17.114 36.3999C17.1861 36.6429 17.2462 36.8859 17.3063 37.1288C20.8757 52.4608 18.2438 62.8603 17.4385 66.1284L19.2653 96.4643Z" fill="#1D1D1B"/>
<path opacity="0.3" d="M7.90802 97.7029C5.84088 92.163 4.01411 85.7605 3.95402 78.3375C0.757171 75.0329 -0.540799 71.9957 0.204332 64.8643L1.87487 64.9858C0.456715 70.2705 3.91797 73.8909 7.39124 76.9282C5.27603 81.97 6.30959 89.5995 7.90802 97.7029Z" fill="#1D1D1B"/>
<path d="M3.94196 33.0828L7.5955 44.9766L16.1525 41.6357L12.547 31.6006C9.31411 23.3029 2.28344 27.8831 3.94196 33.0828Z" fill="#F5EFD1"/>
<path d="M58 0.000976562H49.0464V138.001H58V0.000976562Z" fill="#BFA07C"/>
<path opacity="0.2" d="M50.8132 59.373C50.9934 60.7337 51.1617 62.0823 51.2579 63.4551C51.366 64.9616 51.4261 66.468 51.4381 67.9745C51.4622 71.7164 51.2218 75.4583 50.9213 79.1758C50.6209 82.9906 50.2724 86.7932 50.1041 90.6202C49.9238 94.5929 49.9839 98.5899 50.1882 102.563C50.5728 110.131 51.3179 117.664 51.342 125.257C51.354 129.533 51.1016 133.773 50.6569 137.989H50.8252C50.9334 137.151 51.0295 136.312 51.1136 135.474C51.4862 131.769 51.7145 128.027 51.7266 124.285C51.7506 116.595 51.0535 108.965 50.681 101.299C50.4887 97.3628 50.4887 93.3901 50.681 89.4417C50.8612 85.6269 51.1737 81.8365 51.4141 78.0338C51.6424 74.4985 51.7746 70.9389 51.6424 67.3914C51.5944 66.0185 51.5102 64.6457 51.366 63.285C51.2338 61.9729 51.0415 60.6851 50.8252 59.3852L50.8132 59.373Z" fill="black"/>
<path opacity="0.2" d="M52.8442 109.901C52.9884 116.243 53.397 122.56 53.5172 128.902C53.5653 131.502 53.5532 134.102 53.421 136.701C53.397 137.127 53.373 137.552 53.3369 137.977H53.6133C53.7816 136.531 53.9018 135.086 53.9619 133.603C54.1421 129.764 54.0099 125.901 53.7816 122.062C53.5412 117.992 53.2167 113.934 52.8322 109.889L52.8442 109.901Z" fill="black"/>
<path opacity="0.2" d="M53.7096 73.2959C53.3851 76.1995 53.0846 79.1152 52.9164 82.0553C52.7 85.8944 52.7481 89.7091 53.1207 93.5239C53.4932 97.3022 54.0821 101.032 54.5028 104.81C54.8633 108.042 55.0436 111.274 54.9234 114.542C54.9234 114.687 54.9234 114.821 54.9114 114.967C55.0196 113.764 55.1157 112.561 55.1518 111.346C55.1998 109.609 55.1277 107.872 55.0196 106.147C54.7672 102.356 54.2384 98.6143 53.8298 94.8481C53.6134 92.9286 53.4332 91.0091 53.337 89.0652C53.2409 87.1457 53.2288 85.2019 53.2649 83.2823C53.325 80.0507 53.5293 76.8312 53.7096 73.6118C53.7096 73.5146 53.7096 73.4052 53.7216 73.308L53.7096 73.2959Z" fill="black"/>
<path opacity="0.2" d="M51.7626 92.1143C51.7626 93.0497 51.8106 93.9852 51.8587 94.9328C51.9188 96.415 51.9308 97.9093 52.015 99.4036C52.039 100.862 52.1111 102.319 52.1592 103.777C52.1832 104.749 52.2072 105.709 52.2553 106.681C52.5077 104.251 52.5918 101.821 52.5558 99.3672C52.4236 96.9131 52.1832 94.5198 51.7626 92.1264V92.1143Z" fill="black"/>
<path opacity="0.2" d="M55.8368 75.3246C55.7046 76.4545 55.5604 77.5844 55.4642 78.7264C55.308 80.5609 55.1998 82.3953 55.1758 84.242C55.1037 87.8624 55.2118 91.4828 55.3921 95.091C55.7647 102.842 56.4377 110.569 56.1973 118.344C56.0892 122.025 55.8007 125.682 55.6084 129.351C55.5243 131.173 55.4402 133.008 55.4402 134.83C55.4402 135.887 55.4642 136.932 55.4883 137.977H55.5484C55.5484 135.547 55.6325 133.117 55.8007 130.7C56.0531 127.14 56.3776 123.592 56.5939 120.021C56.8103 116.072 56.8103 112.112 56.642 108.151C56.4738 104.3 56.1973 100.461 55.945 96.6218C55.7046 93.0135 55.5003 89.381 55.4402 85.7485C55.3921 82.371 55.5243 79.0301 55.8128 75.677C55.8128 75.5555 55.8368 75.434 55.8488 75.3125L55.8368 75.3246Z" fill="black"/>
<path opacity="0.2" d="M53.2769 38.9384C53.2769 38.6712 53.2769 38.3917 53.2889 38.1245C53.2889 37.9179 53.2889 37.6993 53.3009 37.4927C53.3009 37.2862 53.3249 37.2862 53.2408 37.189C53.0125 37.0554 52.7961 37.0189 52.5558 37.0554C52.3755 37.1282 52.3034 37.675 52.2673 37.8936C52.1471 38.7198 52.2914 39.6309 52.6519 40.3113C52.8322 40.6636 53.0605 40.8944 53.3249 41.1131C53.373 41.1374 53.385 41.2103 53.4211 41.1131C53.4812 40.9795 53.5292 40.8337 53.5773 40.7C54.1181 39.3029 54.6349 37.6142 54.1302 36.0348C53.8778 35.2452 53.4091 34.662 52.7841 34.5405C52.1952 34.4312 51.6063 34.7714 51.3299 35.5246C51.0294 36.3507 51.0775 37.3834 51.0415 38.2824C51.0174 39.2786 51.0174 40.2627 51.0415 41.2589C51.0655 43.1906 51.2217 45.1344 51.402 47.0418C51.7626 50.7958 52.2793 54.5134 52.6279 58.2674C52.8682 60.8795 53.0365 63.5158 53.0004 66.1521C52.9644 68.6305 52.736 71.0481 52.3154 73.4658C53.0125 70.2706 53.3129 67.0025 53.2889 63.6494C53.2648 59.9561 52.9043 56.2872 52.5197 52.6303C52.1111 48.7791 51.6304 44.9036 51.5462 41.0038C51.5222 40.0318 51.5102 39.0599 51.5342 38.0759C51.5462 37.2983 51.4621 36.2778 51.8106 35.6096C52.1592 34.9414 52.9043 34.99 53.3369 35.4517C53.8417 35.9741 54.01 36.9582 53.9739 37.7964C53.9258 38.7927 53.6134 39.6917 53.3129 40.5664C53.2408 40.7729 53.0004 40.4085 52.9283 40.3113C52.6639 39.9347 52.4836 39.4487 52.3995 38.9263C52.3274 38.4039 52.3394 37.8329 52.4957 37.3469C52.5197 37.274 52.5317 37.189 52.5918 37.1647C52.6759 37.104 52.8682 37.1161 52.9403 37.1525C53.0245 37.1768 53.1086 37.2011 53.1927 37.2497C53.2769 37.2862 53.2288 37.5899 53.2408 37.6993C53.2408 38.1123 53.2528 38.5132 53.2648 38.9263L53.2769 38.9384Z" fill="black"/>
<path opacity="0.2" d="M54.2623 41.4531C54.1301 47.1753 54.1061 52.8974 54.1181 58.6196C54.1301 65.1922 54.1902 71.7648 54.3464 78.3374C54.3705 79.2485 54.3945 80.1719 54.4185 81.083C54.5387 77.086 54.5988 73.089 54.6349 69.092C54.707 61.8634 54.6349 54.6469 54.4426 47.4183C54.3945 45.4258 54.3344 43.4456 54.2623 41.4531Z" fill="black"/>
<path opacity="0.2" d="M49.5752 48.828C49.3589 50.2859 49.1786 51.7438 49.0825 53.2138C49.0585 53.5054 49.0464 53.7726 49.0344 54.0642V60.5153C49.1666 63.7712 49.431 66.9907 49.6474 70.2223C49.7916 72.397 49.8757 74.5717 49.9238 76.7585C50.104 73.4904 50.068 70.2709 49.9238 67.0029C49.7435 63.2002 49.443 59.4098 49.383 55.6071C49.3349 53.3231 49.431 51.0756 49.5752 48.8037V48.828Z" fill="black"/>
<path opacity="0.2" d="M50.5728 0.0136719H50.2843C50.3324 1.93321 50.3805 3.85274 50.4286 5.77228C50.6088 13.4626 50.717 21.1772 49.7916 28.7824C49.5633 30.6776 49.383 32.585 49.3469 34.5167C49.3469 34.7111 49.3469 34.9055 49.3469 35.0999C49.3469 36.8493 49.4431 38.5988 49.5392 40.3482C49.7315 44.0779 50.044 47.8077 50.5487 51.4767C50.693 52.5701 50.8492 53.6635 50.9934 54.7569C50.693 51.8047 50.3685 48.8525 50.1882 45.876C50.068 43.9807 49.9719 42.0977 49.9118 40.2024C49.8517 38.2586 49.7676 36.3026 49.8277 34.3588C49.8757 32.4149 50.1041 30.4954 50.3565 28.5759C50.6088 26.6563 50.7531 24.7125 50.8853 22.7687C51.1136 18.9417 51.1136 15.0905 51.0175 11.2515C50.9213 7.50958 50.7651 3.7677 50.5848 0.0258208L50.5728 0.0136719Z" fill="black"/>
<path opacity="0.2" d="M56.4497 0.0135557H56.1733C55.981 1.32564 55.8128 2.66203 55.7166 3.99841C55.5844 5.9058 55.5964 7.82534 55.6685 9.73272C55.957 17.4595 56.8103 25.1254 56.9665 32.8643C57.0386 36.8006 56.8944 40.7126 56.5098 44.6002C56.3295 46.4955 56.1132 48.3785 55.981 50.2738C55.8488 52.1204 55.8007 53.9428 55.8368 55.7894C55.8969 58.7173 56.2214 61.6331 56.5339 64.5245C56.3175 61.6938 56.0651 58.8509 56.0531 56.0081C56.0531 54.1371 56.1252 52.2905 56.2935 50.4439C56.4617 48.5729 56.6901 46.7141 56.9064 44.8553C57.303 41.3443 57.5073 37.8211 57.5073 34.2615C57.5073 33.897 57.5073 33.5447 57.5073 33.1802C57.4593 29.2196 57.2069 25.2712 56.9184 21.3228C56.642 17.5931 56.3416 13.8755 56.1373 10.1458C56.0291 8.2627 55.969 6.35531 56.0531 4.46007C56.1132 2.9536 56.2695 1.47143 56.4617 -0.0107422L56.4497 0.0135557Z" fill="black"/>
<path opacity="0.2" d="M54.1302 0.0136719H53.7336C53.5293 2.50421 53.4211 5.00689 53.4572 7.53388C53.5413 15.0541 54.7191 22.4528 54.8393 29.9851C54.8753 32.0748 54.7792 34.1401 54.635 36.2176C54.9595 33.3869 55.1277 30.5804 55.0917 27.7011C55.0436 23.9836 54.7551 20.2781 54.4907 16.5727C54.2023 12.685 53.9379 8.78522 53.974 4.87325C53.986 3.25744 54.0461 1.62948 54.1422 0.0136719H54.1302Z" fill="black"/>
<path opacity="0.2" d="M51.7746 0.0131255H51.3179C51.2218 1.90836 51.1857 3.81575 51.2458 5.72314C51.3059 7.69127 51.4141 9.6594 51.6544 11.6032C51.7746 12.5751 51.9068 13.5471 52.027 14.519C52.1352 15.4666 52.2914 16.4142 52.3635 17.374C52.6399 21.043 52.688 24.7606 52.8082 28.4417C52.8442 29.4865 52.8803 30.5313 52.9163 31.5761C52.9404 29.4136 52.9524 27.2511 52.9644 25.0886C52.9644 23.2055 53.0005 21.3102 52.9163 19.4272C52.8803 18.4431 52.8442 17.459 52.7481 16.4871C52.6519 15.5273 52.5558 14.5554 52.4356 13.5835C52.2073 11.6397 51.9909 9.72014 51.8587 7.75201C51.7265 5.85677 51.7386 3.93724 51.7386 2.02985C51.7386 1.34951 51.7506 0.681318 51.7746 0.000976562V0.0131255Z" fill="black"/>
<path opacity="0.2" d="M55.8127 64.5361C55.8849 66.0183 56.0771 67.464 56.2815 68.9341C56.4016 69.8574 56.5338 70.7685 56.63 71.6919C56.7261 72.6273 56.7502 73.5628 56.7502 74.5104C56.7502 78.4102 56.9064 82.2858 57.1348 86.1734C57.291 88.834 57.4833 91.4947 57.6515 94.1553C57.7958 96.4393 57.8799 98.7233 57.952 101.019C58.0361 98.0551 58.0241 95.1151 57.928 92.1507C57.7958 88.3845 57.5794 84.6427 57.4232 80.8765C57.3631 79.37 57.291 77.8635 57.2549 76.3449C57.2189 74.887 57.2309 73.4049 57.0386 71.9713C56.7021 69.4686 56.1132 67.051 55.8368 64.5361H55.8127Z" fill="black"/>
<path opacity="0.2" d="M49.6713 114.348C49.6112 117.13 49.5271 119.9 49.3829 122.682C49.2988 124.322 49.1786 125.95 49.0464 127.566V131.113C49.3348 129.388 49.5752 127.626 49.7314 125.828C50.0319 122.378 50.0199 118.879 49.7675 115.417C49.7434 115.052 49.7194 114.7 49.6834 114.323L49.6713 114.348Z" fill="black"/>
<path d="M43.47 19.7796C43.422 19.889 43.422 20.2656 43.6022 20.788C43.7945 21.3347 44.0349 21.6992 44.3354 21.9665C44.768 22.3431 46.1982 21.2254 46.4145 20.4721C46.6068 19.7918 46.5587 19.0993 46.5107 18.2853C46.4866 17.9694 46.5587 17.5928 46.8231 17.4106C46.9193 17.3377 47.0515 17.3134 47.1717 17.3013C47.4841 17.2648 47.7966 17.3013 48.0971 17.277C48.4095 17.2648 48.734 17.1798 48.9504 16.9611C49.1787 16.7424 49.2508 16.3536 49.0465 16.1107C48.9143 15.9649 48.6259 15.9527 48.4336 15.9527C47.9408 15.9284 47.4601 15.6976 47.1476 15.6854C46.2823 15.6368 45.9338 16.0621 45.1886 16.4873C44.9723 16.6088 44.744 16.7424 44.5998 16.9368C44.4796 17.0947 44.4075 17.2891 44.3354 17.4713C44.0469 18.2367 43.7585 19.0021 43.4821 19.7675L43.47 19.7796Z" fill="#FFCFA1"/>
<path d="M48.8061 37.1898L52.3154 37.1169L52.5197 36.8253L52.3034 36.5459L48.7941 36.6188L48.8061 37.1898Z" fill="#B2B2B2"/>
<path d="M51.2578 37.129H51.6664L52.3034 36.5459L51.9068 36.558L51.2578 37.129Z" fill="#DADADA"/>
<path d="M50.4646 37.1535L50.8732 37.1413L51.5102 36.5703H51.1016L50.4646 37.1535Z" fill="#DADADA"/>
<path d="M49.6714 37.1652H50.068L50.717 36.582L50.3084 36.5942L49.6714 37.1652Z" fill="#DADADA"/>
<path d="M48.8662 37.19L49.2748 37.1779L49.9118 36.5947L49.5152 36.6069L48.8662 37.19Z" fill="#DADADA"/>
<path d="M33.7472 43.5556L35.2134 43.5313C35.7903 43.5313 36.2951 43.1061 36.4032 42.5229L36.8479 40.2754L34.288 40.324L33.7472 43.5556Z" fill="#F39200"/>
<path d="M48.6 35.8108L47.3143 35.8369L47.3589 38.0476L48.6446 38.0214L48.6 35.8108Z" fill="#B2B2B2"/>
<path d="M49.2028 37.6149L48.6379 38.0158L48.5898 35.8047L49.1787 36.1935L49.2028 37.6149Z" fill="#DADADA"/>
<path d="M44.167 38.4286C45.2847 38.5258 46.4024 38.5015 47.5201 38.3557C47.4961 37.4081 47.4841 36.4483 47.46 35.5007C46.3423 35.4035 45.2246 35.4278 44.1069 35.5736C44.131 36.5212 44.143 37.481 44.167 38.4286Z" fill="#575756"/>
<path d="M46.4024 38.4655C46.5827 38.4655 46.751 38.4412 46.9192 38.4291C46.8952 37.4329 46.8832 36.4488 46.8591 35.4526C46.6789 35.4526 46.5106 35.4404 46.3303 35.4404C46.3544 36.4488 46.3664 37.4572 46.3904 38.4777L46.4024 38.4655Z" fill="#878787"/>
<path d="M44.5155 38.4651C44.8761 38.4894 45.2366 38.5015 45.5972 38.5015C45.5731 37.481 45.5611 36.4727 45.5371 35.4521C45.1765 35.4643 44.816 35.4886 44.4554 35.525C44.4795 36.5091 44.4915 37.481 44.5155 38.4651Z" fill="#878787"/>
<path d="M44.1283 36.0165L43.7438 36.0244L43.7838 38.0043L44.1683 37.9963L44.1283 36.0165Z" fill="#B2B2B2"/>
<path d="M47.8206 36.8617C47.8206 36.9832 47.9287 37.0804 48.0489 37.0804C48.1691 37.0804 48.2652 36.971 48.2652 36.8495C48.2652 36.7281 48.1571 36.6309 48.0369 36.6309C47.9167 36.6309 47.8206 36.7402 47.8206 36.8617Z" fill="#575756"/>
<path d="M43.7165 34.6632L42.4429 34.6895L42.5378 39.3901L43.8115 39.3638L43.7165 34.6632Z" fill="#04808C"/>
<path d="M30.3341 47.0066C30.3341 47.2252 30.3461 47.4561 30.3701 47.6748C30.3821 47.8691 30.5264 48.0149 30.7066 48.0514L32.8218 48.4158C33.1343 48.4644 33.4468 48.2701 33.5189 47.9542L33.615 47.5411L35.0452 41.8068C35.1774 41.2844 35.6341 40.9078 36.1749 40.8956L40.4414 40.8106L42.5085 38.7453V37.8584L40.4294 39.9237L35.2495 40.0331L31.3797 40.1181L31.1513 40.0938C31.0431 40.3732 30.959 40.6891 30.8629 41.0171C30.4543 42.6086 30.2379 44.7712 30.3221 47.0187L30.3341 47.0066Z" fill="#04808C"/>
<path d="M31.1512 40.1055L35.2495 40.0205L40.4293 39.9111L42.4965 37.8458L42.4364 35.1123L31.9084 35.331C31.7161 35.331 31.5238 35.416 31.4036 35.5618C31.3556 35.6226 31.3075 35.6833 31.2714 35.7562L31.2234 35.8655C31.2234 35.8655 31.2113 35.902 31.1993 35.9141C31.1392 36.0842 31.1993 36.2786 31.3435 36.4001L31.4397 36.4851C31.632 36.6431 31.7642 36.8375 31.8483 37.0561C31.9565 37.3356 31.9565 37.6636 31.8603 37.9552L31.1512 40.0812C31.1512 40.0812 31.1512 40.0934 31.1512 40.1055Z" fill="#0593A1"/>
<path d="M31.6801 42.4014C31.6801 42.8874 32.0887 43.2761 32.5814 43.2761C33.0622 43.2761 33.4467 42.8631 33.4467 42.365C33.4467 41.879 33.0381 41.4902 32.5454 41.4902C32.0646 41.4902 31.6801 41.9033 31.6801 42.4014Z" fill="#035861"/>
<path d="M31.2114 35.902L36.6316 35.7927C36.9441 35.7927 37.1844 35.5254 37.1724 35.2217L31.9084 35.331C31.7161 35.331 31.5238 35.4161 31.4037 35.5619C31.3556 35.6226 31.3075 35.6833 31.2715 35.7562L31.2234 35.8656C31.2234 35.8656 31.2114 35.902 31.1993 35.9142L31.2114 35.902Z" fill="#04808C"/>
<path d="M31.8484 42.4012C31.8484 42.7899 32.1729 43.1058 32.5695 43.0936C32.954 43.0936 33.2665 42.7656 33.2545 42.3647C33.2545 41.9759 32.93 41.6601 32.5334 41.6722C32.1488 41.6722 31.8363 42.0002 31.8484 42.4012Z" fill="#0593A1"/>
<path d="M32.0406 42.4013C32.0406 42.6807 32.281 42.9116 32.5574 42.9116C32.8339 42.9116 33.0622 42.6686 33.0622 42.3892C33.0622 42.1097 32.8218 41.8789 32.5454 41.8789C32.269 41.8789 32.0406 42.1219 32.0406 42.4013Z" fill="#F39200"/>
<path d="M32.7496 37.3967L34.3841 37.3603C34.4442 37.3603 34.4923 37.3117 34.4923 37.2509C34.4923 37.1902 34.4442 37.1416 34.3841 37.1416L32.7496 37.178C32.6896 37.178 32.6415 37.2266 32.6415 37.2874C32.6415 37.3481 32.6896 37.3967 32.7496 37.3967Z" fill="#035861"/>
<path d="M32.7617 37.7971L34.3962 37.7607C34.4563 37.7607 34.5044 37.7121 34.5044 37.6513C34.5044 37.5906 34.4563 37.542 34.3962 37.542L32.7617 37.5784C32.7016 37.5784 32.6536 37.627 32.6536 37.6878C32.6536 37.7485 32.7016 37.7971 32.7617 37.7971Z" fill="#035861"/>
<path d="M32.6656 38.1985L34.3962 38.162C34.4563 38.162 34.5164 38.1134 34.5043 38.0527C34.5043 37.992 34.4563 37.9434 34.3842 37.9434L32.6535 37.9798C32.5934 37.9798 32.5334 38.0284 32.5454 38.0891C32.5454 38.1499 32.5934 38.1985 32.6656 38.1985Z" fill="#035861"/>
<path d="M32.5934 38.5872L34.3962 38.5507C34.4683 38.5507 34.5164 38.5021 34.5164 38.4414C34.5164 38.3806 34.4563 38.332 34.3962 38.332L32.5934 38.3685C32.5213 38.3685 32.4733 38.4171 32.4733 38.4778C32.4733 38.5386 32.5334 38.5872 32.5934 38.5872Z" fill="#035861"/>
<path d="M32.4973 38.9876L34.4082 38.9511C34.4803 38.9511 34.5284 38.9025 34.5284 38.8418C34.5284 38.781 34.4683 38.7324 34.3962 38.7324L32.4853 38.7689C32.4132 38.7689 32.3651 38.8175 32.3651 38.8782C32.3651 38.939 32.4252 38.9876 32.4973 38.9876Z" fill="#035861"/>
<path d="M32.3531 39.3889L34.4082 39.3525C34.4803 39.3525 34.5404 39.3039 34.5404 39.2431C34.5404 39.1824 34.4803 39.1338 34.3962 39.1338L32.3411 39.1702C32.269 39.1702 32.2089 39.2188 32.2089 39.2796C32.2089 39.3403 32.269 39.3889 32.3531 39.3889Z" fill="#035861"/>
<path d="M32.6295 36.4975C32.6295 36.6311 32.7497 36.7405 32.8939 36.7405L41.0904 36.5704C41.2346 36.5704 41.3427 36.4489 41.3427 36.3152C41.3427 36.1816 41.2226 36.0723 41.0783 36.0723L32.8819 36.2424C32.7377 36.2424 32.6295 36.3638 32.6295 36.4975Z" fill="#04808C"/>
<path d="M37.9776 39.1088C37.9776 39.1939 38.0377 39.2668 38.0978 39.2668C38.1579 39.2668 38.2059 39.1939 38.2059 39.0967L38.1699 37.2136C38.1699 37.1286 38.1098 37.0557 38.0497 37.0557C37.9896 37.0557 37.9415 37.1286 37.9415 37.2257L37.9776 39.1088Z" fill="#035861"/>
<path d="M38.4583 39.0971C38.4583 39.1822 38.5184 39.2551 38.5785 39.2551C38.6386 39.2551 38.6866 39.1822 38.6866 39.085L38.6506 37.2019C38.6506 37.1168 38.5905 37.0439 38.5304 37.0439C38.4703 37.0439 38.4222 37.1168 38.4222 37.214L38.4583 39.0971Z" fill="#035861"/>
<path d="M38.9511 39.0971C38.9511 39.1822 39.0112 39.2551 39.0713 39.2551C39.1314 39.2551 39.1794 39.1822 39.1794 39.085L39.1434 37.2019C39.1434 37.1168 39.0833 37.0439 39.0232 37.0439C38.9631 37.0439 38.915 37.1168 38.915 37.214L38.9511 39.0971Z" fill="#035861"/>
<path d="M39.4318 39.0854C39.4318 39.1704 39.4919 39.2433 39.552 39.2433C39.6121 39.2433 39.6602 39.1704 39.6602 39.0733L39.6241 37.1902C39.6241 37.1051 39.564 37.0322 39.5039 37.0322C39.4438 37.0322 39.3958 37.1051 39.3958 37.2023L39.4318 39.0854Z" fill="#035861"/>
<path d="M39.9246 39.0727C39.9246 39.1577 39.9847 39.2306 40.0448 39.2306C40.1049 39.2306 40.153 39.1578 40.153 39.0606L40.1169 37.1775C40.1169 37.0924 40.0568 37.0195 39.9967 37.0195C39.9366 37.0195 39.8885 37.0924 39.8885 37.1896L39.9246 39.0727Z" fill="#035861"/>
<path d="M37.3612 37.0787L35.0541 37.1264C34.9081 37.1294 34.7922 37.2515 34.7952 37.3991L34.8291 39.0753C34.832 39.2228 34.9528 39.34 35.0988 39.337L37.4058 39.2894C37.5518 39.2864 37.6678 39.1643 37.6648 39.0167L37.6309 37.3405C37.6279 37.1929 37.5072 37.0757 37.3612 37.0787Z" fill="#B2B2B2"/>
<path d="M30.334 47.0059C30.334 47.2245 30.346 47.4554 30.37 47.6741C30.3821 47.8684 30.5263 48.0142 30.7065 48.0507L32.8218 48.4151C33.1342 48.4637 33.4467 48.2694 33.5188 47.9535L33.615 47.5404L30.334 47.0059Z" fill="#0593A1"/>
<path d="M41.3347 36.9121L40.8421 36.9223C40.6695 36.9258 40.5325 37.0701 40.536 37.2445L40.5439 37.6332C40.5474 37.8076 40.6901 37.9461 40.8627 37.9426L41.3553 37.9324C41.5279 37.9288 41.6649 37.7845 41.6614 37.6101L41.6535 37.2214C41.65 37.047 41.5073 36.9085 41.3347 36.9121Z" fill="#035861"/>
<path d="M41.3496 37.0691L40.845 37.0795C40.7521 37.0815 40.6783 37.1591 40.6802 37.2531L40.688 37.6417C40.6899 37.7357 40.7668 37.8102 40.8597 37.8083L41.3644 37.7979C41.4573 37.796 41.531 37.7183 41.5291 37.6244L41.5213 37.2357C41.5194 37.1418 41.4425 37.0672 41.3496 37.0691Z" fill="#F39200"/>
<path d="M5.66058 37.6149C8.34064 42.4381 9.0377 47.6014 12.4148 51.0031C17.2101 51.5133 27.7861 48.3546 29.2163 47.6743L31.0191 47.8322L31.4637 47.8687L32.4973 47.9537C32.4973 47.9537 34.7087 47.5649 34.937 47.1762C35.1653 46.7996 35.1413 46.4715 35.1653 46.3743C35.1653 46.3743 35.6701 46.2286 35.8143 45.8276C35.9585 45.3903 36.0186 45.1959 35.8143 44.88C35.8143 44.88 36.235 44.6006 36.3311 44.1511C36.3792 43.9445 36.3912 43.5072 36.1989 43.1427L37.7132 42.4988C38.5905 42.1101 38.1819 41.0531 37.3166 40.9316C37.2205 40.9195 36.8239 40.8709 36.7397 40.883C36.6676 40.883 36.7157 41.1017 36.6556 41.1017C36.1629 41.1503 36.0427 41.1503 35.5019 41.211C35.4538 41.211 35.4177 41.2232 35.3576 41.2353L34.2279 41.2839C33.1463 41.4419 31.656 41.3568 30.8147 41.2353L31.0551 40.3606L29.1803 40.9924L28.7837 41.5755L27.8342 42.9483L16.7174 42.7054L11.9341 33.5693L5.64856 37.6028L5.66058 37.6149Z" fill="#FFCFA1"/>
<path opacity="0.1" d="M30.1057 42.5234L29.1442 42.1953L28.7837 41.5879L27.8342 42.9607L30.1057 42.5234Z" fill="#1D1D1B"/>
<path opacity="0.1" d="M12.4148 51.0029C17.2101 51.5131 27.7861 48.3544 29.2163 47.6741L31.019 47.832L31.4637 47.8684L32.4973 47.9535C32.4973 47.9535 34.7086 47.5647 34.937 47.176C35.1653 46.7993 35.1413 46.4713 35.1653 46.3741C35.1653 46.3741 35.6701 46.2283 35.8143 45.8274C35.9585 45.3901 36.0186 45.1957 35.8143 44.8798C35.8143 44.8798 36.2349 44.6004 36.3311 44.1509C36.3792 43.9443 36.3912 43.507 36.1989 43.1425L37.7132 42.4986C38.5905 42.1098 38.1338 41.065 37.3166 40.9314C37.2325 40.9192 36.908 40.8706 36.7397 40.8828C36.6315 40.8828 36.7036 41.1015 36.6556 41.1015C36.1268 41.1501 36.0787 41.1501 35.5018 41.2108C35.9465 41.8547 36.0186 42.7416 35.2735 43.106C35.622 43.5799 35.4778 44.5518 34.9009 44.6125C35.2494 45.0863 35.2615 46.0339 34.3481 46.2891C34.3961 47.2245 32.8698 48.1236 29.673 47.176L29.024 45.4994L28.2668 46.9694C23.9884 49.2777 16.5851 50.5291 12.4148 50.9786V51.0029Z" fill="#1D1D1B"/>
</g>
<path d="M68.9655 0.0126953H60.012V138.013H68.9655V0.0126953Z" fill="#BFA07C"/>
<path opacity="0.2" d="M61.7787 59.3848C61.959 60.7454 62.1273 62.094 62.2234 63.4668C62.3316 64.9733 62.3917 66.4798 62.4037 67.9862C62.4277 71.7281 62.1874 75.47 61.8869 79.1876C61.5865 83.0023 61.2379 86.805 61.0697 90.6319C60.8894 94.6046 60.9495 98.6016 61.1538 102.574C61.5384 110.143 62.2835 117.675 62.3076 125.269C62.3196 129.545 62.0672 133.785 61.6225 138.001H61.7908C61.8989 137.162 61.9951 136.324 62.0792 135.486C62.4518 131.78 62.6801 128.039 62.6921 124.297C62.7162 116.606 62.0191 108.977 61.6465 101.311C61.4543 97.3746 61.4543 93.4019 61.6465 89.4534C61.8268 85.6387 62.1393 81.8482 62.3797 78.0456C62.608 74.5102 62.7402 70.9506 62.608 67.4031C62.5599 66.0302 62.4758 64.6574 62.3316 63.2967C62.1994 61.9846 62.0071 60.6969 61.7908 59.3969L61.7787 59.3848Z" fill="black"/>
<path opacity="0.2" d="M63.8098 109.913C63.954 116.254 64.3626 122.572 64.4828 128.914C64.5308 131.513 64.5188 134.113 64.3866 136.713C64.3626 137.138 64.3386 137.564 64.3025 137.989H64.5789C64.7472 136.543 64.8674 135.097 64.9274 133.615C65.1077 129.776 64.9755 125.913 64.7472 122.074C64.5068 118.004 64.1823 113.946 63.7977 109.9L63.8098 109.913Z" fill="black"/>
<path opacity="0.2" d="M64.6751 73.3076C64.3507 76.2112 64.0502 79.127 63.8819 82.067C63.6656 85.9061 63.7137 89.7209 64.0863 93.5356C64.4588 97.314 65.0477 101.044 65.4684 104.822C65.8289 108.054 66.0092 111.285 65.889 114.553C65.889 114.699 65.889 114.833 65.877 114.979C65.9851 113.776 66.0813 112.573 66.1173 111.358C66.1654 109.621 66.0933 107.884 65.9851 106.158C65.7328 102.368 65.204 98.626 64.7953 94.8599C64.579 92.9403 64.3987 91.0208 64.3026 89.077C64.2064 87.1574 64.1944 85.2136 64.2305 83.2941C64.2906 80.0624 64.4949 76.843 64.6751 73.6235C64.6751 73.5263 64.6752 73.417 64.6872 73.3198L64.6751 73.3076Z" fill="black"/>
<path opacity="0.2" d="M62.7281 92.126C62.7281 93.0614 62.7762 93.9969 62.8243 94.9445C62.8844 96.4267 62.8964 97.921 62.9805 99.4154C63.0046 100.873 63.0767 102.331 63.1248 103.789C63.1488 104.761 63.1728 105.721 63.2209 106.693C63.4733 104.263 63.5574 101.833 63.5214 99.3789C63.3892 96.9248 63.1488 94.5315 62.7281 92.1381V92.126Z" fill="black"/>
<path opacity="0.2" d="M66.8024 75.3364C66.6702 76.4662 66.5259 77.5961 66.4298 78.7381C66.2736 80.5726 66.1654 82.4071 66.1414 84.2537C66.0693 87.8741 66.1774 91.4945 66.3577 95.1027C66.7303 102.854 67.4033 110.58 67.1629 118.356C67.0547 122.037 66.7663 125.694 66.574 129.363C66.4899 131.185 66.4058 133.02 66.4058 134.842C66.4058 135.899 66.4298 136.944 66.4538 137.989H66.5139C66.5139 135.559 66.5981 133.129 66.7663 130.711C67.0187 127.152 67.3432 123.604 67.5595 120.032C67.7758 116.084 67.7758 112.123 67.6076 108.163C67.4393 104.312 67.1629 100.473 66.9105 96.6335C66.6702 93.0252 66.4659 89.3927 66.4058 85.7602C66.3577 82.3828 66.4899 79.0418 66.7783 75.6887C66.7783 75.5672 66.8024 75.4457 66.8144 75.3242L66.8024 75.3364Z" fill="black"/>
<path opacity="0.2" d="M64.2424 38.9502C64.2424 38.6829 64.2424 38.4035 64.2544 38.1362C64.2544 37.9296 64.2544 37.711 64.2665 37.5044C64.2665 37.2979 64.2905 37.2979 64.2064 37.2007C63.978 37.0671 63.7617 37.0306 63.5213 37.0671C63.3411 37.14 63.269 37.6867 63.2329 37.9054C63.1127 38.7315 63.2569 39.6427 63.6175 40.323C63.7978 40.6753 64.0261 40.9061 64.2905 41.1248C64.3386 41.1491 64.3506 41.222 64.3867 41.1248C64.4467 40.9912 64.4948 40.8454 64.5429 40.7118C65.0837 39.3146 65.6005 37.6259 65.0957 36.0466C64.8433 35.2569 64.3746 34.6737 63.7497 34.5522C63.1608 34.4429 62.5719 34.7831 62.2955 35.5363C61.995 36.3624 62.0431 37.3951 62.007 38.2941C61.983 39.2903 61.983 40.2744 62.007 41.2706C62.0311 43.2023 62.1873 45.1461 62.3676 47.0535C62.7281 50.8075 63.2449 54.5251 63.5934 58.2792C63.8338 60.8912 64.0021 63.5275 63.966 66.1638C63.93 68.6422 63.7016 71.0599 63.281 73.4775C63.978 70.2823 64.2785 67.0143 64.2544 63.6611C64.2304 59.9679 63.8699 56.2989 63.4853 52.642C63.0767 48.7908 62.5959 44.9153 62.5118 41.0155C62.4878 40.0436 62.4758 39.0717 62.4998 38.0876C62.5118 37.3101 62.4277 36.2895 62.7762 35.6213C63.1247 34.9532 63.8699 35.0018 64.3025 35.4634C64.8073 35.9858 64.9755 36.9699 64.9395 37.8082C64.8914 38.8044 64.5789 39.7034 64.2785 40.5781C64.2064 40.7847 63.966 40.4202 63.8939 40.323C63.6295 39.9464 63.4492 39.4604 63.3651 38.938C63.293 38.4156 63.305 37.8446 63.4612 37.3586C63.4853 37.2858 63.4973 37.2007 63.5574 37.1764C63.6415 37.1157 63.8338 37.1278 63.9059 37.1643C63.99 37.1886 64.0742 37.2129 64.1583 37.2615C64.2424 37.2979 64.1944 37.6016 64.2064 37.711C64.2064 38.124 64.2184 38.5249 64.2304 38.938L64.2424 38.9502Z" fill="black"/>
<path opacity="0.2" d="M65.2279 41.4648C65.0957 47.187 65.0716 52.9092 65.0837 58.6313C65.0957 65.2039 65.1558 71.7765 65.312 78.3491C65.3361 79.2603 65.3601 80.1836 65.3841 81.0947C65.5043 77.0977 65.5644 73.1007 65.6005 69.1037C65.6726 61.8751 65.6005 54.6586 65.4082 47.43C65.3601 45.4376 65.3 43.4573 65.2279 41.4648Z" fill="black"/>
<path opacity="0.2" d="M60.5408 48.8397C60.3245 50.2976 60.1442 51.7555 60.0481 53.2255C60.024 53.5171 60.012 53.7844 60 54.0759V60.527C60.1322 63.7829 60.3966 67.0024 60.6129 70.234C60.7572 72.4087 60.8413 74.5834 60.8894 76.7702C61.0696 73.5021 61.0336 70.2826 60.8894 67.0146C60.7091 63.2119 60.4086 59.4215 60.3485 55.6188C60.3005 53.3348 60.3966 51.0873 60.5408 48.8154V48.8397Z" fill="black"/>
<path opacity="0.2" d="M61.5384 0.0253906H61.2499C61.298 1.94493 61.3461 3.86446 61.3941 5.784C61.5744 13.4743 61.6826 21.1889 60.7572 28.7941C60.5288 30.6894 60.3486 32.5967 60.3125 34.5284C60.3125 34.7228 60.3125 34.9172 60.3125 35.1116C60.3125 36.861 60.4086 38.6105 60.5048 40.3599C60.6971 44.0897 61.0096 47.8194 61.5143 51.4884C61.6585 52.5818 61.8148 53.6752 61.959 54.7686C61.6585 51.8164 61.334 48.8642 61.1538 45.8877C61.0336 43.9925 60.9374 42.1094 60.8774 40.2141C60.8173 38.2703 60.7331 36.3143 60.7932 34.3705C60.8413 32.4267 61.0696 30.5071 61.322 28.5876C61.5744 26.6681 61.7186 24.7242 61.8508 22.7804C62.0792 18.9535 62.0792 15.1022 61.983 11.2632C61.8869 7.5213 61.7307 3.77942 61.5504 0.0375396L61.5384 0.0253906Z" fill="black"/>
<path opacity="0.2" d="M67.4153 0.0252745H67.1389C66.9466 1.33736 66.7783 2.67375 66.6822 4.01013C66.55 5.91752 66.562 7.83705 66.6341 9.74444C66.9226 17.4712 67.7759 25.1372 67.9321 32.8761C68.0042 36.8123 67.86 40.7243 67.4754 44.6119C67.2951 46.5072 67.0788 48.3903 66.9466 50.2855C66.8144 52.1321 66.7663 53.9545 66.8024 55.8011C66.8625 58.729 67.187 61.6448 67.4994 64.5362C67.2831 61.7055 67.0307 58.8627 67.0187 56.0198C67.0187 54.1489 67.0908 52.3022 67.2591 50.4556C67.4273 48.5847 67.6557 46.7259 67.872 44.8671C68.2686 41.356 68.4729 37.8328 68.4729 34.2732C68.4729 33.9087 68.4729 33.5564 68.4729 33.1919C68.4248 29.2314 68.1725 25.283 67.884 21.3345C67.6076 17.6048 67.3071 13.8872 67.1028 10.1575C66.9947 8.27442 66.9346 6.36703 67.0187 4.47179C67.0788 2.96532 67.235 1.48315 67.4273 0.000976562L67.4153 0.0252745Z" fill="black"/>
<path opacity="0.2" d="M65.0958 0.0253906H64.6992C64.4949 2.51593 64.3867 5.01861 64.4228 7.54559C64.5069 15.0658 65.6847 22.4645 65.8048 29.9969C65.8409 32.0865 65.7448 34.1518 65.6005 36.2293C65.925 33.3986 66.0933 30.5922 66.0572 27.7129C66.0092 23.9953 65.7207 20.2899 65.4563 16.5844C65.1679 12.6968 64.9035 8.79694 64.9395 4.88497C64.9516 3.26916 65.0116 1.6412 65.1078 0.0253906H65.0958Z" fill="black"/>
<path opacity="0.2" d="M62.7402 0.0248443H62.2835C62.1873 1.92008 62.1513 3.82747 62.2114 5.73485C62.2715 7.70299 62.3796 9.67112 62.62 11.615C62.7402 12.5869 62.8724 13.5588 62.9926 14.5307C63.1007 15.4783 63.257 16.4259 63.3291 17.3857C63.6055 21.0547 63.6536 24.7723 63.7738 28.4534C63.8098 29.4982 63.8459 30.543 63.8819 31.5878C63.906 29.4253 63.918 27.2628 63.93 25.1003C63.93 23.2172 63.966 21.322 63.8819 19.4389C63.8459 18.4548 63.8098 17.4707 63.7137 16.4988C63.6175 15.5391 63.5214 14.5671 63.4012 13.5952C63.1728 11.6514 62.9565 9.73186 62.8243 7.76373C62.6921 5.86849 62.7041 3.94896 62.7041 2.04157C62.7041 1.36123 62.7162 0.693037 62.7402 0.0126953V0.0248443Z" fill="black"/>
<path opacity="0.2" d="M66.7783 64.5479C66.8504 66.03 67.0427 67.4758 67.247 68.9458C67.3672 69.8691 67.4994 70.7803 67.5956 71.7036C67.6917 72.6391 67.7157 73.5745 67.7157 74.5221C67.7157 78.422 67.872 82.2975 68.1003 86.1851C68.2566 88.8458 68.4489 91.5064 68.6171 94.167C68.7613 96.451 68.8455 98.735 68.9176 101.031C69.0017 98.0668 68.9897 95.1268 68.8935 92.1624C68.7613 88.3963 68.545 84.6544 68.3888 80.8882C68.3287 79.3817 68.2566 77.8753 68.2205 76.3566C68.1845 74.8988 68.1965 73.4166 68.0042 71.983C67.6677 69.4803 67.0788 67.0627 66.8024 64.5479H66.7783Z" fill="black"/>
<path opacity="0.2" d="M60.6369 114.359C60.5768 117.141 60.4927 119.911 60.3485 122.693C60.2643 124.334 60.1442 125.962 60.012 127.577V131.125C60.3004 129.4 60.5408 127.638 60.697 125.84C60.9975 122.39 60.9854 118.891 60.7331 115.428C60.709 115.064 60.685 114.712 60.6489 114.335L60.6369 114.359Z" fill="black"/>
<path d="M79.9655 0.0126953H71.012V138.013H79.9655V0.0126953Z" fill="#BFA07C"/>
<path opacity="0.2" d="M72.7787 59.3848C72.959 60.7454 73.1273 62.094 73.2234 63.4668C73.3316 64.9733 73.3917 66.4798 73.4037 67.9862C73.4277 71.7281 73.1874 75.47 72.8869 79.1876C72.5865 83.0023 72.2379 86.805 72.0697 90.6319C71.8894 94.6046 71.9495 98.6016 72.1538 102.574C72.5384 110.143 73.2835 117.675 73.3076 125.269C73.3196 129.545 73.0672 133.785 72.6225 138.001H72.7908C72.8989 137.162 72.9951 136.324 73.0792 135.486C73.4518 131.78 73.6801 128.039 73.6921 124.297C73.7162 116.606 73.0191 108.977 72.6465 101.311C72.4543 97.3746 72.4543 93.4019 72.6465 89.4534C72.8268 85.6387 73.1393 81.8482 73.3797 78.0456C73.608 74.5102 73.7402 70.9506 73.608 67.4031C73.5599 66.0302 73.4758 64.6574 73.3316 63.2967C73.1994 61.9846 73.0071 60.6969 72.7908 59.3969L72.7787 59.3848Z" fill="black"/>
<path opacity="0.2" d="M74.8098 109.913C74.954 116.254 75.3626 122.572 75.4828 128.914C75.5308 131.513 75.5188 134.113 75.3866 136.713C75.3626 137.138 75.3386 137.564 75.3025 137.989H75.5789C75.7472 136.543 75.8674 135.097 75.9274 133.615C76.1077 129.776 75.9755 125.913 75.7472 122.074C75.5068 118.004 75.1823 113.946 74.7977 109.9L74.8098 109.913Z" fill="black"/>
<path opacity="0.2" d="M75.6751 73.3076C75.3507 76.2112 75.0502 79.127 74.8819 82.067C74.6656 85.9061 74.7137 89.7209 75.0863 93.5356C75.4588 97.314 76.0477 101.044 76.4684 104.822C76.8289 108.054 77.0092 111.285 76.889 114.553C76.889 114.699 76.889 114.833 76.877 114.979C76.9851 113.776 77.0813 112.573 77.1173 111.358C77.1654 109.621 77.0933 107.884 76.9851 106.158C76.7328 102.368 76.204 98.626 75.7953 94.8599C75.579 92.9403 75.3987 91.0208 75.3026 89.077C75.2064 87.1574 75.1944 85.2136 75.2305 83.2941C75.2906 80.0624 75.4949 76.843 75.6751 73.6235C75.6751 73.5263 75.6752 73.417 75.6872 73.3198L75.6751 73.3076Z" fill="black"/>
<path opacity="0.2" d="M73.7281 92.126C73.7281 93.0614 73.7762 93.9969 73.8243 94.9445C73.8844 96.4267 73.8964 97.921 73.9805 99.4154C74.0046 100.873 74.0767 102.331 74.1248 103.789C74.1488 104.761 74.1728 105.721 74.2209 106.693C74.4733 104.263 74.5574 101.833 74.5214 99.3789C74.3892 96.9248 74.1488 94.5315 73.7281 92.1381V92.126Z" fill="black"/>
<path opacity="0.2" d="M77.8024 75.3364C77.6702 76.4662 77.5259 77.5961 77.4298 78.7381C77.2736 80.5726 77.1654 82.4071 77.1414 84.2537C77.0693 87.8741 77.1774 91.4945 77.3577 95.1027C77.7303 102.854 78.4033 110.58 78.1629 118.356C78.0547 122.037 77.7663 125.694 77.574 129.363C77.4899 131.185 77.4058 133.02 77.4058 134.842C77.4058 135.899 77.4298 136.944 77.4538 137.989H77.5139C77.5139 135.559 77.5981 133.129 77.7663 130.711C78.0187 127.152 78.3432 123.604 78.5595 120.032C78.7758 116.084 78.7758 112.123 78.6076 108.163C78.4393 104.312 78.1629 100.473 77.9105 96.6335C77.6702 93.0252 77.4659 89.3927 77.4058 85.7602C77.3577 82.3828 77.4899 79.0418 77.7783 75.6887C77.7783 75.5672 77.8024 75.4457 77.8144 75.3242L77.8024 75.3364Z" fill="black"/>
<path opacity="0.2" d="M75.2424 38.9502C75.2424 38.6829 75.2424 38.4035 75.2544 38.1362C75.2544 37.9296 75.2544 37.711 75.2665 37.5044C75.2665 37.2979 75.2905 37.2979 75.2064 37.2007C74.978 37.0671 74.7617 37.0306 74.5213 37.0671C74.3411 37.14 74.269 37.6867 74.2329 37.9054C74.1127 38.7315 74.2569 39.6427 74.6175 40.323C74.7978 40.6753 75.0261 40.9061 75.2905 41.1248C75.3386 41.1491 75.3506 41.222 75.3867 41.1248C75.4467 40.9912 75.4948 40.8454 75.5429 40.7118C76.0837 39.3146 76.6005 37.6259 76.0957 36.0466C75.8433 35.2569 75.3746 34.6737 74.7497 34.5522C74.1608 34.4429 73.5719 34.7831 73.2955 35.5363C72.995 36.3624 73.0431 37.3951 73.007 38.2941C72.983 39.2903 72.983 40.2744 73.007 41.2706C73.0311 43.2023 73.1873 45.1461 73.3676 47.0535C73.7281 50.8075 74.2449 54.5251 74.5934 58.2792C74.8338 60.8912 75.0021 63.5275 74.966 66.1638C74.93 68.6422 74.7016 71.0599 74.281 73.4775C74.978 70.2823 75.2785 67.0143 75.2544 63.6611C75.2304 59.9679 74.8699 56.2989 74.4853 52.642C74.0767 48.7908 73.5959 44.9153 73.5118 41.0155C73.4878 40.0436 73.4758 39.0717 73.4998 38.0876C73.5118 37.3101 73.4277 36.2895 73.7762 35.6213C74.1247 34.9532 74.8699 35.0018 75.3025 35.4634C75.8073 35.9858 75.9755 36.9699 75.9395 37.8082C75.8914 38.8044 75.5789 39.7034 75.2785 40.5781C75.2064 40.7847 74.966 40.4202 74.8939 40.323C74.6295 39.9464 74.4492 39.4604 74.3651 38.938C74.293 38.4156 74.305 37.8446 74.4612 37.3586C74.4853 37.2858 74.4973 37.2007 74.5574 37.1764C74.6415 37.1157 74.8338 37.1278 74.9059 37.1643C74.99 37.1886 75.0742 37.2129 75.1583 37.2615C75.2424 37.2979 75.1944 37.6016 75.2064 37.711C75.2064 38.124 75.2184 38.5249 75.2304 38.938L75.2424 38.9502Z" fill="black"/>
<path opacity="0.2" d="M76.2279 41.4648C76.0957 47.187 76.0716 52.9092 76.0837 58.6313C76.0957 65.2039 76.1558 71.7765 76.312 78.3491C76.3361 79.2603 76.3601 80.1836 76.3841 81.0947C76.5043 77.0977 76.5644 73.1007 76.6005 69.1037C76.6726 61.8751 76.6005 54.6586 76.4082 47.43C76.3601 45.4376 76.3 43.4573 76.2279 41.4648Z" fill="black"/>
<path opacity="0.2" d="M71.5408 48.8397C71.3245 50.2976 71.1442 51.7555 71.0481 53.2255C71.024 53.5171 71.012 53.7844 71 54.0759V60.527C71.1322 63.7829 71.3966 67.0024 71.6129 70.234C71.7572 72.4087 71.8413 74.5834 71.8894 76.7702C72.0696 73.5021 72.0336 70.2826 71.8894 67.0146C71.7091 63.2119 71.4086 59.4215 71.3485 55.6188C71.3005 53.3348 71.3966 51.0873 71.5408 48.8154V48.8397Z" fill="black"/>
<path opacity="0.2" d="M72.5384 0.0253906H72.2499C72.298 1.94493 72.3461 3.86446 72.3941 5.784C72.5744 13.4743 72.6826 21.1889 71.7572 28.7941C71.5288 30.6894 71.3486 32.5967 71.3125 34.5284C71.3125 34.7228 71.3125 34.9172 71.3125 35.1116C71.3125 36.861 71.4086 38.6105 71.5048 40.3599C71.6971 44.0897 72.0096 47.8194 72.5143 51.4884C72.6585 52.5818 72.8148 53.6752 72.959 54.7686C72.6585 51.8164 72.334 48.8642 72.1538 45.8877C72.0336 43.9925 71.9374 42.1094 71.8774 40.2141C71.8173 38.2703 71.7331 36.3143 71.7932 34.3705C71.8413 32.4267 72.0696 30.5071 72.322 28.5876C72.5744 26.6681 72.7186 24.7242 72.8508 22.7804C73.0792 18.9535 73.0792 15.1022 72.983 11.2632C72.8869 7.5213 72.7307 3.77942 72.5504 0.0375396L72.5384 0.0253906Z" fill="black"/>
<path opacity="0.2" d="M78.4153 0.0252745H78.1389C77.9466 1.33736 77.7783 2.67375 77.6822 4.01013C77.55 5.91752 77.562 7.83705 77.6341 9.74444C77.9226 17.4712 78.7759 25.1372 78.9321 32.8761C79.0042 36.8123 78.86 40.7243 78.4754 44.6119C78.2951 46.5072 78.0788 48.3903 77.9466 50.2855C77.8144 52.1321 77.7663 53.9545 77.8024 55.8011C77.8625 58.729 78.187 61.6448 78.4994 64.5362C78.2831 61.7055 78.0307 58.8627 78.0187 56.0198C78.0187 54.1489 78.0908 52.3022 78.2591 50.4556C78.4273 48.5847 78.6557 46.7259 78.872 44.8671C79.2686 41.356 79.4729 37.8328 79.4729 34.2732C79.4729 33.9087 79.4729 33.5564 79.4729 33.1919C79.4248 29.2314 79.1725 25.283 78.884 21.3345C78.6076 17.6048 78.3071 13.8872 78.1028 10.1575C77.9947 8.27442 77.9346 6.36703 78.0187 4.47179C78.0788 2.96532 78.235 1.48315 78.4273 0.000976562L78.4153 0.0252745Z" fill="black"/>
<path opacity="0.2" d="M76.0958 0.0253906H75.6992C75.4949 2.51593 75.3867 5.01861 75.4228 7.54559C75.5069 15.0658 76.6847 22.4645 76.8048 29.9969C76.8409 32.0865 76.7448 34.1518 76.6005 36.2293C76.925 33.3986 77.0933 30.5922 77.0572 27.7129C77.0092 23.9953 76.7207 20.2899 76.4563 16.5844C76.1679 12.6968 75.9035 8.79694 75.9395 4.88497C75.9516 3.26916 76.0116 1.6412 76.1078 0.0253906H76.0958Z" fill="black"/>
<path opacity="0.2" d="M73.7402 0.0248443H73.2835C73.1873 1.92008 73.1513 3.82747 73.2114 5.73485C73.2715 7.70299 73.3796 9.67112 73.62 11.615C73.7402 12.5869 73.8724 13.5588 73.9926 14.5307C74.1007 15.4783 74.257 16.4259 74.3291 17.3857C74.6055 21.0547 74.6536 24.7723 74.7738 28.4534C74.8098 29.4982 74.8459 30.543 74.8819 31.5878C74.906 29.4253 74.918 27.2628 74.93 25.1003C74.93 23.2172 74.966 21.322 74.8819 19.4389C74.8459 18.4548 74.8098 17.4707 74.7137 16.4988C74.6175 15.5391 74.5214 14.5671 74.4012 13.5952C74.1728 11.6514 73.9565 9.73186 73.8243 7.76373C73.6921 5.86849 73.7041 3.94896 73.7041 2.04157C73.7041 1.36123 73.7162 0.693037 73.7402 0.0126953V0.0248443Z" fill="black"/>
<path opacity="0.2" d="M77.7783 64.5479C77.8504 66.03 78.0427 67.4758 78.247 68.9458C78.3672 69.8691 78.4994 70.7803 78.5956 71.7036C78.6917 72.6391 78.7157 73.5745 78.7157 74.5221C78.7157 78.422 78.872 82.2975 79.1003 86.1851C79.2566 88.8458 79.4489 91.5064 79.6171 94.167C79.7613 96.451 79.8455 98.735 79.9176 101.031C80.0017 98.0668 79.9897 95.1268 79.8935 92.1624C79.7613 88.3963 79.545 84.6544 79.3888 80.8882C79.3287 79.3817 79.2566 77.8753 79.2205 76.3566C79.1845 74.8988 79.1965 73.4166 79.0042 71.983C78.6677 69.4803 78.0788 67.0627 77.8024 64.5479H77.7783Z" fill="black"/>
<path opacity="0.2" d="M71.6369 114.359C71.5768 117.141 71.4927 119.911 71.3485 122.693C71.2643 124.334 71.1442 125.962 71.012 127.577V131.125C71.3004 129.4 71.5408 127.638 71.697 125.84C71.9975 122.39 71.9854 118.891 71.7331 115.428C71.709 115.064 71.685 114.712 71.6489 114.335L71.6369 114.359Z" fill="black"/>
<path d="M90.9655 0.0126953H82.012V138.013H90.9655V0.0126953Z" fill="#BFA07C"/>
<path opacity="0.2" d="M83.7787 59.3848C83.959 60.7454 84.1273 62.094 84.2234 63.4668C84.3316 64.9733 84.3917 66.4798 84.4037 67.9862C84.4277 71.7281 84.1874 75.47 83.8869 79.1876C83.5865 83.0023 83.2379 86.805 83.0697 90.6319C82.8894 94.6046 82.9495 98.6016 83.1538 102.574C83.5384 110.143 84.2835 117.675 84.3076 125.269C84.3196 129.545 84.0672 133.785 83.6225 138.001H83.7908C83.8989 137.162 83.9951 136.324 84.0792 135.486C84.4518 131.78 84.6801 128.039 84.6921 124.297C84.7162 116.606 84.0191 108.977 83.6465 101.311C83.4543 97.3746 83.4543 93.4019 83.6465 89.4534C83.8268 85.6387 84.1393 81.8482 84.3797 78.0456C84.608 74.5102 84.7402 70.9506 84.608 67.4031C84.5599 66.0302 84.4758 64.6574 84.3316 63.2967C84.1994 61.9846 84.0071 60.6969 83.7908 59.3969L83.7787 59.3848Z" fill="black"/>
<path opacity="0.2" d="M85.8098 109.913C85.954 116.254 86.3626 122.572 86.4828 128.914C86.5308 131.513 86.5188 134.113 86.3866 136.713C86.3626 137.138 86.3386 137.564 86.3025 137.989H86.5789C86.7472 136.543 86.8674 135.097 86.9274 133.615C87.1077 129.776 86.9755 125.913 86.7472 122.074C86.5068 118.004 86.1823 113.946 85.7977 109.9L85.8098 109.913Z" fill="black"/>
<path opacity="0.2" d="M86.6751 73.3076C86.3507 76.2112 86.0502 79.127 85.8819 82.067C85.6656 85.9061 85.7137 89.7209 86.0863 93.5356C86.4588 97.314 87.0477 101.044 87.4684 104.822C87.8289 108.054 88.0092 111.285 87.889 114.553C87.889 114.699 87.889 114.833 87.877 114.979C87.9851 113.776 88.0813 112.573 88.1173 111.358C88.1654 109.621 88.0933 107.884 87.9851 106.158C87.7328 102.368 87.204 98.626 86.7953 94.8599C86.579 92.9403 86.3987 91.0208 86.3026 89.077C86.2064 87.1574 86.1944 85.2136 86.2305 83.2941C86.2906 80.0624 86.4949 76.843 86.6751 73.6235C86.6751 73.5263 86.6752 73.417 86.6872 73.3198L86.6751 73.3076Z" fill="black"/>
<path opacity="0.2" d="M84.7281 92.126C84.7281 93.0614 84.7762 93.9969 84.8243 94.9445C84.8844 96.4267 84.8964 97.921 84.9805 99.4154C85.0046 100.873 85.0767 102.331 85.1248 103.789C85.1488 104.761 85.1728 105.721 85.2209 106.693C85.4733 104.263 85.5574 101.833 85.5214 99.3789C85.3892 96.9248 85.1488 94.5315 84.7281 92.1381V92.126Z" fill="black"/>
<path opacity="0.2" d="M88.8024 75.3364C88.6702 76.4662 88.5259 77.5961 88.4298 78.7381C88.2736 80.5726 88.1654 82.4071 88.1414 84.2537C88.0693 87.8741 88.1774 91.4945 88.3577 95.1027C88.7303 102.854 89.4033 110.58 89.1629 118.356C89.0547 122.037 88.7663 125.694 88.574 129.363C88.4899 131.185 88.4058 133.02 88.4058 134.842C88.4058 135.899 88.4298 136.944 88.4538 137.989H88.5139C88.5139 135.559 88.5981 133.129 88.7663 130.711C89.0187 127.152 89.3432 123.604 89.5595 120.032C89.7758 116.084 89.7758 112.123 89.6076 108.163C89.4393 104.312 89.1629 100.473 88.9105 96.6335C88.6702 93.0252 88.4659 89.3927 88.4058 85.7602C88.3577 82.3828 88.4899 79.0418 88.7783 75.6887C88.7783 75.5672 88.8024 75.4457 88.8144 75.3242L88.8024 75.3364Z" fill="black"/>
<path opacity="0.2" d="M86.2424 38.9502C86.2424 38.6829 86.2424 38.4035 86.2544 38.1362C86.2544 37.9296 86.2544 37.711 86.2665 37.5044C86.2665 37.2979 86.2905 37.2979 86.2064 37.2007C85.978 37.0671 85.7617 37.0306 85.5213 37.0671C85.3411 37.14 85.269 37.6867 85.2329 37.9054C85.1127 38.7315 85.2569 39.6427 85.6175 40.323C85.7978 40.6753 86.0261 40.9061 86.2905 41.1248C86.3386 41.1491 86.3506 41.222 86.3867 41.1248C86.4467 40.9912 86.4948 40.8454 86.5429 40.7118C87.0837 39.3146 87.6005 37.6259 87.0957 36.0466C86.8433 35.2569 86.3746 34.6737 85.7497 34.5522C85.1608 34.4429 84.5719 34.7831 84.2955 35.5363C83.995 36.3624 84.0431 37.3951 84.007 38.2941C83.983 39.2903 83.983 40.2744 84.007 41.2706C84.0311 43.2023 84.1873 45.1461 84.3676 47.0535C84.7281 50.8075 85.2449 54.5251 85.5934 58.2792C85.8338 60.8912 86.0021 63.5275 85.966 66.1638C85.93 68.6422 85.7016 71.0599 85.281 73.4775C85.978 70.2823 86.2785 67.0143 86.2544 63.6611C86.2304 59.9679 85.8699 56.2989 85.4853 52.642C85.0767 48.7908 84.5959 44.9153 84.5118 41.0155C84.4878 40.0436 84.4758 39.0717 84.4998 38.0876C84.5118 37.3101 84.4277 36.2895 84.7762 35.6213C85.1247 34.9532 85.8699 35.0018 86.3025 35.4634C86.8073 35.9858 86.9755 36.9699 86.9395 37.8082C86.8914 38.8044 86.5789 39.7034 86.2785 40.5781C86.2064 40.7847 85.966 40.4202 85.8939 40.323C85.6295 39.9464 85.4492 39.4604 85.3651 38.938C85.293 38.4156 85.305 37.8446 85.4612 37.3586C85.4853 37.2858 85.4973 37.2007 85.5574 37.1764C85.6415 37.1157 85.8338 37.1278 85.9059 37.1643C85.99 37.1886 86.0742 37.2129 86.1583 37.2615C86.2424 37.2979 86.1944 37.6016 86.2064 37.711C86.2064 38.124 86.2184 38.5249 86.2304 38.938L86.2424 38.9502Z" fill="black"/>
<path opacity="0.2" d="M87.2279 41.4648C87.0957 47.187 87.0716 52.9092 87.0837 58.6313C87.0957 65.2039 87.1558 71.7765 87.312 78.3491C87.3361 79.2603 87.3601 80.1836 87.3841 81.0947C87.5043 77.0977 87.5644 73.1007 87.6005 69.1037C87.6726 61.8751 87.6005 54.6586 87.4082 47.43C87.3601 45.4376 87.3 43.4573 87.2279 41.4648Z" fill="black"/>
<path opacity="0.2" d="M82.5408 48.8397C82.3245 50.2976 82.1442 51.7555 82.0481 53.2255C82.024 53.5171 82.012 53.7844 82 54.0759V60.527C82.1322 63.7829 82.3966 67.0024 82.6129 70.234C82.7572 72.4087 82.8413 74.5834 82.8894 76.7702C83.0696 73.5021 83.0336 70.2826 82.8894 67.0146C82.7091 63.2119 82.4086 59.4215 82.3485 55.6188C82.3005 53.3348 82.3966 51.0873 82.5408 48.8154V48.8397Z" fill="black"/>
<path opacity="0.2" d="M83.5384 0.0253906H83.2499C83.298 1.94493 83.3461 3.86446 83.3941 5.784C83.5744 13.4743 83.6826 21.1889 82.7572 28.7941C82.5288 30.6894 82.3486 32.5967 82.3125 34.5284C82.3125 34.7228 82.3125 34.9172 82.3125 35.1116C82.3125 36.861 82.4086 38.6105 82.5048 40.3599C82.6971 44.0897 83.0096 47.8194 83.5143 51.4884C83.6585 52.5818 83.8148 53.6752 83.959 54.7686C83.6585 51.8164 83.334 48.8642 83.1538 45.8877C83.0336 43.9925 82.9374 42.1094 82.8774 40.2141C82.8173 38.2703 82.7331 36.3143 82.7932 34.3705C82.8413 32.4267 83.0696 30.5071 83.322 28.5876C83.5744 26.6681 83.7186 24.7242 83.8508 22.7804C84.0792 18.9535 84.0792 15.1022 83.983 11.2632C83.8869 7.5213 83.7307 3.77942 83.5504 0.0375396L83.5384 0.0253906Z" fill="black"/>
<path opacity="0.2" d="M89.4153 0.0252745H89.1389C88.9466 1.33736 88.7783 2.67375 88.6822 4.01013C88.55 5.91752 88.562 7.83705 88.6341 9.74444C88.9226 17.4712 89.7759 25.1372 89.9321 32.8761C90.0042 36.8123 89.86 40.7243 89.4754 44.6119C89.2951 46.5072 89.0788 48.3903 88.9466 50.2855C88.8144 52.1321 88.7663 53.9545 88.8024 55.8011C88.8625 58.729 89.187 61.6448 89.4994 64.5362C89.2831 61.7055 89.0307 58.8627 89.0187 56.0198C89.0187 54.1489 89.0908 52.3022 89.2591 50.4556C89.4273 48.5847 89.6557 46.7259 89.872 44.8671C90.2686 41.356 90.4729 37.8328 90.4729 34.2732C90.4729 33.9087 90.4729 33.5564 90.4729 33.1919C90.4248 29.2314 90.1725 25.283 89.884 21.3345C89.6076 17.6048 89.3071 13.8872 89.1028 10.1575C88.9947 8.27442 88.9346 6.36703 89.0187 4.47179C89.0788 2.96532 89.235 1.48315 89.4273 0.000976562L89.4153 0.0252745Z" fill="black"/>
<path opacity="0.2" d="M87.0958 0.0253906H86.6992C86.4949 2.51593 86.3867 5.01861 86.4228 7.54559C86.5069 15.0658 87.6847 22.4645 87.8048 29.9969C87.8409 32.0865 87.7448 34.1518 87.6005 36.2293C87.925 33.3986 88.0933 30.5922 88.0572 27.7129C88.0092 23.9953 87.7207 20.2899 87.4563 16.5844C87.1679 12.6968 86.9035 8.79694 86.9395 4.88497C86.9516 3.26916 87.0116 1.6412 87.1078 0.0253906H87.0958Z" fill="black"/>
<path opacity="0.2" d="M84.7402 0.0248443H84.2835C84.1873 1.92008 84.1513 3.82747 84.2114 5.73485C84.2715 7.70299 84.3796 9.67112 84.62 11.615C84.7402 12.5869 84.8724 13.5588 84.9926 14.5307C85.1007 15.4783 85.257 16.4259 85.3291 17.3857C85.6055 21.0547 85.6536 24.7723 85.7738 28.4534C85.8098 29.4982 85.8459 30.543 85.8819 31.5878C85.906 29.4253 85.918 27.2628 85.93 25.1003C85.93 23.2172 85.966 21.322 85.8819 19.4389C85.8459 18.4548 85.8098 17.4707 85.7137 16.4988C85.6175 15.5391 85.5214 14.5671 85.4012 13.5952C85.1728 11.6514 84.9565 9.73186 84.8243 7.76373C84.6921 5.86849 84.7041 3.94896 84.7041 2.04157C84.7041 1.36123 84.7162 0.693037 84.7402 0.0126953V0.0248443Z" fill="black"/>
<path opacity="0.2" d="M88.7783 64.5479C88.8504 66.03 89.0427 67.4758 89.247 68.9458C89.3672 69.8691 89.4994 70.7803 89.5956 71.7036C89.6917 72.6391 89.7157 73.5745 89.7157 74.5221C89.7157 78.422 89.872 82.2975 90.1003 86.1851C90.2566 88.8458 90.4489 91.5064 90.6171 94.167C90.7613 96.451 90.8455 98.735 90.9176 101.031C91.0017 98.0668 90.9897 95.1268 90.8935 92.1624C90.7613 88.3963 90.545 84.6544 90.3888 80.8882C90.3287 79.3817 90.2566 77.8753 90.2205 76.3566C90.1845 74.8988 90.1965 73.4166 90.0042 71.983C89.6677 69.4803 89.0788 67.0627 88.8024 64.5479H88.7783Z" fill="black"/>
<path opacity="0.2" d="M82.6369 114.359C82.5768 117.141 82.4927 119.911 82.3485 122.693C82.2643 124.334 82.1442 125.962 82.012 127.577V131.125C82.3004 129.4 82.5408 127.638 82.697 125.84C82.9975 122.39 82.9854 118.891 82.7331 115.428C82.709 115.064 82.685 114.712 82.6489 114.335L82.6369 114.359Z" fill="black"/>
<path d="M102.966 0.0126953H94.012V138.013H102.966V0.0126953Z" fill="#BFA07C"/>
<path opacity="0.2" d="M95.7787 59.3848C95.959 60.7454 96.1273 62.094 96.2234 63.4668C96.3316 64.9733 96.3917 66.4798 96.4037 67.9862C96.4277 71.7281 96.1874 75.47 95.8869 79.1876C95.5865 83.0023 95.2379 86.805 95.0697 90.6319C94.8894 94.6046 94.9495 98.6016 95.1538 102.574C95.5384 110.143 96.2835 117.675 96.3076 125.269C96.3196 129.545 96.0672 133.785 95.6225 138.001H95.7908C95.8989 137.162 95.9951 136.324 96.0792 135.486C96.4518 131.78 96.6801 128.039 96.6921 124.297C96.7162 116.606 96.0191 108.977 95.6465 101.311C95.4543 97.3746 95.4543 93.4019 95.6465 89.4534C95.8268 85.6387 96.1393 81.8482 96.3797 78.0456C96.608 74.5102 96.7402 70.9506 96.608 67.4031C96.5599 66.0302 96.4758 64.6574 96.3316 63.2967C96.1994 61.9846 96.0071 60.6969 95.7908 59.3969L95.7787 59.3848Z" fill="black"/>
<path opacity="0.2" d="M97.8098 109.913C97.954 116.254 98.3626 122.572 98.4828 128.914C98.5308 131.513 98.5188 134.113 98.3866 136.713C98.3626 137.138 98.3386 137.564 98.3025 137.989H98.5789C98.7472 136.543 98.8674 135.097 98.9274 133.615C99.1077 129.776 98.9755 125.913 98.7472 122.074C98.5068 118.004 98.1823 113.946 97.7977 109.9L97.8098 109.913Z" fill="black"/>
<path opacity="0.2" d="M98.6751 73.3076C98.3507 76.2112 98.0502 79.127 97.8819 82.067C97.6656 85.9061 97.7137 89.7209 98.0863 93.5356C98.4588 97.314 99.0477 101.044 99.4684 104.822C99.8289 108.054 100.009 111.285 99.889 114.553C99.889 114.699 99.889 114.833 99.877 114.979C99.9851 113.776 100.081 112.573 100.117 111.358C100.165 109.621 100.093 107.884 99.9851 106.158C99.7328 102.368 99.204 98.626 98.7953 94.8599C98.579 92.9403 98.3987 91.0208 98.3026 89.077C98.2064 87.1574 98.1944 85.2136 98.2305 83.2941C98.2906 80.0624 98.4949 76.843 98.6751 73.6235C98.6751 73.5263 98.6752 73.417 98.6872 73.3198L98.6751 73.3076Z" fill="black"/>
<path opacity="0.2" d="M96.7281 92.126C96.7281 93.0614 96.7762 93.9969 96.8243 94.9445C96.8844 96.4267 96.8964 97.921 96.9805 99.4154C97.0046 100.873 97.0767 102.331 97.1248 103.789C97.1488 104.761 97.1728 105.721 97.2209 106.693C97.4733 104.263 97.5574 101.833 97.5214 99.3789C97.3892 96.9248 97.1488 94.5315 96.7281 92.1381V92.126Z" fill="black"/>
<path opacity="0.2" d="M100.802 75.3364C100.67 76.4662 100.526 77.5961 100.43 78.7381C100.274 80.5726 100.165 82.4071 100.141 84.2537C100.069 87.8741 100.177 91.4945 100.358 95.1027C100.73 102.854 101.403 110.58 101.163 118.356C101.055 122.037 100.766 125.694 100.574 129.363C100.49 131.185 100.406 133.02 100.406 134.842C100.406 135.899 100.43 136.944 100.454 137.989H100.514C100.514 135.559 100.598 133.129 100.766 130.711C101.019 127.152 101.343 123.604 101.56 120.032C101.776 116.084 101.776 112.123 101.608 108.163C101.439 104.312 101.163 100.473 100.911 96.6335C100.67 93.0252 100.466 89.3927 100.406 85.7602C100.358 82.3828 100.49 79.0418 100.778 75.6887C100.778 75.5672 100.802 75.4457 100.814 75.3242L100.802 75.3364Z" fill="black"/>
<path opacity="0.2" d="M98.2424 38.9502C98.2424 38.6829 98.2424 38.4035 98.2544 38.1362C98.2544 37.9296 98.2544 37.711 98.2665 37.5044C98.2665 37.2979 98.2905 37.2979 98.2064 37.2007C97.978 37.0671 97.7617 37.0306 97.5213 37.0671C97.3411 37.14 97.269 37.6867 97.2329 37.9054C97.1127 38.7315 97.2569 39.6427 97.6175 40.323C97.7978 40.6753 98.0261 40.9061 98.2905 41.1248C98.3386 41.1491 98.3506 41.222 98.3867 41.1248C98.4467 40.9912 98.4948 40.8454 98.5429 40.7118C99.0837 39.3146 99.6005 37.6259 99.0957 36.0466C98.8433 35.2569 98.3746 34.6737 97.7497 34.5522C97.1608 34.4429 96.5719 34.7831 96.2955 35.5363C95.995 36.3624 96.0431 37.3951 96.007 38.2941C95.983 39.2903 95.983 40.2744 96.007 41.2706C96.0311 43.2023 96.1873 45.1461 96.3676 47.0535C96.7281 50.8075 97.2449 54.5251 97.5934 58.2792C97.8338 60.8912 98.0021 63.5275 97.966 66.1638C97.93 68.6422 97.7016 71.0599 97.281 73.4775C97.978 70.2823 98.2785 67.0143 98.2544 63.6611C98.2304 59.9679 97.8699 56.2989 97.4853 52.642C97.0767 48.7908 96.5959 44.9153 96.5118 41.0155C96.4878 40.0436 96.4758 39.0717 96.4998 38.0876C96.5118 37.3101 96.4277 36.2895 96.7762 35.6213C97.1247 34.9532 97.8699 35.0018 98.3025 35.4634C98.8073 35.9858 98.9755 36.9699 98.9395 37.8082C98.8914 38.8044 98.5789 39.7034 98.2785 40.5781C98.2064 40.7847 97.966 40.4202 97.8939 40.323C97.6295 39.9464 97.4492 39.4604 97.3651 38.938C97.293 38.4156 97.305 37.8446 97.4612 37.3586C97.4853 37.2858 97.4973 37.2007 97.5574 37.1764C97.6415 37.1157 97.8338 37.1278 97.9059 37.1643C97.99 37.1886 98.0742 37.2129 98.1583 37.2615C98.2424 37.2979 98.1944 37.6016 98.2064 37.711C98.2064 38.124 98.2184 38.5249 98.2304 38.938L98.2424 38.9502Z" fill="black"/>
<path opacity="0.2" d="M99.2279 41.4648C99.0957 47.187 99.0716 52.9092 99.0837 58.6313C99.0957 65.2039 99.1558 71.7765 99.312 78.3491C99.3361 79.2603 99.3601 80.1836 99.3841 81.0947C99.5043 77.0977 99.5644 73.1007 99.6005 69.1037C99.6726 61.8751 99.6005 54.6586 99.4082 47.43C99.3601 45.4376 99.3 43.4573 99.2279 41.4648Z" fill="black"/>
<path opacity="0.2" d="M94.5408 48.8397C94.3245 50.2976 94.1442 51.7555 94.0481 53.2255C94.024 53.5171 94.012 53.7844 94 54.0759V60.527C94.1322 63.7829 94.3966 67.0024 94.6129 70.234C94.7572 72.4087 94.8413 74.5834 94.8894 76.7702C95.0696 73.5021 95.0336 70.2826 94.8894 67.0146C94.7091 63.2119 94.4086 59.4215 94.3485 55.6188C94.3005 53.3348 94.3966 51.0873 94.5408 48.8154V48.8397Z" fill="black"/>
<path opacity="0.2" d="M95.5384 0.0253906H95.2499C95.298 1.94493 95.3461 3.86446 95.3941 5.784C95.5744 13.4743 95.6826 21.1889 94.7572 28.7941C94.5288 30.6894 94.3486 32.5967 94.3125 34.5284C94.3125 34.7228 94.3125 34.9172 94.3125 35.1116C94.3125 36.861 94.4086 38.6105 94.5048 40.3599C94.6971 44.0897 95.0096 47.8194 95.5143 51.4884C95.6585 52.5818 95.8148 53.6752 95.959 54.7686C95.6585 51.8164 95.334 48.8642 95.1538 45.8877C95.0336 43.9925 94.9374 42.1094 94.8774 40.2141C94.8173 38.2703 94.7331 36.3143 94.7932 34.3705C94.8413 32.4267 95.0696 30.5071 95.322 28.5876C95.5744 26.6681 95.7186 24.7242 95.8508 22.7804C96.0792 18.9535 96.0792 15.1022 95.983 11.2632C95.8869 7.5213 95.7307 3.77942 95.5504 0.0375396L95.5384 0.0253906Z" fill="black"/>
<path opacity="0.2" d="M101.415 0.0252745H101.139C100.947 1.33736 100.778 2.67375 100.682 4.01013C100.55 5.91752 100.562 7.83705 100.634 9.74444C100.923 17.4712 101.776 25.1372 101.932 32.8761C102.004 36.8123 101.86 40.7243 101.475 44.6119C101.295 46.5072 101.079 48.3903 100.947 50.2855C100.814 52.1321 100.766 53.9545 100.802 55.8011C100.862 58.729 101.187 61.6448 101.499 64.5362C101.283 61.7055 101.031 58.8627 101.019 56.0198C101.019 54.1489 101.091 52.3022 101.259 50.4556C101.427 48.5847 101.656 46.7259 101.872 44.8671C102.269 41.356 102.473 37.8328 102.473 34.2732C102.473 33.9087 102.473 33.5564 102.473 33.1919C102.425 29.2314 102.172 25.283 101.884 21.3345C101.608 17.6048 101.307 13.8872 101.103 10.1575C100.995 8.27442 100.935 6.36703 101.019 4.47179C101.079 2.96532 101.235 1.48315 101.427 0.000976562L101.415 0.0252745Z" fill="black"/>
<path opacity="0.2" d="M99.0958 0.0253906H98.6992C98.4949 2.51593 98.3867 5.01861 98.4228 7.54559C98.5069 15.0658 99.6847 22.4645 99.8048 29.9969C99.8409 32.0865 99.7448 34.1518 99.6005 36.2293C99.925 33.3986 100.093 30.5922 100.057 27.7129C100.009 23.9953 99.7207 20.2899 99.4563 16.5844C99.1679 12.6968 98.9035 8.79694 98.9395 4.88497C98.9516 3.26916 99.0116 1.6412 99.1078 0.0253906H99.0958Z" fill="black"/>
<path opacity="0.2" d="M96.7402 0.0248443H96.2835C96.1873 1.92008 96.1513 3.82747 96.2114 5.73485C96.2715 7.70299 96.3796 9.67112 96.62 11.615C96.7402 12.5869 96.8724 13.5588 96.9926 14.5307C97.1007 15.4783 97.257 16.4259 97.3291 17.3857C97.6055 21.0547 97.6536 24.7723 97.7738 28.4534C97.8098 29.4982 97.8459 30.543 97.8819 31.5878C97.906 29.4253 97.918 27.2628 97.93 25.1003C97.93 23.2172 97.966 21.322 97.8819 19.4389C97.8459 18.4548 97.8098 17.4707 97.7137 16.4988C97.6175 15.5391 97.5214 14.5671 97.4012 13.5952C97.1728 11.6514 96.9565 9.73186 96.8243 7.76373C96.6921 5.86849 96.7041 3.94896 96.7041 2.04157C96.7041 1.36123 96.7162 0.693037 96.7402 0.0126953V0.0248443Z" fill="black"/>
<path opacity="0.2" d="M100.778 64.5479C100.85 66.03 101.043 67.4758 101.247 68.9458C101.367 69.8691 101.499 70.7803 101.596 71.7036C101.692 72.6391 101.716 73.5745 101.716 74.5221C101.716 78.422 101.872 82.2975 102.1 86.1851C102.257 88.8458 102.449 91.5064 102.617 94.167C102.761 96.451 102.845 98.735 102.918 101.031C103.002 98.0668 102.99 95.1268 102.894 92.1624C102.761 88.3963 102.545 84.6544 102.389 80.8882C102.329 79.3817 102.257 77.8753 102.221 76.3566C102.184 74.8988 102.196 73.4166 102.004 71.983C101.668 69.4803 101.079 67.0627 100.802 64.5479H100.778Z" fill="black"/>
<path opacity="0.2" d="M94.6369 114.359C94.5768 117.141 94.4927 119.911 94.3485 122.693C94.2643 124.334 94.1442 125.962 94.012 127.577V131.125C94.3004 129.4 94.5408 127.638 94.697 125.84C94.9975 122.39 94.9854 118.891 94.7331 115.428C94.709 115.064 94.685 114.712 94.6489 114.335L94.6369 114.359Z" fill="black"/>
<defs>
<clipPath id="clip0_156_1388">
<rect width="58" height="138" fill="white" transform="translate(0 0.000976562)"/>
</clipPath>
</defs>
</svg>
